<?xml version="1.0" standalone="no"?>
<!DOCTYPE svg PUBLIC "-//W3C//DTD SVG 20010904//EN"
 "http://www.w3.org/TR/2001/REC-SVG-20010904/DTD/svg10.dtd">
<svg version="1.0" xmlns="http://www.w3.org/2000/svg"
 width="1376.000000pt" height="1376.000000pt" viewBox="0 0 1376.000000 1376.000000"
 preserveAspectRatio="xMidYMid meet">
<metadata>
Created by potrace 1.14, written by Peter Selinger 2001-2017
</metadata>
<g transform="translate(0.000000,1376.000000) scale(0.100000,-0.100000)"
fill="#000000" stroke="none">
<path d="M6688 13755 c-2 -2 -29 -6 -60 -9 -193 -22 -336 -107 -422 -250 -37
-62 -72 -145 -81 -193 -2 -16 -11 -48 -18 -73 l-13 -45 -94 -1 c-220 -3 -288
-8 -336 -24 -205 -66 -252 -326 -87 -481 26 -24 50 -44 53 -43 3 0 19 -5 36
-12 18 -7 47 -16 65 -19 49 -9 2244 -9 2309 0 30 4 70 13 88 20 17 8 32 12 32
9 0 -3 18 9 41 27 47 37 85 91 95 134 12 54 9 193 -6 222 -23 46 -101 112
-157 133 -76 28 -119 33 -390 39 -43 1 -48 6 -58 63 -3 13 -12 48 -20 78 -8
30 -17 62 -19 71 -11 41 -66 127 -116 178 -99 103 -191 152 -316 169 -61 9
-518 15 -526 7z"/>
<path d="M5387 12364 c-2 -3 -20 -7 -38 -9 -55 -6 -72 -12 -114 -36 -44 -26
-95 -69 -81 -69 5 0 4 -6 -1 -12 -6 -7 -16 -31 -23 -53 -7 -22 -16 -42 -21
-45 -13 -9 -16 -62 -7 -100 21 -79 69 -158 122 -200 31 -24 49 -30 90 -31 28
-1 74 -3 101 -5 113 -10 2010 -11 2023 -1 6 5 12 6 12 1 0 -11 896 -10 985 0
103 12 129 23 177 74 58 64 81 114 82 182 1 100 -13 144 -67 207 -37 43 -122
81 -190 85 -21 1 -40 5 -43 10 -3 4 -14 4 -26 -1 -12 -4 -37 -5 -55 -1 -21 5
-31 4 -27 -2 4 -6 -2 -8 -15 -3 -27 8 -159 10 -168 2 -3 -4 -13 -2 -22 3 -10
5 -23 5 -30 1 -7 -5 -30 -5 -51 -1 -25 5 -37 4 -33 -2 3 -6 -3 -7 -16 -3 -11
3 -51 6 -89 6 -68 -1 -92 -1 -114 -1 -7 1 -27 -1 -44 -3 -18 -1 -40 0 -50 4
-11 3 -29 3 -41 -2 -13 -5 -23 -5 -23 1 0 5 -12 5 -30 0 -17 -5 -32 -5 -35 0
-3 5 -12 7 -20 4 -22 -9 -116 -11 -121 -3 -2 4 -17 4 -33 -1 -15 -4 -34 -4
-42 0 -7 5 -17 6 -22 3 -12 -7 -116 -7 -123 0 -4 3 -17 2 -30 -3 -14 -6 -24
-6 -24 0 0 5 -12 5 -30 0 -17 -5 -32 -5 -35 0 -3 5 -12 7 -20 4 -22 -9 -116
-11 -121 -3 -2 4 -17 4 -33 -1 -15 -4 -34 -4 -42 0 -7 5 -17 6 -22 3 -12 -7
-116 -7 -123 0 -4 3 -17 2 -30 -3 -14 -6 -24 -6 -24 0 0 5 -12 5 -29 0 -15 -4
-34 -4 -42 0 -7 5 -17 6 -22 3 -14 -8 -108 -9 -114 0 -2 4 -10 4 -16 -1 -7 -5
-21 -6 -32 -2 -11 4 -30 4 -42 -1 -13 -5 -23 -5 -23 1 0 5 -12 5 -30 0 -17 -5
-32 -5 -35 0 -3 5 -12 7 -20 4 -22 -9 -116 -11 -121 -3 -2 4 -17 4 -33 -1 -15
-4 -34 -4 -42 0 -7 5 -17 6 -22 3 -12 -7 -116 -7 -123 0 -4 3 -17 2 -30 -3
-14 -6 -24 -6 -24 0 0 5 -12 5 -29 0 -16 -4 -32 -6 -34 -3 -7 6 -84 5 -114 -1
-13 -3 -25 -1 -28 4 -3 6 -16 5 -30 0 -15 -6 -27 -6 -30 0 -3 5 -16 6 -28 2
-28 -9 -69 -8 -85 2 -6 4 -12 3 -12 -3 0 -7 -8 -7 -24 -1 -13 5 -26 7 -29 4z"/>
<path d="M5827 11574 c-1 -1 -110 -4 -242 -7 -264 -6 -266 -6 -315 -36 -19
-11 -42 -24 -50 -28 -88 -42 -140 -261 -88 -371 49 -103 188 -156 404 -152
357 5 1277 3 1281 -3 2 -4 9 -5 14 -1 6 3 70 5 142 4 141 -2 932 -3 1007 -1
25 1 52 1 60 0 74 -4 421 11 441 19 15 6 30 8 33 5 3 -4 6 -1 6 5 0 7 7 12 16
12 26 0 90 52 123 100 73 107 53 248 -49 347 -34 34 -60 50 -150 92 -20 10
-95 14 -210 13 -157 -1 -727 -1 -1598 1 -453 1 -824 2 -825 1z"/>
<path d="M5229 10704 c-24 -13 -71 -35 -104 -50 -33 -15 -73 -37 -90 -48 -47
-33 -175 -167 -175 -185 0 -3 -11 -22 -23 -41 -23 -34 -64 -139 -74 -190 -8
-41 -11 -55 -13 -57 -2 -2 -4 -16 -5 -33 -1 -16 -3 -31 -5 -32 -2 -3 -6 -53
-14 -181 -3 -43 -8 -82 -11 -88 -4 -5 -1 -9 5 -9 6 0 9 -4 6 -9 -6 -8 -8 -36
-21 -216 -3 -43 -8 -95 -11 -115 -9 -67 -16 -115 -20 -135 -3 -11 -7 -38 -10
-60 -4 -22 -19 -92 -36 -155 -16 -63 -30 -119 -32 -125 -5 -22 -38 -121 -46
-140 -24 -53 -74 -191 -72 -197 1 -5 -2 -8 -8 -8 -5 0 -10 -6 -10 -14 0 -22
-147 -306 -225 -436 -59 -99 -158 -249 -238 -363 -12 -18 -37 -45 -56 -62 -99
-87 -335 -330 -446 -458 -10 -12 -107 -132 -123 -152 -82 -105 -232 -322 -232
-336 0 -5 -4 -9 -10 -9 -5 0 -10 -4 -10 -10 0 -5 -16 -35 -36 -66 -77 -120
-237 -436 -298 -589 -20 -49 -41 -99 -46 -110 -18 -42 -101 -283 -106 -310 -1
-5 -10 -37 -20 -70 -10 -33 -19 -64 -20 -70 -1 -5 -13 -57 -27 -115 -24 -98
-39 -173 -52 -245 -3 -16 -7 -41 -10 -55 -2 -13 -7 -41 -10 -62 -3 -21 -7 -55
-10 -77 -10 -69 -20 -176 -31 -316 -7 -98 -7 -456 0 -545 3 -36 8 -94 11 -130
3 -36 8 -85 11 -110 3 -25 7 -63 9 -85 2 -22 4 -40 5 -40 1 0 3 -11 6 -25 21
-130 29 -174 40 -225 4 -16 8 -39 10 -50 2 -11 6 -31 9 -45 4 -14 8 -34 10
-45 2 -11 16 -63 31 -115 14 -52 26 -101 27 -107 0 -7 4 -13 9 -13 5 0 6 -4 3
-10 -3 -6 -3 -16 2 -23 4 -6 9 -18 10 -24 5 -20 10 -37 16 -53 3 -8 25 -69 48
-135 23 -66 46 -124 50 -129 5 -6 9 -16 9 -23 0 -7 13 -41 29 -75 16 -35 31
-70 33 -78 2 -8 5 -17 8 -20 3 -3 41 -77 84 -165 44 -88 94 -184 113 -213 18
-29 33 -54 33 -57 0 -2 13 -24 30 -48 17 -25 30 -48 30 -51 0 -4 5 -12 10 -19
6 -7 49 -68 96 -137 129 -187 272 -363 434 -534 137 -143 307 -300 431 -396
18 -14 37 -30 43 -35 6 -6 27 -22 46 -35 38 -27 65 -48 85 -67 8 -7 16 -13 19
-13 3 0 50 -32 105 -70 55 -38 102 -70 105 -70 3 0 25 -13 49 -30 25 -16 50
-30 56 -30 6 0 11 -4 11 -9 0 -5 8 -11 18 -14 9 -4 36 -17 58 -31 107 -63 317
-167 474 -233 19 -8 44 -19 55 -23 61 -26 165 -63 280 -100 72 -23 137 -45
145 -47 8 -3 22 -7 30 -9 8 -1 57 -14 108 -27 50 -14 92 -23 92 -20 0 3 7 0
15 -7 8 -7 15 -10 15 -7 0 3 17 1 38 -5 20 -5 48 -10 62 -12 14 -2 54 -9 90
-16 123 -23 174 -31 240 -36 30 -2 64 -6 75 -9 53 -11 244 -20 470 -20 218 0
311 4 465 20 19 2 52 5 73 6 20 2 37 5 37 8 0 4 15 6 33 7 34 0 106 10 147 19
14 3 41 8 60 11 19 3 63 12 98 20 34 7 77 16 95 19 17 3 46 10 62 15 36 12
172 49 198 55 31 7 311 103 352 122 22 9 42 17 45 18 3 1 22 9 44 18 21 9 40
17 41 17 2 0 41 18 88 40 46 22 89 40 95 40 6 0 12 3 14 8 2 4 44 27 93 52 50
24 92 47 95 50 3 3 23 14 45 25 22 11 42 22 45 25 3 3 25 16 50 29 25 14 47
27 50 31 3 3 27 19 54 35 27 17 59 37 71 45 11 8 37 25 56 37 78 51 302 224
391 303 186 164 368 348 490 495 18 23 39 47 46 55 11 13 70 89 123 160 44 59
87 120 134 190 28 41 54 78 58 81 5 3 8 10 8 15 -1 5 4 16 11 25 16 19 32 47
61 102 11 23 24 44 28 47 11 9 148 280 141 280 -4 0 -2 4 4 8 21 14 179 400
209 512 3 8 20 67 40 130 19 63 37 124 40 135 2 11 6 30 9 43 3 13 8 32 11 42
3 10 8 29 10 42 3 13 8 37 12 53 3 17 7 37 9 45 1 8 5 26 8 40 4 14 9 43 11
65 3 22 8 47 10 55 3 8 7 35 10 60 3 25 7 55 10 68 2 13 7 51 11 85 3 34 8 76
10 92 23 208 23 672 -2 862 -2 24 -7 64 -9 90 -2 27 -4 48 -5 48 -2 0 -8 43
-14 100 -2 17 -5 30 -6 30 -1 0 -3 11 -4 25 -2 14 -6 43 -10 65 -5 22 -10 51
-13 65 -2 14 -9 45 -14 70 -6 25 -13 55 -15 67 -2 11 -18 72 -34 135 -17 62
-32 120 -34 128 -7 28 -47 155 -56 175 -4 11 -13 34 -18 50 -33 95 -93 243
-136 335 -11 25 -20 48 -18 53 1 4 -2 7 -8 7 -6 0 -9 3 -8 8 2 9 -70 159 -95
195 -10 15 -15 27 -10 27 4 0 4 4 -2 8 -5 4 -21 27 -34 52 -39 72 -46 83 -54
94 -4 6 -42 65 -83 131 -42 66 -81 123 -88 127 -6 4 -8 8 -4 8 4 0 1 8 -7 18
-7 9 -35 46 -62 82 -26 36 -50 67 -54 70 -3 3 -10 12 -15 21 -11 20 -68 89
-111 136 -18 18 -33 37 -34 41 -5 14 -86 99 -240 252 -182 179 -236 230 -248
230 -5 0 -11 8 -14 18 -5 14 -71 114 -105 157 -8 10 -70 107 -87 136 -100 168
-291 553 -299 603 -1 6 -5 17 -10 24 -16 26 -118 358 -131 427 -12 65 -25 133
-29 151 -2 12 -7 45 -11 75 -4 30 -9 70 -11 89 -5 35 -10 116 -19 280 -16 297
-22 353 -54 462 -36 125 -120 251 -197 295 -17 10 -62 37 -100 61 -38 24 -78
48 -89 55 -11 7 -22 14 -25 17 -5 5 -41 26 -76 45 -13 6 -80 11 -173 10 -83 0
-151 4 -151 8 0 5 -6 5 -12 1 -17 -11 -528 -11 -528 -1 0 5 -5 5 -11 1 -7 -4
-77 -6 -158 -6 -135 1 -366 2 -401 1 -8 0 -46 0 -85 0 -38 1 -77 1 -85 0 -8 0
-46 1 -85 2 -38 1 -74 0 -80 -1 -5 -1 -12 -2 -15 0 -3 1 -327 3 -721 4 l-716
2 -44 -22z m535 -465 c19 -19 23 -317 15 -1142 -4 -399 -1 -372 -54 -383 -48
-9 -322 -97 -390 -125 -16 -7 -34 -13 -40 -15 -15 -4 -194 -79 -250 -105 -27
-13 -52 -24 -55 -24 -3 -1 -24 -11 -47 -23 l-43 -22 10 25 c5 14 18 44 28 68
11 23 30 74 43 112 13 39 26 72 29 75 3 3 6 10 6 15 1 6 13 48 27 95 27 89 55
191 62 225 2 11 6 32 9 48 3 15 7 35 10 45 7 23 17 70 22 109 2 18 9 44 14 58
6 17 6 25 -1 25 -6 0 -7 6 -2 13 4 6 9 19 10 27 6 33 14 87 18 130 2 25 7 72
10 105 7 71 11 121 20 275 6 118 8 132 21 210 4 25 7 49 6 54 -2 4 2 14 8 20
5 7 7 16 3 19 -3 4 -1 7 5 7 7 0 12 5 12 11 0 24 47 54 98 62 19 3 35 7 37 9
6 6 353 3 359 -3z m643 -2 c6 -4 14 -4 17 1 6 10 127 9 143 -1 6 -4 14 -4 17
1 2 4 67 7 143 5 171 -4 151 -4 198 0 22 2 46 -1 53 -6 6 -5 12 -6 12 -1 0 11
121 11 138 0 7 -4 12 -4 12 1 0 10 81 10 98 0 6 -5 12 -5 12 0 0 9 81 10 96 1
5 -4 16 -3 24 2 9 5 19 5 27 -2 8 -6 13 -7 13 -1 0 6 15 8 33 6 17 -3 37 -4
42 -4 6 0 29 2 53 4 33 2 47 -1 56 -15 16 -22 20 -107 18 -363 -2 -302 -1
-830 2 -947 2 -123 9 -117 -95 -98 -30 5 -79 12 -109 15 -30 4 -71 8 -91 11
-129 14 -166 16 -201 11 -16 -2 -28 -1 -28 3 0 13 -546 1 -655 -14 -16 -3 -52
-8 -80 -11 -27 -4 -61 -8 -75 -10 -14 -2 -51 -7 -82 -10 l-57 -7 -3 167 c-2
92 0 172 4 178 4 6 4 15 1 21 -6 9 -6 825 0 972 2 44 6 85 9 90 7 11 238 12
255 1z m1957 5 c12 -7 18 -9 41 -11 29 -2 82 -60 94 -103 22 -79 21 -71 36
-313 10 -154 15 -218 21 -265 9 -68 13 -100 18 -152 2 -26 7 -55 10 -65 3 -10
8 -34 10 -53 4 -30 11 -65 40 -200 3 -14 10 -45 17 -70 6 -25 12 -54 15 -65 8
-41 49 -175 87 -280 21 -60 40 -114 41 -120 3 -10 8 -24 39 -97 17 -41 16 -43
-11 -28 -41 23 -162 79 -162 75 0 -3 -16 4 -35 15 -20 11 -40 20 -45 20 -6 0
-29 9 -53 19 -23 10 -76 31 -117 46 -41 15 -88 32 -105 39 -16 6 -32 11 -35
11 -3 1 -38 11 -78 24 -40 13 -80 24 -90 26 -9 2 -18 4 -19 5 -2 2 -6 3 -10 4
-5 1 -29 8 -55 16 l-47 14 -2 216 c-3 381 0 1103 4 1165 3 33 5 75 6 94 1 28
4 33 21 28 11 -3 20 -2 20 2 0 9 330 12 344 3z m-1060 -3566 c85 -12 240 -48
268 -62 15 -8 31 -15 35 -15 20 -3 46 -14 143 -61 58 -29 111 -57 118 -65 7
-7 19 -13 27 -13 7 0 15 -3 17 -7 2 -5 30 -28 63 -52 123 -91 305 -295 346
-388 8 -18 17 -33 20 -33 4 0 17 -25 30 -55 12 -30 26 -55 31 -55 4 0 7 -3 6
-7 -1 -5 9 -39 24 -78 58 -154 82 -293 82 -470 0 -127 -7 -180 -39 -285 -14
-47 -27 -89 -29 -95 -7 -26 -70 -150 -78 -153 -4 -2 -6 -8 -2 -13 3 -5 0 -9
-5 -9 -6 0 -11 -5 -11 -12 0 -16 -101 -147 -144 -186 -38 -34 -45 -52 -23 -52
8 0 33 -13 55 -30 23 -16 45 -30 48 -30 10 0 114 -90 162 -140 132 -138 226
-353 247 -566 9 -85 12 -174 8 -194 -4 -13 -74 -15 -563 -14 -308 0 -562 3
-566 7 -4 3 -7 19 -8 34 -2 40 -13 53 -47 53 -25 0 -32 7 -50 45 -12 25 -25
45 -30 45 -5 0 -9 6 -9 13 0 39 -168 145 -211 134 -11 -3 -21 -2 -23 1 -3 5
-667 8 -697 3 -3 -1 -6 -13 -6 -28 0 -16 -1 -39 -2 -53 l-1 -26 -141 0 c-134
0 -142 -1 -159 -22 -20 -25 -16 -58 9 -71 9 -4 72 -7 141 -6 69 1 132 -2 140
-6 13 -6 15 -33 13 -166 -1 -87 -2 -163 -2 -169 -1 -6 -49 -10 -140 -9 -83 1
-145 -3 -153 -10 -22 -15 -27 -49 -11 -70 12 -17 28 -19 158 -20 89 0 145 -4
146 -10 1 -5 1 -28 2 -50 0 -22 4 -42 8 -45 11 -8 677 -4 733 4 94 13 182 82
231 179 20 40 31 52 53 55 35 4 46 16 48 50 1 15 3 32 3 37 1 6 41 9 103 7 57
-1 108 -2 113 -2 44 1 454 1 470 1 11 -1 110 0 220 2 180 2 232 -3 221 -22 -2
-3 -7 -28 -10 -56 -4 -27 -9 -59 -11 -70 -3 -11 -7 -31 -9 -45 -15 -86 -55
-213 -97 -307 -11 -23 -19 -47 -19 -52 0 -6 -4 -11 -10 -11 -5 0 -10 -6 -10
-12 0 -18 -93 -162 -144 -223 -55 -67 -178 -185 -193 -185 -6 0 -13 -4 -15 -8
-5 -14 -99 -75 -177 -116 -74 -39 -213 -93 -261 -102 -14 -3 -34 -8 -45 -11
-11 -4 -24 -7 -30 -8 -26 -3 -112 -18 -130 -23 -11 -4 -544 -8 -1185 -9
l-1165 -4 2 1423 c0 783 1 1428 2 1433 1 7 168 9 484 8 265 0 487 -1 493 -2 7
-1 10 -24 9 -63 -2 -75 10 -111 34 -99 9 4 35 6 59 5 23 -1 40 2 37 6 -3 5 5
16 18 24 19 13 80 16 398 16 384 1 412 3 482 42 61 35 137 138 152 206 3 12 7
32 10 45 5 20 6 60 4 112 -1 37 -40 147 -62 178 -34 47 -85 90 -141 116 l-51
25 -380 1 c-209 1 -390 5 -402 9 -12 4 -23 14 -25 23 -2 13 -16 17 -65 18 -37
0 -64 -4 -64 -10 -1 -5 -2 -41 -3 -80 l-1 -70 -485 -1 c-267 0 -489 1 -495 3
-7 2 -9 196 -8 561 0 306 1 562 2 568 1 9 266 11 1034 9 567 -1 1054 -5 1081
-9z m-1139 -1215 c7 -1 11 -59 10 -168 l0 -168 -495 0 -494 0 -1 165 c0 91 3
167 7 170 5 4 937 5 973 1z"/>
</g>
</svg>
