<svg xmlns="http://www.w3.org/2000/svg" width="78" height="42" viewBox="0 0 78 42" fill="none">
    <path fill-rule="evenodd" clip-rule="evenodd" d="M40.8525 10.6125C40.9458 11.102 40.8823 12.2908 40.8823 12.8548C40.8823 13.6929 40.8957 14.3794 40.9065 14.9428C40.1853 14.8225 39.4452 14.7588 38.6901 14.7588C37.9303 14.7588 37.1858 14.8231 36.4607 14.9449C36.4556 13.9621 36.4188 10.99 36.488 10.6067L40.8525 10.6125ZM41.9816 15.1676C42.9062 15.4016 43.792 15.7324 44.6287 16.1477C44.0864 14.8805 43.7685 13.5107 43.6854 12.0088C43.6039 10.5346 43.6538 10.5319 42.016 10.6143C41.931 11.1436 41.9615 13.4864 41.9816 15.1676ZM47.3417 17.9355C50.2298 20.3881 52.0628 24.0456 52.0628 28.1313C52.0628 35.517 46.0755 41.5041 38.6901 41.5041C31.3048 41.5041 25.3177 35.517 25.3177 28.1313C25.3177 24.1106 27.0925 20.5044 29.9013 18.0532C33.372 13.2937 31.3889 11.3364 32.8132 9.79118C33.2573 9.30925 33.4811 9.38899 33.8263 9.15186L43.5124 9.18211L44.5509 9.8322C45.4825 10.7441 44.9451 12.0508 45.4296 13.9556C45.6833 14.9527 45.9335 15.5388 46.3753 16.3897C46.6708 16.9592 46.9966 17.4575 47.3417 17.9355ZM32.7148 16.166C33.5496 15.7483 34.4339 15.4146 35.357 15.1777C35.3579 14.9873 35.3582 14.7975 35.3565 14.6088C35.3461 13.4023 35.451 11.7488 35.3355 10.6043C33.7907 10.6367 33.737 10.3647 33.6572 11.9478C33.5695 13.69 33.2161 15.0327 32.7148 16.166ZM37.5232 30.1512H36.7133C36.6307 30.1512 36.5627 30.2185 36.5627 30.3018C36.5627 30.3845 36.6302 30.4522 36.7133 30.4522H37.5232V31.5035H36.7133C36.6307 31.5035 36.5625 31.5709 36.5625 31.6542C36.5625 31.7369 36.6302 31.8049 36.7133 31.8049H37.5232V32.134H39.5415C39.7738 32.134 39.9699 32.0727 40.1241 31.9623C40.2762 31.8534 40.3951 31.7098 40.4673 31.5349L40.4864 31.4887L40.4875 31.4858L40.4881 31.4845L40.4891 31.4818C40.5068 31.4396 40.533 31.4087 40.5718 31.4033H40.6378H40.6408L40.6439 31.4032L40.6469 31.403L40.6499 31.4028L40.653 31.4024L40.6558 31.4019L40.6589 31.4015L40.6618 31.4008L40.6646 31.4003L40.6674 31.3996L40.6732 31.398L40.676 31.3971L40.6787 31.396L40.6813 31.3949L40.684 31.3939L40.6867 31.3928L40.6894 31.3915L40.6945 31.3889L40.697 31.3874L40.6995 31.386L40.7018 31.3845L40.7043 31.3828L40.7067 31.3812L40.7113 31.3779L40.7136 31.3761L40.7158 31.3741L40.7179 31.3723L40.72 31.3704L40.7239 31.3662L40.7259 31.364L40.7278 31.362L40.7296 31.3599L40.7316 31.3577L40.735 31.353L40.7366 31.3507L40.7381 31.3482L40.7398 31.3459L40.7412 31.3434L40.7426 31.341L40.7453 31.3358L40.7466 31.3331L40.7476 31.3304L40.7487 31.3277L40.7498 31.3251L40.7509 31.3224L40.7518 31.3195L40.7533 31.3138L40.7541 31.311L40.7547 31.3081L40.7557 31.3022L40.7562 31.2994L40.7566 31.2963L40.7567 31.2933L40.7569 31.2903L40.7571 31.2873V31.2842V31.1193H44.1634C44.1247 31.5362 44.0406 31.9327 43.9093 32.3086C43.7283 32.8263 43.4575 33.2787 43.103 33.6718C42.7487 34.065 42.3098 34.3726 41.7821 34.5947C41.2581 34.8153 40.6481 34.9314 39.9524 34.9314H33.5801V26.2926H36.5625V26.7783H36.9449C36.9487 26.7015 37.0103 26.6398 37.0871 26.6355H39.1365C39.3666 26.6355 39.5582 26.5773 39.7096 26.4738C39.865 26.3675 39.9802 26.2313 40.0562 26.0658C40.1318 25.9015 40.171 25.7221 40.1696 25.5379C40.1682 25.3503 40.1264 25.1754 40.0496 25.01C39.9715 24.8424 39.8559 24.7076 39.6999 24.6022C39.5455 24.498 39.3496 24.4404 39.1169 24.4404H37.0871C37.0103 24.4362 36.9487 24.375 36.9449 24.2981V24.2973H36.5625V24.7832H33.5801V21.3316H39.3892C39.9816 21.3316 40.5333 21.44 41.044 21.6522C41.5527 21.8637 42.0018 22.1617 42.3875 22.5396C42.7751 22.919 43.0775 23.3592 43.2941 23.8639C43.5108 24.3688 43.6228 24.9162 43.6246 25.5089C43.6255 25.7834 43.5807 26.0698 43.4951 26.3604C43.4094 26.6523 43.2842 26.9273 43.1257 27.1891C42.9671 27.4515 42.7762 27.6752 42.556 27.8597C43.1096 28.1477 43.5181 28.53 43.7866 29.0091C44.055 29.4881 44.1882 30.0293 44.188 30.6379C44.188 30.7042 44.1855 30.7709 44.1827 30.8365H40.7571V30.6717V30.6688L40.7569 30.6657L40.7567 30.6626L40.7566 30.6596L40.7562 30.6566L40.7557 30.6537L40.7547 30.6479L40.7541 30.645L40.7533 30.6421L40.7518 30.6364L40.7509 30.6336L40.7498 30.6309L40.7487 30.6282L40.7476 30.6256L40.7466 30.6229L40.7453 30.6202L40.7426 30.6151L40.7412 30.6126L40.7398 30.61L40.7381 30.6078L40.7366 30.6052L40.735 30.6029L40.7316 30.5983L40.7298 30.596L40.7278 30.5938L40.7261 30.5917L40.7241 30.5895L40.72 30.5856L40.7179 30.5837L40.7158 30.5817L40.7136 30.5799L40.7113 30.5779L40.7068 30.5746L40.7043 30.573L40.7021 30.5714L40.6995 30.5698L40.697 30.5684L40.6945 30.5669L40.6894 30.5643L40.6868 30.563L40.6842 30.5619L40.6815 30.5609L40.6787 30.5598L40.676 30.5587L40.6732 30.5577L40.6676 30.5562L40.6648 30.5555L40.6618 30.555L40.6589 30.5544L40.656 30.5539L40.653 30.5533L40.6499 30.553L40.6469 30.5528L40.6439 30.5526L40.6408 30.5525H40.6378H40.5718C40.5335 30.5471 40.504 30.5211 40.4861 30.4806C40.478 30.4607 40.4696 30.4405 40.4609 30.4211C40.3818 30.2457 40.2628 30.1037 40.1046 29.9934C39.9494 29.8845 39.7543 29.8219 39.5218 29.8219H37.5232V30.1512ZM36.5625 26.0539V25.0219H33.5801V26.0539H36.5625Z" fill="#FFC53D"/>
    <path d="M78 25.9859H76.0311V31.3889H75.1231V25.9859H73.1724V25.1857H78V25.9859ZM3.09262 28.1525V28.1885C3.54204 28.2303 3.86118 28.3877 4.05 28.6603C4.23882 28.9331 4.33318 29.3272 4.33318 29.8426C4.33318 30.4659 4.1849 30.8914 3.88822 31.1192C3.59145 31.3468 3.07462 31.4608 2.33745 31.4608C1.32456 31.4608 0.54542 31.4369 0 31.3889V25.1857C0.48549 25.1378 1.17468 25.1139 2.06772 25.1139C2.84685 25.1139 3.38776 25.2263 3.69043 25.4509C3.99305 25.6757 4.14436 26.1027 4.14436 26.7321C4.14436 27.1816 4.06046 27.5217 3.89264 27.7524C3.72486 27.9832 3.45815 28.1165 3.09262 28.1525ZM0.88098 30.6876L2.20261 30.6966C2.67604 30.6966 2.99816 30.6292 3.16897 30.4943C3.33972 30.3594 3.4252 30.0913 3.4252 29.6897C3.4252 29.2403 3.33382 28.9346 3.15101 28.7728C2.9682 28.6109 2.63407 28.527 2.14863 28.521H0.88098V30.6876ZM0.88098 27.8288H2.1396C2.57116 27.8288 2.86922 27.7614 3.03408 27.6266C3.19894 27.4917 3.28144 27.2295 3.28144 26.8398C3.28144 26.4564 3.19144 26.2001 3.01171 26.0713C2.83192 25.9424 2.5022 25.878 2.02282 25.878H0.88098V27.8288ZM9.90655 30.6427L9.94254 31.335C9.39709 31.3828 8.51009 31.4069 7.28156 31.4069C6.8978 31.4069 6.59524 31.3065 6.37348 31.1056C6.15172 30.9048 6.0409 30.6337 6.0409 30.2922V26.2825C6.0409 25.9409 6.15172 25.6698 6.37348 25.4689C6.59524 25.2681 6.8978 25.1678 7.28156 25.1678C8.51009 25.1678 9.39709 25.1919 9.94254 25.2397L9.90655 25.9409H7.4343C7.25446 25.9409 7.12716 25.9845 7.0522 26.0713C6.97729 26.1582 6.93984 26.3066 6.93984 26.5162V27.7569H9.55584V28.4851H6.93984V30.0674C6.93984 30.2771 6.97729 30.4254 7.0522 30.5123C7.12716 30.5992 7.25446 30.6427 7.4343 30.6427H9.90655ZM15.6237 30.5978L15.7137 31.2811C15.2162 31.4248 14.6019 31.4967 13.8707 31.4967C12.9656 31.4967 12.3304 31.257 11.9648 30.7777C11.5992 30.2981 11.4165 29.468 11.4165 28.2873C11.4165 27.1066 11.5992 26.2766 11.9648 25.797C12.3304 25.3176 12.9656 25.0779 13.8707 25.0779C14.518 25.0779 15.0904 25.1378 15.5877 25.2576L15.4979 25.9499C15.0185 25.902 14.476 25.878 13.8707 25.878C13.3013 25.878 12.9074 26.0519 12.6886 26.3994C12.4697 26.7471 12.3605 27.3762 12.3605 28.2873C12.3605 29.1984 12.4697 29.8275 12.6886 30.1752C12.9074 30.5227 13.3013 30.6966 13.8707 30.6966C14.6319 30.6966 15.2162 30.6637 15.6237 30.5978ZM18.1854 27.64H19.408C20.1872 27.64 20.7281 27.7808 21.0308 28.0626C21.3335 28.3443 21.4848 28.8476 21.4848 29.5729C21.4848 30.2981 21.3409 30.7941 21.0534 31.0607C20.7655 31.3274 20.2652 31.4608 19.5519 31.4608C18.587 31.4608 17.8377 31.4369 17.3044 31.3889H17.2865V25.1857H18.1854V27.64ZM18.1854 30.6697L19.408 30.6787C19.8817 30.6787 20.1948 30.6038 20.3475 30.4539C20.5004 30.304 20.5768 30.0044 20.5768 29.5549C20.5768 29.1114 20.5004 28.8057 20.3475 28.6379C20.1948 28.4701 19.8817 28.3862 19.408 28.3862H18.1854V30.6697ZM60.4078 30.5978L60.4978 31.2811C60.0004 31.4248 59.386 31.4967 58.6549 31.4967C57.7497 31.4967 57.1145 31.257 56.7489 30.7777C56.3834 30.2981 56.2006 29.468 56.2006 28.2873C56.2006 27.1066 56.3834 26.2766 56.7489 25.797C57.1145 25.3176 57.7497 25.0779 58.6549 25.0779C59.3021 25.0779 59.8745 25.1378 60.3718 25.2576L60.282 25.9499C59.8026 25.902 59.2601 25.878 58.6549 25.878C58.0855 25.878 57.6915 26.0519 57.4727 26.3994C57.2539 26.7471 57.1446 27.3762 57.1446 28.2873C57.1446 29.1984 57.2539 29.8275 57.4727 30.1752C57.6915 30.5227 58.0855 30.6966 58.6549 30.6966C59.416 30.6966 60.0004 30.6637 60.4078 30.5978ZM65.1631 28.1525V28.1885C65.6126 28.2303 65.9316 28.3877 66.1205 28.6603C66.3092 28.9331 66.4038 29.3272 66.4038 29.8426C66.4038 30.4659 66.2554 30.8914 65.9587 31.1192C65.662 31.3468 65.1451 31.4608 64.4079 31.4608C63.395 31.4608 62.6159 31.4369 62.0706 31.3889V25.1857C62.5561 25.1378 63.2452 25.1139 64.1382 25.1139C64.9174 25.1139 65.4583 25.2263 65.7609 25.4509C66.0637 25.6757 66.2149 26.1027 66.2149 26.7321C66.2149 27.1816 66.1309 27.5217 65.9632 27.7524C65.7955 27.9832 65.5287 28.1165 65.1631 28.1525ZM62.9516 30.6876L64.2731 30.6966C64.7465 30.6966 65.0687 30.6292 65.2396 30.4943C65.4104 30.3594 65.4957 30.0913 65.4957 29.6897C65.4957 29.2403 65.4043 28.9346 65.2216 28.7728C65.0388 28.6109 64.7046 28.527 64.2191 28.521H62.9516V30.6876ZM62.9516 27.8288H64.2101C64.6417 27.8288 64.9399 27.7614 65.1047 27.6266C65.2694 27.4917 65.3519 27.2295 65.3519 26.8398C65.3519 26.4564 65.2619 26.2001 65.0822 26.0713C64.9023 25.9424 64.5728 25.878 64.0932 25.878H62.9516V27.8288ZM71.9772 30.6427L72.013 31.335C71.4676 31.3828 70.5806 31.4069 69.3521 31.4069C68.9684 31.4069 68.6657 31.3065 68.444 31.1056C68.2222 30.9048 68.1114 30.6337 68.1114 30.2922V26.2825C68.1114 25.9409 68.2222 25.6698 68.444 25.4689C68.6657 25.2681 68.9684 25.1678 69.3521 25.1678C70.5806 25.1678 71.4676 25.1919 72.013 25.2397L71.9772 25.9409H69.5048C69.325 25.9409 69.1977 25.9845 69.1227 26.0713C69.0479 26.1582 69.0104 26.3066 69.0104 26.5162V27.7569H71.6265V28.4851H69.0104V30.0674C69.0104 30.2771 69.0479 30.4254 69.1227 30.5123C69.1977 30.5992 69.325 30.6427 69.5048 30.6427H71.9772Z" fill="#2B3034"/>
    <path d="M78 25.9859H76.0311V31.3889H75.1231V25.9859H73.1724V25.1857H78V25.9859ZM3.09262 28.1525V28.1885C3.54204 28.2303 3.86118 28.3877 4.05 28.6603C4.23882 28.9331 4.33318 29.3272 4.33318 29.8426C4.33318 30.4659 4.1849 30.8914 3.88822 31.1192C3.59145 31.3468 3.07462 31.4608 2.33745 31.4608C1.32456 31.4608 0.54542 31.4369 0 31.3889V25.1857C0.48549 25.1378 1.17468 25.1139 2.06772 25.1139C2.84685 25.1139 3.38776 25.2263 3.69043 25.4509C3.99305 25.6757 4.14436 26.1027 4.14436 26.7321C4.14436 27.1816 4.06046 27.5217 3.89264 27.7524C3.72486 27.9832 3.45815 28.1165 3.09262 28.1525ZM0.88098 30.6876L2.20261 30.6966C2.67604 30.6966 2.99816 30.6292 3.16897 30.4943C3.33972 30.3594 3.4252 30.0913 3.4252 29.6897C3.4252 29.2403 3.33382 28.9346 3.15101 28.7728C2.9682 28.6109 2.63407 28.527 2.14863 28.521H0.88098V30.6876ZM0.88098 27.8288H2.1396C2.57116 27.8288 2.86922 27.7614 3.03408 27.6266C3.19894 27.4917 3.28144 27.2295 3.28144 26.8398C3.28144 26.4564 3.19144 26.2001 3.01171 26.0713C2.83192 25.9424 2.5022 25.878 2.02282 25.878H0.88098V27.8288ZM9.90655 30.6427L9.94254 31.335C9.39709 31.3828 8.51009 31.4069 7.28156 31.4069C6.8978 31.4069 6.59524 31.3065 6.37348 31.1056C6.15172 30.9048 6.0409 30.6337 6.0409 30.2922V26.2825C6.0409 25.9409 6.15172 25.6698 6.37348 25.4689C6.59524 25.2681 6.8978 25.1678 7.28156 25.1678C8.51009 25.1678 9.39709 25.1919 9.94254 25.2397L9.90655 25.9409H7.4343C7.25446 25.9409 7.12716 25.9845 7.0522 26.0713C6.97729 26.1582 6.93984 26.3066 6.93984 26.5162V27.7569H9.55584V28.4851H6.93984V30.0674C6.93984 30.2771 6.97729 30.4254 7.0522 30.5123C7.12716 30.5992 7.25446 30.6427 7.4343 30.6427H9.90655ZM15.6237 30.5978L15.7137 31.2811C15.2162 31.4248 14.6019 31.4967 13.8707 31.4967C12.9656 31.4967 12.3304 31.257 11.9648 30.7777C11.5992 30.2981 11.4165 29.468 11.4165 28.2873C11.4165 27.1066 11.5992 26.2766 11.9648 25.797C12.3304 25.3176 12.9656 25.0779 13.8707 25.0779C14.518 25.0779 15.0904 25.1378 15.5877 25.2576L15.4979 25.9499C15.0185 25.902 14.476 25.878 13.8707 25.878C13.3013 25.878 12.9074 26.0519 12.6886 26.3994C12.4697 26.7471 12.3605 27.3762 12.3605 28.2873C12.3605 29.1984 12.4697 29.8275 12.6886 30.1752C12.9074 30.5227 13.3013 30.6966 13.8707 30.6966C14.6319 30.6966 15.2162 30.6637 15.6237 30.5978ZM18.1854 27.64H19.408C20.1872 27.64 20.7281 27.7808 21.0308 28.0626C21.3335 28.3443 21.4848 28.8476 21.4848 29.5729C21.4848 30.2981 21.3409 30.7941 21.0534 31.0607C20.7655 31.3274 20.2652 31.4608 19.5519 31.4608C18.587 31.4608 17.8377 31.4369 17.3044 31.3889H17.2865V25.1857H18.1854V27.64ZM18.1854 30.6697L19.408 30.6787C19.8817 30.6787 20.1948 30.6038 20.3475 30.4539C20.5004 30.304 20.5768 30.0044 20.5768 29.5549C20.5768 29.1114 20.5004 28.8057 20.3475 28.6379C20.1948 28.4701 19.8817 28.3862 19.408 28.3862H18.1854V30.6697ZM60.4078 30.5978L60.4978 31.2811C60.0004 31.4248 59.386 31.4967 58.6549 31.4967C57.7497 31.4967 57.1145 31.257 56.7489 30.7777C56.3834 30.2981 56.2006 29.468 56.2006 28.2873C56.2006 27.1066 56.3834 26.2766 56.7489 25.797C57.1145 25.3176 57.7497 25.0779 58.6549 25.0779C59.3021 25.0779 59.8745 25.1378 60.3718 25.2576L60.282 25.9499C59.8026 25.902 59.2601 25.878 58.6549 25.878C58.0855 25.878 57.6915 26.0519 57.4727 26.3994C57.2539 26.7471 57.1446 27.3762 57.1446 28.2873C57.1446 29.1984 57.2539 29.8275 57.4727 30.1752C57.6915 30.5227 58.0855 30.6966 58.6549 30.6966C59.416 30.6966 60.0004 30.6637 60.4078 30.5978ZM65.1631 28.1525V28.1885C65.6126 28.2303 65.9316 28.3877 66.1205 28.6603C66.3092 28.9331 66.4038 29.3272 66.4038 29.8426C66.4038 30.4659 66.2554 30.8914 65.9587 31.1192C65.662 31.3468 65.1451 31.4608 64.4079 31.4608C63.395 31.4608 62.6159 31.4369 62.0706 31.3889V25.1857C62.5561 25.1378 63.2452 25.1139 64.1382 25.1139C64.9174 25.1139 65.4583 25.2263 65.7609 25.4509C66.0637 25.6757 66.2149 26.1027 66.2149 26.7321C66.2149 27.1816 66.1309 27.5217 65.9632 27.7524C65.7955 27.9832 65.5287 28.1165 65.1631 28.1525ZM62.9516 30.6876L64.2731 30.6966C64.7465 30.6966 65.0687 30.6292 65.2396 30.4943C65.4104 30.3594 65.4957 30.0913 65.4957 29.6897C65.4957 29.2403 65.4043 28.9346 65.2216 28.7728C65.0388 28.6109 64.7046 28.527 64.2191 28.521H62.9516V30.6876ZM62.9516 27.8288H64.2101C64.6417 27.8288 64.9399 27.7614 65.1047 27.6266C65.2694 27.4917 65.3519 27.2295 65.3519 26.8398C65.3519 26.4564 65.2619 26.2001 65.0822 26.0713C64.9023 25.9424 64.5728 25.878 64.0932 25.878H62.9516V27.8288ZM71.9772 30.6427L72.013 31.335C71.4676 31.3828 70.5806 31.4069 69.3521 31.4069C68.9684 31.4069 68.6657 31.3065 68.444 31.1056C68.2222 30.9048 68.1114 30.6337 68.1114 30.2922V26.2825C68.1114 25.9409 68.2222 25.6698 68.444 25.4689C68.6657 25.2681 68.9684 25.1678 69.3521 25.1678C70.5806 25.1678 71.4676 25.1919 72.013 25.2397L71.9772 25.9409H69.5048C69.325 25.9409 69.1977 25.9845 69.1227 26.0713C69.0479 26.1582 69.0104 26.3066 69.0104 26.5162V27.7569H71.6265V28.4851H69.0104V30.0674C69.0104 30.2771 69.0479 30.4254 69.1227 30.5123C69.1977 30.5992 69.325 30.6427 69.5048 30.6427H71.9772Z" fill="#2C3031"/>
    <path fill-rule="evenodd" clip-rule="evenodd" d="M35.6964 1.74574C35.3407 1.74537 35.0393 1.74059 34.8019 1.9063C34.1681 2.3488 34.4181 3.50356 35.4372 3.50366L41.0368 3.50372C41.8624 3.50383 42.9638 3.68494 42.9915 2.64288C43.0007 2.29498 42.9395 2.16928 42.7241 1.98732C42.3459 1.66775 41.8178 1.75961 41.1744 1.72374C41.1005 1.55256 41.1088 1.5055 41.0693 1.32518C40.9926 0.975538 40.8017 0.656872 40.5459 0.437768C40.0951 0.0518415 39.8239 0.0026433 39.0664 0.0011557C37.8192 -0.00192577 36.6421 -0.0769966 36.3311 1.73193L35.6964 1.74574Z" fill="#FFC53D"/>
    <path fill-rule="evenodd" clip-rule="evenodd" d="M33.3915 7.25645C33.0404 8.65838 34.7655 8.36682 35.3855 8.36714C37.8207 8.3681 40.8537 8.42277 43.2178 8.36993C44.3189 8.34535 44.5405 7.14817 43.5783 6.68791C43.2482 6.52996 42.5735 6.61115 42.1257 6.61115C41.3327 6.61115 34.2056 6.54 33.9483 6.65481C33.7559 6.74083 34.0766 6.58681 33.8867 6.68973L33.7195 6.78456C33.5436 6.89873 33.4559 6.99941 33.3915 7.25645Z" fill="#FFC53D"/>
    <path fill-rule="evenodd" clip-rule="evenodd" d="M33.3879 4.81964C33.3494 4.93418 33.289 4.85247 33.3128 5.12412C33.3273 5.28914 33.476 5.57231 33.5797 5.69355C33.5959 5.71263 33.7504 5.84502 33.7687 5.85352C34.062 5.98985 40.6785 5.91382 41.5029 5.91382C41.8493 5.91382 43.511 5.98257 43.7535 5.81989C43.8367 5.76411 44.0526 5.53417 44.1089 5.40586C44.2017 5.19462 44.1738 4.84567 44.0823 4.67645C43.8526 4.25175 43.3952 4.22242 42.9549 4.2247L34.3994 4.22497C34.0744 4.22391 33.9632 4.20775 33.7255 4.34669C33.4611 4.50113 33.4814 4.54071 33.3879 4.81964Z" fill="#FFC53D"/>
</svg>