<svg viewBox="0 0 744 311" fill="none" xmlns="http://www.w3.org/2000/svg">
    <path d="M738.143 238.585L733.025 224.172L693.473 238.218L691.113 231.571L730.664 217.526L725.593 203.246L731.45 201.166L744 236.505L738.143 238.585Z" fill="#2B3034"/>
    <path d="M582.614 231.97L583.313 237.278C579.449 238.395 574.676 238.953 568.997 238.953C561.966 238.953 557.031 237.091 554.192 233.367C551.352 229.642 549.932 223.194 549.932 214.023C549.932 204.851 551.352 198.402 554.192 194.678C557.031 190.954 561.966 189.091 568.997 189.091C574.024 189.091 578.471 189.557 582.335 190.487L581.636 195.865C577.913 195.493 573.698 195.307 568.997 195.307C564.574 195.307 561.513 196.657 559.814 199.357C558.114 202.058 557.265 206.945 557.265 214.023C557.265 221.1 558.114 225.987 559.814 228.688C561.513 231.388 564.574 232.738 568.997 232.738C574.909 232.738 579.449 232.482 582.614 231.97ZM619.553 212.975V213.255C623.046 213.579 625.523 214.802 626.99 216.92C628.457 219.039 629.191 222.1 629.191 226.104C629.191 230.946 628.039 234.251 625.734 236.021C623.429 237.789 619.414 238.674 613.687 238.674C605.819 238.674 599.767 238.488 595.531 238.116V189.929C599.302 189.557 604.655 189.371 611.592 189.371C617.644 189.371 621.846 190.244 624.197 191.989C626.549 193.735 627.724 197.052 627.724 201.941C627.724 205.433 627.072 208.075 625.769 209.867C624.466 211.66 622.393 212.695 619.553 212.975ZM602.374 232.668L612.64 232.738C616.317 232.738 618.82 232.215 620.148 231.167C621.474 230.119 622.137 228.036 622.137 224.916C622.137 221.425 621.427 219.05 620.008 217.794C618.588 216.536 615.992 215.885 612.22 215.838H602.374V232.668ZM602.374 210.46H612.15C615.503 210.46 617.819 209.937 619.1 208.89C620.379 207.842 621.02 205.805 621.02 202.778C621.02 199.799 620.321 197.809 618.925 196.808C617.528 195.807 614.968 195.307 611.243 195.307H602.374V210.46ZM672.486 232.32L672.765 237.697C668.527 238.069 661.637 238.256 652.094 238.256C649.114 238.256 646.762 237.476 645.04 235.916C643.317 234.355 642.456 232.249 642.456 229.596V198.449C642.456 195.795 643.317 193.689 645.04 192.129C646.762 190.569 649.114 189.789 652.094 189.789C661.637 189.789 668.527 189.976 672.765 190.348L672.486 195.795H653.28C651.883 195.795 650.894 196.134 650.312 196.808C649.731 197.483 649.439 198.636 649.439 200.264V209.902H669.761V215.559H649.439V227.85C649.439 229.479 649.731 230.632 650.312 231.306C650.894 231.981 651.883 232.32 653.28 232.32H672.486Z" fill="#2B3034"/>
    <path d="M24.0238 212.975V213.254C27.5149 213.579 29.994 214.802 31.4608 216.92C32.9276 219.039 33.6606 222.1 33.6606 226.104C33.6606 230.946 32.5087 234.251 30.2041 236.021C27.8987 237.789 23.8839 238.674 18.1576 238.674C10.2893 238.674 4.23687 238.488 0 238.116V189.929C3.77134 189.557 9.125 189.371 16.0622 189.371C22.1146 189.371 26.3164 190.244 28.6676 191.989C31.0184 193.735 32.1938 197.052 32.1938 201.941C32.1938 205.433 31.5421 208.075 30.2384 209.867C28.935 211.66 26.8632 212.695 24.0238 212.975ZM6.84354 232.668L17.1101 232.738C20.7877 232.738 23.29 232.215 24.6169 231.167C25.9433 230.119 26.6073 228.036 26.6073 224.916C26.6073 221.425 25.8975 219.05 24.4774 217.794C23.0572 216.536 20.4617 215.885 16.6908 215.838H6.84354V232.668ZM6.84354 210.46H16.6206C19.9731 210.46 22.2884 209.937 23.569 208.89C24.8496 207.842 25.4906 205.805 25.4906 202.778C25.4906 199.799 24.7914 197.809 23.3953 196.808C21.9986 195.807 19.4374 195.307 15.7135 195.307H6.84354V210.46ZM76.955 232.32L77.2344 237.697C72.9975 238.069 66.1073 238.256 56.5639 238.256C53.5829 238.256 51.2325 237.476 49.5098 235.916C47.7872 234.355 46.9263 232.249 46.9263 229.596V198.449C46.9263 195.795 47.7872 193.689 49.5098 192.129C51.2325 190.569 53.5829 189.789 56.5639 189.789C66.1073 189.789 72.9975 189.976 77.2344 190.348L76.955 195.795H57.7504C56.3534 195.795 55.3645 196.134 54.7822 196.808C54.2003 197.483 53.9093 198.636 53.9093 200.264V209.902H74.2307V215.559H53.9093V227.85C53.9093 229.479 54.2003 230.632 54.7822 231.306C55.3645 231.981 56.3534 232.32 57.7504 232.32H76.955Z" fill="#2B3034"/>
    <path d="M116.133 222.198L119.274 226.533C116.407 229.355 112.476 232.116 107.48 234.82C101.296 238.165 96.0699 238.876 91.8005 236.952C87.5291 235.027 83.2123 230.032 78.8478 221.965C74.4832 213.899 72.6627 207.552 73.3886 202.924C74.1138 198.298 77.5676 194.311 83.7509 190.966C88.1731 188.573 92.3058 186.866 96.1466 185.846L98.0919 190.908C94.6395 192.352 90.8442 194.194 86.7087 196.432C82.819 198.537 80.7698 201.181 80.5599 204.364C80.3499 207.549 81.9294 212.251 85.2973 218.476C88.6652 224.7 91.7373 228.595 94.518 230.161C97.2976 231.727 100.632 231.458 104.522 229.353C109.722 226.539 113.593 224.154 116.133 222.198Z" fill="#2B3034"/>
    <path d="M123.243 218.551L127.838 210.239C130.767 204.942 133.758 201.795 136.811 200.795C139.863 199.797 143.855 200.66 148.785 203.386C153.714 206.112 156.546 208.954 157.277 211.912C158.009 214.871 157.035 218.774 154.354 223.622C150.727 230.181 147.748 235.185 145.418 238.631L145.35 238.753L103.18 215.436L106.558 209.326L123.243 218.551ZM143.839 229.939L148.496 221.661C150.276 218.441 150.944 216.031 150.5 214.429C150.055 212.826 148.306 211.181 145.25 209.491C142.235 207.824 139.87 207.195 138.154 207.603C136.439 208.011 134.691 209.824 132.911 213.044L128.315 221.355L143.839 229.939Z" fill="#2B3034"/>
    <path fill-rule="evenodd" clip-rule="evenodd" d="M278.107 167.83C281.392 165.781 290.183 162.908 294.268 161.327C300.34 158.977 305.275 156.955 309.326 155.297C310.477 160.858 312.091 166.399 314.208 171.869C316.339 177.373 318.892 182.587 321.807 187.498C314.702 190.291 293.274 198.89 290.303 199.464L278.107 167.83ZM307.94 146.878C307.043 139.524 306.956 132.179 307.619 124.954C299.959 132.435 290.927 138.579 280.279 143.392C269.828 148.116 269.669 147.762 274.858 159.396C278.931 158.528 295.818 151.738 307.94 146.878ZM312.963 100.287C322.633 72.4869 343.989 48.9521 373.588 37.4961C427.093 16.7874 487.254 43.3752 507.962 96.8782C528.67 150.38 502.084 210.541 448.579 231.249C419.452 242.523 388.35 239.777 362.717 226.302C318.506 214.504 309.887 234.359 294.699 228.372C289.962 226.506 289.912 224.661 287.226 222.826L260.287 152.571L262.085 143.224C266.079 133.919 277.052 134.149 289.492 125.298C296.005 120.664 299.549 117.208 304.475 111.622C307.771 107.884 310.468 104.126 312.963 100.287ZM341.156 211.211C335.789 206.334 330.893 200.864 326.589 194.841C325.206 195.368 323.831 195.898 322.469 196.44C313.757 199.898 301.484 203.775 293.517 207.82C298.084 218.921 296.263 220.073 307.956 216.212C320.823 211.962 331.541 210.757 341.156 211.211ZM428.988 137.164L431.259 143.032C431.491 143.63 432.169 143.933 432.773 143.7C433.372 143.468 433.674 142.789 433.441 142.187L431.17 136.319L438.785 133.372L441.057 139.24C441.288 139.838 441.968 140.143 442.571 139.909C443.17 139.677 443.473 138.997 443.24 138.395L440.969 132.527L443.353 131.604L437.694 116.983C437.043 115.3 436.049 114.051 434.816 113.244C433.601 112.447 432.228 111.988 430.758 111.956L430.37 111.947L430.364 111.947L430.346 111.947L430.334 111.947L430.33 111.947L430.312 111.947C429.957 111.937 429.659 111.834 429.512 111.568L429.327 111.09L429.318 111.068L429.308 111.046L429.299 111.025L429.289 111.003L429.278 110.982L429.266 110.963L429.265 110.962L429.255 110.942L429.253 110.943L429.241 110.923L429.23 110.904L429.229 110.903L429.217 110.886L429.216 110.884L429.189 110.848L429.174 110.831L429.159 110.814L429.144 110.798L429.143 110.797L429.129 110.781L429.128 110.78L429.114 110.765L429.113 110.764L429.097 110.749L429.063 110.719L429.045 110.705L429.028 110.691L429.01 110.679L429.01 110.677L428.992 110.665L428.973 110.653L428.973 110.652L428.936 110.629L428.917 110.617L428.915 110.618L428.896 110.607L428.877 110.597L428.876 110.597L428.857 110.587L428.856 110.587L428.816 110.57L428.816 110.568L428.795 110.561L428.795 110.56L428.774 110.553L428.754 110.546L428.754 110.545L428.733 110.538L428.732 110.539L428.69 110.526L428.688 110.527L428.669 110.521L428.667 110.522L428.646 110.517L428.645 110.517L428.625 110.511L428.623 110.512L428.602 110.508L428.601 110.509L428.581 110.505L428.58 110.505L428.536 110.5L428.534 110.501L428.513 110.499L428.512 110.499L428.49 110.498L428.489 110.499L428.468 110.498L428.467 110.499L428.446 110.498L428.444 110.498L428.423 110.497L428.422 110.498L428.4 110.499L428.399 110.499L428.354 110.504L428.353 110.504L428.331 110.506L428.33 110.507L428.309 110.51L428.308 110.511L428.264 110.519L428.262 110.52L428.242 110.523L428.24 110.524L428.219 110.529L428.217 110.53L428.197 110.536L428.195 110.537L428.174 110.544L428.172 110.544L428.151 110.551L428.15 110.551L428.13 110.559L428.128 110.56L426.935 111.022L417.384 86.3452C420.512 85.4565 423.621 84.9544 426.712 84.8515C430.97 84.7107 435.007 85.4041 438.849 86.8701C442.69 88.3341 446.15 90.6515 449.238 93.851C452.305 97.0291 454.856 101.123 456.807 106.163L474.674 152.326L412.092 176.548L403.73 154.942L407.248 153.581L406.176 150.811L406.172 150.812C405.604 150.999 404.989 150.725 404.743 150.181L398.996 135.334C398.351 133.667 397.392 132.442 396.218 131.636C395.012 130.808 393.702 130.355 392.291 130.269C390.888 130.182 389.478 130.401 388.148 130.928C386.793 131.464 385.643 132.257 384.66 133.277C383.665 134.313 383.012 135.528 382.686 136.954C382.364 138.364 382.497 139.945 383.149 141.631L388.84 156.336C389.025 156.904 388.755 157.521 388.208 157.765L388.202 157.767L389.274 160.537L392.794 159.175L401.157 180.78L376.152 190.458L359.864 148.375C358.203 144.083 357.441 139.783 357.546 135.488C357.652 131.21 358.552 127.121 360.208 123.267C361.87 119.395 364.211 115.97 367.259 112.986C370.31 110.001 373.962 107.655 378.25 105.98C380.237 105.203 382.437 104.725 384.782 104.53C387.137 104.333 389.48 104.469 391.822 104.883C394.166 105.296 396.323 106.051 398.277 107.129C398.811 102.311 400.435 98.2802 403.153 94.9913C405.87 91.7047 409.418 89.2221 413.827 87.517C414.308 87.3309 414.798 87.162 415.281 86.9985L424.886 111.815L423.692 112.277L423.691 112.277L423.671 112.285L423.669 112.286L423.649 112.295L423.648 112.295L423.628 112.305L423.626 112.305L423.606 112.315L423.605 112.315L423.585 112.326L423.584 112.326L423.566 112.337L423.565 112.338L423.526 112.361L423.525 112.362L423.507 112.373L423.506 112.374L423.489 112.387L423.487 112.388L423.452 112.414L423.451 112.415L423.433 112.429L423.432 112.429L423.417 112.444L423.416 112.444L423.401 112.46L423.399 112.46L423.385 112.475L423.383 112.475L423.368 112.49L423.367 112.49L423.352 112.506L423.351 112.507L423.322 112.54L423.321 112.541L423.308 112.557L423.307 112.558L423.294 112.575L423.292 112.575L423.282 112.593L423.28 112.594L423.268 112.612L423.267 112.612L423.256 112.629L423.255 112.63L423.232 112.667L423.23 112.668L423.22 112.687L423.22 112.688L423.21 112.707L423.199 112.726L423.2 112.727L423.189 112.746L423.19 112.747L423.172 112.787L423.171 112.787L423.164 112.808L423.163 112.808L423.156 112.829L423.149 112.849L423.148 112.85L423.141 112.871L423.129 112.913L423.13 112.914L423.125 112.936L423.12 112.957L423.12 112.958L423.115 112.98L423.112 113.002L423.108 113.024L423.104 113.069L423.101 113.091L423.102 113.092L423.101 113.113L423.102 113.114L423.101 113.135L423.101 113.136L423.101 113.159L423.101 113.181L423.102 113.204L423.107 113.249L423.107 113.25L423.109 113.272L423.11 113.273L423.114 113.295L423.118 113.317L423.117 113.318L423.122 113.34L423.123 113.341L423.126 113.363L423.132 113.386L423.14 113.408L423.147 113.431L423.154 113.453L423.163 113.475L423.348 113.953C423.416 114.246 423.311 114.533 423.067 114.776C422.946 114.89 422.823 115.007 422.707 115.125C421.658 116.191 420.963 117.451 420.607 118.905C420.254 120.335 420.348 121.924 421 123.608L426.603 138.087L428.988 137.164ZM402 155.612L394.524 158.505L402.886 180.111L410.363 177.217L402 155.612Z" fill="#FFB811"/>
    <path fill-rule="evenodd" clip-rule="evenodd" d="M228.33 230.041C229.325 232.619 230.135 234.816 232.001 236.071C236.984 239.422 244.648 234.372 241.792 226.99L226.091 186.424C223.777 180.443 222.001 171.956 214.374 174.677C211.828 175.586 211.089 176.382 210.375 178.452C209.12 182.088 211.266 185.656 212.811 190.418C211.778 191.433 211.413 191.505 210.218 192.297C207.9 193.833 206.127 196.109 205.257 198.577C203.725 202.924 204.129 205.027 206.242 210.519C209.717 219.563 212.473 228.3 226.45 225.482L228.33 230.041Z" fill="#FFB811"/>
    <path fill-rule="evenodd" clip-rule="evenodd" d="M274.714 231.287C285.854 229.9 278.905 218.22 277.169 213.728C270.347 196.083 262.24 173.957 255.228 156.98C251.962 149.071 242.668 150.823 242.032 159.084C241.813 161.918 244.293 166.578 245.549 169.822C247.772 175.568 267.241 227.399 268.794 228.94C269.957 230.093 267.941 228.202 269.22 229.289L270.375 230.234C271.695 231.188 272.671 231.542 274.714 231.287Z" fill="#FFB811"/>
    <path fill-rule="evenodd" clip-rule="evenodd" d="M257.071 238.146C258.009 238.103 257.586 238.77 259.487 237.836C260.642 237.268 262.276 235.397 262.864 234.306C262.957 234.134 263.483 232.644 263.493 232.488C263.658 229.981 244.555 182.261 242.244 176.289C241.272 173.779 237.111 161.549 235.253 160.248C234.615 159.801 232.344 158.882 231.257 158.834C229.466 158.754 227.017 159.935 226.047 161.072C223.615 163.927 224.685 167.323 225.936 170.507L249.926 232.485C250.83 234.842 251.025 235.694 252.698 237.026C254.558 238.508 254.788 238.25 257.071 238.146Z" fill="#FFB811"/>
</svg>
