<svg width="64" height="64" viewBox="0 0 64 64" fill="none" xmlns="http://www.w3.org/2000/svg">
<path d="M32 60L15.128 40.102C14.8936 39.8032 14.6616 39.5025 14.432 39.2C11.55 35.4036 9.99304 30.7664 10 26C10 20.1652 12.3179 14.5695 16.4437 10.4437C20.5695 6.31785 26.1653 4 32 4C37.8348 4 43.4306 6.31785 47.5564 10.4437C51.6822 14.5695 54 20.1652 54 26C54.007 30.7643 52.4508 35.3993 49.57 39.194L49.568 39.2C49.568 39.2 48.968 39.988 48.878 40.094L32 60ZM17.624 36.79C17.628 36.79 18.092 37.406 18.198 37.538L32 53.816L45.82 37.516C45.908 37.406 46.376 36.786 46.378 36.784C48.7323 33.6822 50.0046 29.8941 50 26C50 21.2261 48.1036 16.6477 44.7279 13.2721C41.3523 9.89642 36.7739 8 32 8C27.2261 8 22.6478 9.89642 19.2721 13.2721C15.8964 16.6477 14 21.2261 14 26C13.9958 29.8965 15.2696 33.6868 17.626 36.79H17.624Z" fill="#FFB811"/>
<path d="M42 36H38V20H26V36H22V20C22.0011 18.9395 22.4228 17.9227 23.1727 17.1727C23.9227 16.4228 24.9395 16.0011 26 16H38C39.0605 16.0011 40.0773 16.4228 40.8273 17.1727C41.5772 17.9227 41.9989 18.9395 42 20V36Z" fill="#FFB811"/>
<path d="M30 32H34V36H30V32Z" fill="#FFB811"/>
<path d="M30 24H34V28H30V24Z" fill="#FFB811"/>
</svg>
