<svg width="64" height="64" viewBox="0 0 64 64" fill="none" xmlns="http://www.w3.org/2000/svg">
<path fill-rule="evenodd" clip-rule="evenodd" d="M26.2725 40.7974C25.9378 40.4811 25.6324 40.0122 26.1339 39.5186C26.5414 39.1174 30.2869 39.3122 30.9786 39.3122C32.6921 39.3124 36.1582 39.8223 36.9486 38.6617C37.0602 38.4978 37.4076 37.5992 37.4274 37.359C37.4681 36.8713 37.2948 36.5256 37.1084 36.1203C36.6428 35.1071 36.1085 35.105 34.8661 35.1166C32.6567 35.1375 30.4377 35.1173 28.2272 35.1174C25.7173 35.1176 20.4564 34.6351 19.01 35.9355L10 43.4241C10.2655 44.7751 12.1337 45.6141 13.6892 47.7174C14.3046 48.5497 15.9035 49.7896 16.6859 50.5426C17.3063 51.14 17.3712 51.4369 17.869 51.3446C18.2584 51.2724 20.7868 47.6948 21.6862 47.362C22.1783 47.1798 27.9517 46.929 29.0091 46.8595L32.4301 46.4886C33.8495 46.4205 34.6851 46.3394 35.9744 46.102L42.1385 44.4937C44.5496 43.5203 45.9836 43.2672 47.9924 42.5336C48.2939 42.4234 48.9858 42.1215 49.3267 41.9711C49.9478 41.6969 52.1683 41.2868 51.9898 38.8368C51.7982 36.1994 47.7935 36.7033 46.354 36.6993C44.5234 36.694 40.3921 36.4879 38.8208 36.7954C38.5681 39.9891 38.0424 40.9473 34.5393 40.9385C33.0886 40.9349 27.0528 41.1999 26.2725 40.7974Z" fill="#FFB811"/>
<path fill-rule="evenodd" clip-rule="evenodd" d="M39.3675 30.3772L29.2239 30.4019C29.2583 29.3121 30.2649 29.2821 31.6166 27.6679C31.8732 27.3616 33.9365 25.143 34.2146 25.1442C34.5566 25.1458 39.1793 29.8 39.3675 30.3772ZM41.8242 27.6687C41.225 27.6555 41.2414 27.6601 40.897 27.3036C40.2471 26.631 36.8178 23.2847 36.7917 22.8086C36.7595 22.2261 39.7471 19.3954 40.3485 18.904C41.8808 17.6517 40.9185 17.9613 41.8306 17.9435L41.8242 27.6687ZM26.6114 22.652L26.6173 17.6619C27.6129 17.8076 31.0728 21.9716 31.9503 22.6419L28.1731 26.632C26.4676 28.0648 26.6195 29.5275 26.6114 22.652ZM29.2078 15.063C30.5367 15.0367 38.463 14.8699 39.0908 15.1865C39.2077 15.4152 39.357 14.8268 39.1535 15.6271C39.0647 15.9769 38.6704 16.1508 38.1975 16.6008C34.1931 20.4104 34.7707 21.2715 32.7573 19.0819C32.4048 18.6984 31.7552 18.2292 31.388 17.8704L29.9139 16.4506C29.0682 15.4668 29.1961 15.7782 29.2078 15.063ZM44.9089 12.1201C40.9798 11.8787 33.4399 12.0758 28.8745 12.0758C27.9574 12.0758 27.0401 12.0731 26.1232 12.0756C25.1002 12.0782 23.9922 11.8819 23.7111 12.3298C23.6158 12.4816 23.4645 32.3308 23.7183 33.4779L44.8624 33.4448C45.0877 32.3865 45.0634 13.9955 44.9089 12.1201Z" fill="#FFB811"/>
</svg>
