<svg width="64" height="64" viewBox="0 0 64 64" fill="none" xmlns="http://www.w3.org/2000/svg">
<path fill-rule="evenodd" clip-rule="evenodd" d="M39.4894 47.8907C39.8415 49.7434 41.5921 51.2636 43.9017 50.875C45.7452 50.5649 47.3062 48.7064 46.871 46.4415C45.9458 41.6274 38.5601 43.0032 39.4894 47.8907Z" fill="#FFB811"/>
<path fill-rule="evenodd" clip-rule="evenodd" d="M18.7995 16.5019C23.7873 15.4365 27.6416 18.9156 28.4603 22.8486C29.49 27.7941 25.94 31.6263 22.1422 32.4357C17.1381 33.5021 13.2141 29.916 12.4532 25.9993C11.4977 21.0789 14.9319 17.3281 18.7995 16.5019ZM30.9666 23.6349C30.5323 22.5504 30.521 21.4188 29.9649 20.1616C26.4791 12.2811 15.0359 11.7247 11.0566 19.8557C9.40994 23.221 9.69016 27.2625 11.8818 30.4044C12.929 31.9057 13.1592 31.0465 13.1407 33.5474C13.1189 36.4909 13.1397 39.4426 13.1394 42.387C13.1391 46.9098 13.3152 46.3929 17.7415 46.3903C18.2591 46.1289 18.0323 46.1264 18.2623 45.4127C20.039 39.8935 28.2719 39.987 29.3724 46.3905C33.6398 46.3905 34.2665 46.8837 34.2541 43.3878L34.2536 28.0442C34.2537 24.2916 34.8829 23.6349 30.9666 23.6349Z" fill="#FFB811"/>
<path fill-rule="evenodd" clip-rule="evenodd" d="M40.7596 30.1529C41.6501 30.1457 43.8393 30.0389 44.592 30.1697C45.6801 30.3586 49.1721 35.678 49.3505 36.6223L40.7596 36.6182V30.1529ZM37.4213 46.3499C37.8071 45.6956 38.6116 41.3544 43.2543 41.4061C47.7388 41.4559 48.4274 45.3514 48.929 46.3431C52.6226 46.7501 52.1173 45.1299 52.1171 42.0536C52.1171 34.579 52.7236 35.8397 48.7044 30.4354C47.451 28.7497 46.5226 26.9586 44.7701 26.8738C34.2938 26.3665 35.8756 26.7567 35.8756 33.0476C35.8756 35.5492 35.8756 38.0509 35.8756 40.5526C35.8756 42.5982 35.1812 46.1413 37.4213 46.3499Z" fill="#FFB811"/>
<path fill-rule="evenodd" clip-rule="evenodd" d="M19.9788 47.7237C20.6634 52.5652 28.1316 51.6516 27.4129 46.5691C26.7423 41.8288 19.2756 42.751 19.9788 47.7237Z" fill="#FFB811"/>
<path fill-rule="evenodd" clip-rule="evenodd" d="M24.2912 28.2614C24.8168 26.9137 23.7275 26.6571 22.3776 24.9058C21.9083 24.2969 22.1111 24.354 21.7587 23.7028C21.1419 22.5631 21.25 23.899 21.1126 20.7043C21.0097 18.3186 21.3281 17.95 20.1036 18.0761C19.6742 18.8825 19.7613 20.7776 19.714 21.8806C19.6669 22.983 19.7959 22.8552 19.2652 23.5592C18.9085 24.0326 18.7622 24.5445 19.1011 25.1815C19.6204 26.1575 19.9133 25.3557 21.5703 26.8793C22.022 27.2947 22.1948 27.3607 22.7335 27.8823C23.2215 28.3544 23.5095 28.5892 24.2912 28.2614Z" fill="#FFB811"/>
</svg>
