<svg width="64" height="64" viewBox="0 0 64 64" fill="none" xmlns="http://www.w3.org/2000/svg">
<path fill-rule="evenodd" clip-rule="evenodd" d="M47.8019 28.0136L44.9426 27.9803L44.9134 29.3697L47.789 29.4094L47.8019 28.0136ZM47.1477 14.786L36.2082 14.7644L36.0971 23.9274L47.2101 24.0287C47.3816 22.682 47.4398 15.8486 47.1477 14.786ZM49.9468 15.112V36.2414C49.947 37.8566 49.9096 38.2426 48.1887 38.2427L35.1086 38.244C32.8711 38.2442 33.4429 36.9332 33.4429 32.6192V17.9293C33.4429 13.0474 32.8404 12 35.1086 12H48.3897C50.4457 12 49.9468 13.2862 49.9468 15.112Z" fill="#FFB811"/>
<path fill-rule="evenodd" clip-rule="evenodd" d="M21.6066 34.4777C22.7342 34.7403 26.9292 34.0332 26.2472 36.1844C25.877 37.3521 22.1339 36.9588 20.898 37.1221C20.6872 38.5346 22.2844 41.5589 22.7209 42.9936C23.2101 44.5996 23.7729 48.1689 23.4138 49.9394C22.6059 50.5198 21.5714 50.7498 20.9287 49.8409C20.0899 48.6547 21.0541 44.6924 17.8027 41.5351C17.2839 42.4757 17.1692 44.5363 16.1098 46.8161C15.5323 48.0591 14.5899 51.1506 12.5297 49.9848C11.3894 49.1557 12.3678 47.7684 12.8863 46.6067C14.8715 42.1572 14.0919 39.588 14.1086 34.028C14.1233 29.0259 13.2528 28.8502 18.2089 28.614C22.0097 28.4327 20.3462 30.4051 21.6066 34.4777Z" fill="#FFB811"/>
<path fill-rule="evenodd" clip-rule="evenodd" d="M26.053 33.7701C21.8782 33.7789 22.1023 33.7922 21.9167 30.0098C21.7397 26.4084 22.5255 27.2089 27.8641 27.2001C30.3886 27.1968 29.9323 29.0465 30.0586 31.417C30.2191 34.4341 28.7836 33.768 26.053 33.7701Z" fill="#FFB811"/>
<path fill-rule="evenodd" clip-rule="evenodd" d="M22.0251 21.7375C22.3755 22.7654 21.8693 23.76 20.934 24.1192C18.9178 24.894 20.5662 24.565 19.3691 26.3435C18.0976 28.2323 15.5578 28.1421 14.2425 26.7276C12.6064 24.9681 13.5608 22.3389 15.3948 21.552C16.9998 20.8635 17.428 21.6124 18.6171 21.712C19.8558 21.8159 20.8689 21.3004 22.0251 21.7375Z" fill="#FFB811"/>
</svg>
