<svg width="64" height="64" viewBox="0 0 64 64" fill="none" xmlns="http://www.w3.org/2000/svg">
<path fill-rule="evenodd" clip-rule="evenodd" d="M31.0701 19.9111C35.1811 19.2968 38.4262 22.339 38.932 25.852C39.5342 30.0363 36.4356 33.2096 32.9569 33.713C29.2303 34.2526 25.6881 31.5815 25.1296 27.7532C24.5227 23.5946 27.6314 20.4252 31.0701 19.9111ZM19.5021 14H44.4977C46.0053 14 47.3797 14.6187 48.3791 15.6152L48.382 15.618L48.3849 15.6209C49.3814 16.6203 50 17.9945 50 19.5022V44.2692C50 45.777 49.3814 47.1511 48.3849 48.1504L48.382 48.1533L48.3791 48.1562C47.3797 49.1527 46.0053 49.7714 44.4977 49.7714H19.5021C17.9943 49.7714 16.6203 49.1527 15.6209 48.1562L15.618 48.1533L15.6151 48.1504C14.6186 47.1511 14 45.777 14 44.2692V19.5022C14 17.9945 14.6186 16.6203 15.6151 15.6209L15.618 15.618L15.6209 15.6152C16.6203 14.6187 17.9943 14 19.5021 14ZM44.4977 16.8577H19.5021C18.7726 16.8577 18.1119 17.1535 17.6356 17.63L17.63 17.6356C17.1535 18.1119 16.8576 18.7728 16.8576 19.5022V44.2692C16.8576 44.9987 17.1535 45.6594 17.63 46.1357L17.6356 46.1414C18.1119 46.6178 18.7726 46.9137 19.5021 46.9137H44.4977C45.2272 46.9137 45.8881 46.6178 46.3642 46.1414L46.37 46.1357C46.8465 45.6594 47.1424 44.9987 47.1424 44.2692V19.5022C47.1424 18.7728 46.8465 18.1119 46.37 17.6356L46.3642 17.63C45.8881 17.1535 45.2272 16.8577 44.4977 16.8577ZM31.0329 27.278C31.6732 25.1273 28.3203 24.213 27.7741 26.2986C27.188 28.5367 30.3906 29.435 31.0329 27.278ZM36.2985 27.278C36.9182 25.1181 33.6384 24.209 33.0436 26.3003C32.3862 28.6126 35.7019 29.3577 36.2985 27.278ZM21.2204 37.8338C21.206 38.214 21.3705 38.5658 21.5719 38.8357C22.0348 38.67 22.6779 38.1753 23.3471 38.5252C24.9394 39.3573 21.7531 42.0035 21.0828 42.4108L21.0784 43.3636L25.3411 43.3007L25.3457 42.2057L23.1652 42.1798C23.2806 42.0349 23.6837 41.6713 23.8763 41.4892C27.1472 38.3937 23.8505 36.1858 21.2204 37.8338ZM28.5729 38.5765C29.7361 39.3817 27.6818 41.1679 27.0843 41.6616C25.9686 42.5826 26.1718 42.603 26.1677 43.3598L30.4447 43.3496L30.4416 42.1857L28.2694 42.2094C28.5651 41.7669 28.7336 41.7647 29.0488 41.4914C30.8964 39.8884 30.7206 37.4521 28.5311 37.2742C27.4405 37.1857 27.0218 37.4958 26.2385 37.8145L26.6068 38.861C27.1203 38.6892 27.8984 38.1098 28.5729 38.5765ZM39.0898 37.1454L37.6076 37.1407C37.7505 37.8715 39.3942 43.0023 39.6512 43.3583L41.2593 43.3488L43.3039 37.1389L41.7965 37.1617C41.5978 37.9656 41.3518 38.7183 41.1056 39.513L40.6322 41.2821C40.5393 41.607 40.5646 41.5712 40.4252 41.7948C40.235 40.9082 39.4671 37.7038 39.0898 37.1454ZM34.28 40.4169C34.2675 43.1847 32.5767 43.0299 32.611 40.304C32.6445 37.6514 34.2923 37.6736 34.2804 40.3043L34.28 40.4169ZM35.6695 41.0904C35.9201 39.4438 35.4084 37.7679 34.1673 37.3656C32.4483 36.8084 31.4632 38.107 31.25 39.534C30.5684 44.0952 35.0843 44.9398 35.6695 41.0904ZM31.1861 18.9598C27.0648 19.4478 23.6424 22.983 24.1711 27.7203C24.6253 31.7889 28.3482 35.2133 33.0064 34.6678C36.9874 34.2014 40.4528 30.5137 39.8824 25.8173C39.4003 21.8448 35.7418 18.4204 31.1861 18.9598Z" fill="#FFB811"/>
</svg>
