<svg width="64" height="64" viewBox="0 0 64 64" fill="none" xmlns="http://www.w3.org/2000/svg">
<path fill-rule="evenodd" clip-rule="evenodd" d="M14 17.1942V17.2152V17.2361V17.2569V17.2778C14.0006 17.6935 14.0118 18.064 14.1861 18.3861C15.4733 20.7633 18.6374 18.0952 19.4787 21.878L20.5323 27.0254C20.6742 28.1624 20.863 28.4881 20.9532 29.1021L22.0043 34.338C22.4635 36.5378 22.626 38.1177 24.5949 39.8431C25.408 40.5557 26.419 41.0522 27.4687 41.3617C28.0522 41.5335 29.0467 41.6533 29.7607 41.6533H41.2153C42.7095 41.6533 44.1492 39.7218 44.9154 38.5497C45.0939 38.2767 45.2372 37.9416 45.4219 37.6782L47.6861 33.7415C48.2148 32.6301 48.855 31.5956 49.2979 30.5304C49.3975 30.291 49.4183 30.2801 49.5242 30.0676C49.854 29.4047 50 29.2997 50 28.4763C50 26.2158 47.3107 25.6701 46.2604 27.1482C45.7084 27.925 45.9589 27.5423 45.4462 28.6595C44.9029 29.8442 43.8757 31.5849 43.4784 32.4622L42.2372 34.6657C42.0823 34.8973 41.9569 35.1513 41.8242 35.3723C41.5811 35.7767 40.6176 37.3472 40.268 37.3472H29.3302C28.6862 37.3472 27.9579 36.9937 27.5684 36.6975C26.3188 35.7472 26.3798 34.0185 25.9186 32.2324C25.8168 31.838 25.8099 31.4602 25.7334 31.1258C25.6556 30.7862 25.551 30.5126 25.4895 30.1639L23.6545 20.8888C23.4671 20.2407 23.3886 19.7455 23.044 19.0018L22.0755 17.5587L21.1131 16.7126C20.0402 15.974 20.6303 16.2558 19.0695 15.6558C18.3125 15.3648 15.8686 14.9463 14.9084 15.605C14.355 15.9847 14 16.4579 14 17.1942Z" fill="#FFB811"/>
<path fill-rule="evenodd" clip-rule="evenodd" d="M29.3303 14.6965C29.3303 16.0893 29.392 16.479 29.5049 17.7947C29.5734 18.5934 29.7536 19.2717 29.7595 20.1237C29.7648 20.9204 30.0356 21.6479 30.0985 22.3684C30.1803 23.3054 30.2433 23.9979 31.1388 23.9979C31.7356 23.9979 32.9356 22.5502 33.3877 22.1127C33.6062 21.9015 33.3631 22.0351 33.7227 21.8448C34.4896 22.3584 35.2828 23.4965 35.8528 24.2792C36.4832 25.1446 36.9953 26.6827 36.9953 28.0457C36.9953 30.1855 35.548 31.835 36.5647 31.835C36.8959 31.835 37.6734 30.7675 37.8827 30.4832L38.4611 29.6837C38.8558 29.142 39.3844 28.1011 39.6207 27.3984C40.3324 25.2822 40.4205 23.8751 39.5685 21.769L38.7443 20.2679L37.1676 18.3137L38.5136 16.9899C39.0098 16.494 39.3207 16.2663 39.3207 15.73C39.3207 14.7035 37.5061 14.7571 36.5767 14.5985L34.2438 14.3475C33.1806 14.2687 32.214 14.0076 30.7082 14.0076C30.1421 14.0076 29.3303 13.8773 29.3303 14.6965Z" fill="#FFB811"/>
<path fill-rule="evenodd" clip-rule="evenodd" d="M37.4258 46.39C37.4258 47.4111 37.8494 48.1433 38.4065 48.8543C38.9169 49.5056 39.8296 49.8431 40.7106 49.9211H41.5012C41.9137 49.8827 42.2848 49.7829 42.5589 49.6284C43.2627 49.2316 43.9826 48.6204 44.2327 47.8572C44.3466 47.5096 44.5741 46.9232 44.5741 46.4761C44.5741 45.546 44.0085 44.4809 43.5226 43.9966C43.3609 43.8355 43.2459 43.7423 43.0498 43.6081L42.5182 43.2785C41.6321 42.7693 40.2084 42.8555 39.2175 43.4451L38.5207 43.9539C38.2884 44.1768 37.9406 44.6426 37.8044 44.9601C37.6878 45.232 37.4258 46.079 37.4258 46.39Z" fill="#FFB811"/>
<path fill-rule="evenodd" clip-rule="evenodd" d="M25.0239 46.3901L25.1248 47.2367C25.4705 48.7153 26.5573 49.9213 28.2967 49.9213H28.3417C29.2809 49.9193 29.8358 49.8511 30.6241 49.3205C31.3918 48.8038 32.0001 47.6975 32.0001 46.8208C32.0001 45.641 31.9013 44.7566 31.0127 43.9326C30.4179 43.3812 30.5757 43.5797 30.0256 43.2832C28.6741 42.5549 26.7122 42.9828 25.6428 44.4252C25.2976 44.891 25.0239 45.7958 25.0239 46.3901Z" fill="#FFB811"/>
</svg>
