<svg width="64" height="64" viewBox="0 0 64 64" fill="none" xmlns="http://www.w3.org/2000/svg">
<path fill-rule="evenodd" clip-rule="evenodd" d="M22.047 35.649H41.953C41.0391 39.571 36.2037 42.8489 31.9999 42.8489C30.8832 42.8489 29.4014 42.4548 28.4756 42.1381C25.6675 41.1769 23.6277 39.213 22.3933 36.5732C22.2171 36.1966 22.1637 35.9103 22.047 35.649ZM50 30.9644V32.9578C49.7608 37.2924 47.979 41.5847 44.6552 44.916C41.3831 48.1962 37.0168 49.9064 32.6031 50.0489H31.3969C26.9832 49.9062 22.6169 48.1958 19.3448 44.916C15.6301 41.1926 14 37.244 14 31.2021C14 26.4191 16.6963 21.825 19.1331 19.3939C25.452 13.0898 35.2851 12.1479 42.59 17.4355C43.3933 18.0171 44.1381 18.6666 44.8669 19.3939C48.0608 22.58 49.7707 26.7249 50 30.9644ZM38.3528 24.8492C41.4117 24.8492 42.0711 30.1431 38.1411 30.1431C34.6317 30.1431 35.1502 24.8492 38.3528 24.8492ZM25.8589 30.1431C20.7258 30.1431 23.7752 22.359 27.4077 25.6298C29.3708 27.397 27.8899 30.1431 25.8589 30.1431Z" fill="#FFB811"/>
</svg>
