<svg width="64" height="64" viewBox="0 0 64 64" fill="none" xmlns="http://www.w3.org/2000/svg">
<path fill-rule="evenodd" clip-rule="evenodd" d="M15.8608 38.4808C17.1326 37.8012 15.9937 32.2308 16.5084 31.2544C16.7864 30.7272 16.6549 31.7274 16.9497 30.7317C17.4308 31.4756 17.4566 30.9041 17.4495 32.2588C17.4342 35.1709 17.3207 45.3986 17.4626 46.7198C17.6722 48.6702 20.6859 48.7655 21.4363 47.349C21.8302 46.6053 21.6489 42.3483 21.6488 41.349C21.6481 38.6367 21.3462 38.1171 22.4863 38.2896C22.7136 40.5676 22.5518 43.6724 22.5464 46.0338C22.5446 46.8401 22.5484 47.1923 23.0355 47.6566C23.9631 48.5408 25.0166 48.3821 25.9476 47.8932C26.5423 47.5808 26.662 47.5418 26.7225 46.7123C26.895 44.3475 26.7355 41.3098 26.7365 38.8712C26.7373 37.2313 26.5285 32.402 26.8165 31.1071L27.7185 31.1328C27.8648 32.1219 27.7587 35.6492 27.7686 37.0871C27.7765 38.2217 27.8308 37.8843 28.2404 38.5758C29.2452 38.6714 30.0406 38.6317 30.1695 37.6399C30.3679 36.1166 30.2232 30.291 29.905 29.2484C29.3086 27.2954 25.7388 25.8855 24.4059 26.3586C20.2642 27.8286 20.365 25.4764 17.2696 26.6683C15.9748 27.1668 14.6286 27.9897 14.2223 29.2587C13.9833 30.0046 13.9374 37.0479 14.0828 37.7332C14.2535 38.5376 15.0637 38.904 15.8608 38.4808Z" fill="#FFB811"/>
<path fill-rule="evenodd" clip-rule="evenodd" d="M38.8591 28.2715C38.8589 28.7756 38.7836 30.2533 38.9828 30.474C39.4725 30.7473 46.7693 30.6637 47.8736 30.5583C48.0267 29.9677 48.0427 22.2604 47.9102 21.5594L40.076 21.5295C38.5929 21.5295 38.8576 21.2182 38.8578 24.2794C38.8578 25.61 38.8542 26.9409 38.8591 28.2715Z" fill="#FFB811"/>
<path fill-rule="evenodd" clip-rule="evenodd" d="M20.9746 16.1581C20.3076 16.331 20.5447 16.1279 19.622 16.6291C18.1064 17.4525 16.6242 19.9087 17.2713 21.8988C17.7314 23.3139 17.9672 24.0613 19.1986 24.9136C20.4579 25.7851 21.6025 26.0605 23.2583 25.7521C24.2013 25.5765 24.9246 25.1256 25.5683 24.4948C25.9161 24.154 25.8241 24.322 26.1031 23.811C26.2944 23.4603 26.3385 23.2614 26.5027 22.9367C28.3594 19.2616 24.9171 15.1363 20.9746 16.1581Z" fill="#FFB811"/>
<path fill-rule="evenodd" clip-rule="evenodd" d="M42.0043 39.4218C41.9979 38.9534 43.0658 37.6853 43.5941 37.8277C43.5941 37.8277 45.0564 38.8943 45.09 39.4882C44.2901 39.5909 42.6119 39.7462 42.0043 39.4218ZM46.2317 38.14C45.9543 38.0657 44.7501 36.9959 44.7517 36.5327C44.7528 36.2194 45.2224 35.7149 45.4661 35.4575C45.9997 34.8938 46.0685 35.0359 46.3528 35.0678C46.4678 35.8651 46.5262 37.5669 46.2317 38.14ZM39.011 32.0288C38.7915 33.1585 38.9161 35.2925 38.9161 36.531C38.9161 37.3108 38.9192 38.0914 38.9161 38.8712C38.9125 39.7626 38.74 40.5748 39.1252 40.9159C39.4765 41.2269 46.876 41.1428 47.9046 41.044L47.9722 33.0829C47.972 32.2132 47.854 32.3462 47.8382 32.2064C47.7808 31.6939 39.8913 31.9527 39.011 32.0288Z" fill="#FFB811"/>
<path fill-rule="evenodd" clip-rule="evenodd" d="M30.853 22.3098C35.752 22.3071 34.9218 21.5112 34.9218 25.6561V37.6323C34.9216 40.4371 34.674 39.8044 36.1721 40.2774C36.4945 40.3793 37.1174 40.5681 37.3081 40.3601C37.6027 40.0392 37.4287 25.6416 37.4287 23.0405C37.4287 21.9686 37.5503 20.7272 37.2606 19.8091L31.1283 19.8076C29.7294 19.8078 29.5202 19.448 29.521 20.8288C29.5221 22.4778 29.2587 22.3103 30.853 22.3098Z" fill="#FFB811"/>
<path fill-rule="evenodd" clip-rule="evenodd" d="M33.8319 44.5203C34.1385 43.3137 36.127 43.3333 36.2709 44.6557C36.4978 46.7411 33.3145 46.5554 33.8319 44.5203ZM38.304 45.8917C38.6858 44.8765 38.3804 43.8709 37.9284 43.0907C37.4428 42.2525 36.9963 41.9246 35.9831 41.5919C33.702 40.8432 31.8433 42.9185 31.6982 43.8209C31.3222 46.1602 32.3032 47.8512 34.1221 48.2567C36.1458 48.7078 37.5982 47.7688 38.304 45.8917Z" fill="#FFB811"/>
<path fill-rule="evenodd" clip-rule="evenodd" d="M47.756 42.5952C47.4315 42.3334 40.3175 42.4734 39.3218 42.5177C39.3601 42.9158 39.5148 43.1335 39.6905 43.5194C40.4804 45.254 38.9633 44.9155 42.8293 44.9155C43.7983 44.9155 47.4918 45.0846 47.7905 44.7905C48.0204 44.564 47.9807 43.2573 47.9334 43.0083L47.756 42.5952Z" fill="#FFB811"/>
</svg>
