<svg width="64" height="64" viewBox="0 0 64 64" fill="none" xmlns="http://www.w3.org/2000/svg">
<path fill-rule="evenodd" clip-rule="evenodd" d="M35.0159 36.5687C35.0159 33.3641 37.66 30.6953 40.8824 30.6886C41.6591 30.6871 42.6937 30.947 43.2977 31.2196C47.9319 33.3114 47.8454 39.9764 43.2738 41.9571C39.1874 43.7277 35.0159 40.7001 35.0159 36.5687ZM32.6675 34.8264L32.454 34.911C32.4247 35.2021 32.2606 36.0188 32.2726 36.1786C32.301 36.5554 32.8238 36.5683 32.7314 37.0843C32.8624 36.9815 32.8109 37.1551 32.8983 36.7515L32.9243 36.6502C33.2265 36.7125 33.4167 36.809 33.4638 37.0887C33.4968 37.2857 33.4967 37.7401 33.4722 37.9386L32.6982 38.6561C32.7344 38.9908 32.9697 39.5863 33.124 39.8114C34.3622 39.8574 34.1214 39.7699 34.5003 40.415C34.7041 40.7617 34.7212 40.7779 34.5275 41.1682C34.2519 41.7232 34.0567 41.9025 35.0118 42.6872C35.3454 42.6519 35.7309 42.3931 36.0564 42.4077C36.3575 42.4212 36.7123 42.7702 36.9058 42.8899L36.9356 44.1055C37.1972 44.235 37.781 44.5265 38.0127 44.5546C38.9738 43.6411 38.5821 43.7628 39.8137 43.9714C39.9871 44.2808 40.1324 44.7304 40.2968 45.0526L41.4681 45.0392C41.572 44.8355 41.6662 44.5868 41.7771 44.3092C41.9416 43.8975 41.9552 43.9878 42.3878 43.8868C42.7496 43.8025 42.9124 43.7564 43.1668 44.0037C44 44.8131 43.6355 44.4974 44.8199 44.0974L44.8269 42.9125C45.407 42.5239 45.4228 42.2892 46.2915 42.572C46.6248 42.6803 46.7396 42.7691 46.9792 42.474C47.0374 42.4025 47.4267 41.9876 47.4578 41.9163C47.6311 41.5196 46.8314 41.1503 47.2596 40.3968C47.4371 40.0846 47.4509 39.8969 47.7355 39.853C48.9931 39.659 48.4642 40.1865 48.8964 39.1613C48.9732 38.9792 49.0737 38.8262 48.9946 38.6334C48.9595 38.5481 48.3764 38.0615 48.252 37.9386C48.223 37.661 48.2154 37.1748 48.3226 36.9727C48.4513 36.7014 48.8417 36.6706 49.3044 36.3056L49.2008 35.2147C48.9643 35.0298 48.4699 35.0031 48.2104 34.7912C48.0365 34.6494 48.0944 34.7032 47.9623 34.3074C47.8894 34.0892 47.7893 33.971 47.8754 33.7261C47.9842 33.4167 48.437 33.1491 48.3782 32.8042L47.9283 31.9128C47.4239 31.858 47.1734 31.9767 46.7203 31.9741C46.5169 31.6583 46.2567 31.482 46.065 31.2142L46.2871 30.1195C46.0838 29.9707 45.6211 29.5548 45.3189 29.461C44.4226 29.953 44.5841 30.092 43.95 29.7847C43.3761 29.5066 43.4784 29.8181 43.1962 28.4796C42.8981 28.3584 42.4431 28.2517 42.0712 28.2392C41.8476 28.4852 41.5855 28.8927 41.4094 29.1322L40.3611 29.1231C40.096 28.8135 39.9292 28.4141 39.6434 28.2297C38.6033 28.4544 38.4755 28.1663 38.3767 29.5066C38.2524 29.588 37.5291 29.9644 37.3667 29.9571C37.2415 29.9514 36.5835 29.5401 36.4471 29.4565C36.2383 29.5192 35.863 29.799 35.6993 29.9502C35.2095 30.4022 35.8878 30.7813 35.6524 31.2817C35.6427 31.3024 35.0735 31.9265 35.0084 32.0162L33.9029 31.8948C33.7102 32.1065 33.413 32.623 33.3508 32.9154C33.4124 33.4158 34.1422 33.4 33.8398 34.2268C33.7165 34.5636 33.8223 34.9736 32.6635 35.0507C32.6547 35.0336 32.6332 35.0138 32.631 35.0034L32.6675 34.8264Z" fill="#FFB811"/>
<path fill-rule="evenodd" clip-rule="evenodd" d="M25.3814 30.0581C26.7899 29.6536 28.3656 30.1341 29.2463 30.7842C32.6471 33.2947 31.5689 38.4112 27.5585 39.3729C22.5813 40.5667 19.4784 33.9304 23.7525 30.7905C24.4676 30.2652 24.6621 30.2646 25.3814 30.0581ZM32.7315 37.0844C32.8239 36.5683 32.3011 36.5554 32.2727 36.1787C32.2607 36.0188 32.4248 35.2021 32.4541 34.911L32.6676 34.8264L33.1652 34.5465C33.2262 34.1173 33.2656 33.4076 32.7716 33.274C31.9297 33.0462 32.3489 33.0058 31.9922 32.3405C31.5905 31.5911 32.1397 31.6667 32.1755 31.2051C32.1892 31.0287 31.6963 30.4187 31.5546 30.2739C31.2569 30.1422 31.0016 30.6593 30.4706 30.2177C30.2471 30.0318 30.0124 29.816 29.7269 29.6584C29.7131 29.3987 29.762 28.9973 29.6546 28.8229C29.5673 28.6644 28.8636 28.3961 28.6842 28.3495C28.3686 28.4747 28.2642 28.8256 27.9603 28.8636C27.8194 28.881 27.1764 28.7372 26.8577 28.7266C26.6207 28.5244 26.4767 28.2356 26.315 27.9761C24.7425 27.9411 25.2409 28.4005 24.9668 28.8184C24.8833 28.9455 23.7961 29.3902 23.6466 29.3424C23.4706 29.286 23.2476 29.0776 23.0088 29.0011C22.7843 29.0698 22.2339 29.5025 22.1045 29.6539C22.1204 30.2882 22.4052 30.2898 22.0507 30.7188C21.8213 30.9968 21.6579 31.159 21.5001 31.4721L20.5836 31.5091L20.1872 32.5241C20.5126 33.2483 20.7922 32.6146 20.6125 33.7908C20.4699 34.7233 20.7166 34.3344 19.814 34.8876L19.953 35.9641C20.064 36.2099 20.6161 36.0869 20.7985 36.4268C20.8262 36.4783 21.1341 37.3643 21.1396 37.4211C21.1844 37.8863 20.7027 37.9864 20.9045 38.4076L21.5084 39.1345C22.5633 39.0009 21.7379 38.6551 23.3124 39.765L23.3236 40.6334C23.6362 40.7766 24.0221 40.9979 24.4262 41.0475C24.4879 40.9487 24.796 40.6514 24.8933 40.6002C25.148 40.4661 25.3318 40.607 25.653 40.6451C26.3149 40.7237 26.2067 40.5264 26.6824 41.4548L27.7904 41.3448C28.2292 40.6646 27.6326 40.654 28.5943 40.3284C28.8068 40.2564 29.0454 40.0875 29.3338 40.1184C29.8315 40.1722 29.917 40.8181 30.8957 39.7651C30.8725 39.1756 30.5905 39.081 30.9795 38.6688C31.7208 37.8835 31.1408 37.9457 32.4308 37.8939C32.5144 37.7509 32.7147 37.2234 32.7315 37.0844Z" fill="#FFB811"/>
<path fill-rule="evenodd" clip-rule="evenodd" d="M31.0368 23.326C30.6958 24.3041 30.696 24.8235 29.4962 25.7688C28.5025 26.552 26.8979 26.8584 25.5016 26.2504C25.3716 26.1939 25.0128 26.0342 24.8501 25.9167C24.2807 25.5061 24.2272 25.411 23.8278 24.9186C22.5026 23.2847 22.8132 20.5458 24.6555 19.2314C26.523 17.8992 28.8429 18.184 30.3619 20.085C30.868 20.7184 31.392 22.3065 31.0368 23.326ZM24.1833 17.5141C23.9636 17.6029 23.5336 17.9183 23.3565 18.1074C23.4025 18.6037 23.6635 18.5756 23.2787 19.0299C23.1227 19.2139 22.8734 19.6497 22.6177 19.6497C22.1971 19.6497 22.1105 19.5397 21.9606 19.8765C21.8524 20.1187 21.7266 20.3238 21.6934 20.521C21.8289 20.8278 22.0755 20.8289 22.0985 21.1745C22.1029 21.2382 21.9403 22.0584 21.9252 22.1041C21.822 22.2319 21.4746 22.424 21.3167 22.5412L21.4193 23.4557C21.6911 23.7001 21.9437 23.5741 22.1032 23.843C22.1461 23.9155 22.3857 24.5815 22.3894 24.6969C22.4016 25.074 22.0563 25.2364 22.1395 25.5046C22.1533 25.5496 22.5709 26.1029 22.6177 26.1362C23.4257 26.2617 23.1164 25.8797 23.7983 26.4509C24.3755 26.9343 24.1803 26.7117 24.2406 27.5121C25.5356 28.3651 25.1297 27.501 25.8098 27.4988C25.8805 27.4987 26.6207 27.6388 26.7529 27.669C26.8548 27.8837 26.9687 28.0968 27.1151 28.2792L28.0751 28.1773C28.403 27.5133 28.0218 27.6315 28.8012 27.3541C29.6812 27.0411 29.3189 27.2592 29.9891 27.4876C30.2546 27.3298 30.4842 27.1764 30.7256 26.914C30.7385 26.4913 30.5477 26.2755 30.8211 25.9872C31.036 25.7607 31.2012 25.5721 31.3626 25.3626L32.0769 25.345C33.0176 23.7989 31.8948 24.7742 32.1085 23.4272C32.2661 22.4346 32.3572 22.9226 32.7885 22.4781L32.7713 21.512C32.6908 21.4767 32.5512 21.4025 32.4792 21.3747C31.7937 21.1091 32.2383 21.483 31.8536 20.6171C31.6936 20.2568 31.6778 20.2349 31.8631 19.9197C32.1531 19.4264 31.7542 19.1454 31.4895 18.7833C30.8034 18.7978 31.0318 19.1068 30.3506 18.5343C29.6726 17.9643 30.0381 18.2683 29.8854 17.4227C28.2397 16.5997 29.3378 17.7183 27.9337 17.4178C27.1029 17.24 27.4756 17.3634 27.0622 16.7289C25.6507 16.6114 26.1431 17.2343 25.7281 17.4995C25.6487 17.5502 25.0017 17.7795 24.9554 17.787C24.5832 17.8462 24.6125 17.698 24.1833 17.5141Z" fill="#FFB811"/>
<path fill-rule="evenodd" clip-rule="evenodd" d="M50.8334 35.3944C50.8307 33.231 52.5438 31.63 54.5823 31.6258C55.5734 31.6237 56.6861 32.166 57.2316 32.7404C57.7985 33.3375 58.3377 34.3648 58.3404 35.3944C58.3454 37.4334 56.683 39.1655 54.5823 39.1731C52.4911 39.1803 50.8363 37.6109 50.8334 35.3944ZM58.5778 32.9569C58.4758 32.7896 58.3972 32.6753 58.2886 32.5367C58.207 32.4332 58.0295 32.259 57.9859 32.1857C57.8543 31.9644 58.045 31.3502 58.063 31.0701C57.7765 30.929 57.5276 30.6889 57.1916 30.5431C56.2641 30.977 56.7707 31.1442 55.8485 30.8706C55.4425 30.75 55.2629 30.9425 54.9129 29.8411L53.8331 29.8851C53.7157 30.0663 53.6615 30.372 53.5386 30.6229C53.3739 30.9591 53.2694 30.8668 52.9231 30.9903C52.5596 31.12 52.5393 31.2369 52.2 31.0598C51.9656 30.9373 51.836 30.7715 51.5163 30.7711C51.3582 30.8495 50.9059 31.2247 50.7926 31.3499C50.7717 31.789 51.0561 32.1409 50.8856 32.4709C50.7858 32.664 50.5622 32.9195 50.4073 33.2214C50.0244 33.2977 49.6615 33.2738 49.3656 33.4059L49.1216 34.416C49.1781 34.4683 49.8074 34.9848 49.8187 35.0034C49.9527 35.2273 49.9114 35.867 49.8719 36.1823L49.2359 36.7644C49.2296 36.9895 49.4756 37.6403 49.5631 37.8208L50.5397 37.8777C50.7547 38.2076 50.9682 38.3953 51.146 38.6382C51.2951 38.8423 51.074 39.3144 51.1087 39.7852C51.3105 39.8945 51.7764 40.2571 51.9151 40.2635C52.1905 40.2763 52.455 39.8625 52.7636 39.832C52.8795 39.8206 53.6704 40.0511 53.7694 40.113C53.9539 40.2284 54.0947 40.675 54.1931 40.9492L55.2945 40.9225C55.6769 40.2255 55.3837 40.0769 56.134 39.8333C57.0442 39.538 56.8182 39.838 57.5178 40.0882C57.6735 40.032 58.2534 39.6042 58.3593 39.439C58.356 39.0812 58.2112 38.9227 58.182 38.633C58.1596 38.4085 58.6241 37.6018 58.9546 37.5411C59.2414 37.4884 59.455 37.5314 59.7492 37.4356C60.015 36.0481 60.2577 36.6341 59.4278 35.9591C59.184 35.7608 59.2341 35.6408 59.228 35.2653C59.2205 34.7999 59.126 34.753 59.415 34.4868C59.5498 34.3626 59.7558 34.2034 59.8915 34.0898C59.9106 33.7712 59.661 33.2077 59.5423 32.9902L58.5778 32.9569Z" fill="#FFB811"/>
<path fill-rule="evenodd" clip-rule="evenodd" d="M47.439 21.2385C47.4399 23.3001 45.8781 24.9082 43.8196 24.9019C41.8336 24.8958 40.2393 23.3199 40.2121 21.3045C40.185 19.2996 41.7943 17.6321 43.8185 17.6294C45.8981 17.6265 47.4378 19.217 47.439 21.2385ZM41.6942 16.3608C41.6159 17.6594 41.6846 17.1233 41.137 17.5786C40.9836 17.7061 40.8885 17.8989 40.6456 17.8758C39.9783 17.8125 39.9981 17.5123 39.5978 18.0013C38.7916 18.9861 39.8454 18.7137 39.6221 19.5844C39.4212 20.3683 39.3662 20.4211 38.5282 20.7C38.4917 21.9422 38.4322 21.7007 39.0912 21.9935C39.4236 22.141 39.3868 22.1947 39.4902 22.5728C39.8028 23.7145 39.4603 23.1624 39.2328 23.9784C39.3937 24.2864 39.6301 24.4681 39.7611 24.7725C40.6358 24.7745 40.363 24.3368 41.1176 24.9178C41.8476 25.4797 41.5483 25.112 41.6853 26.1861C43.0015 26.6498 42.5443 26.5795 43.1046 26.0053C43.3745 25.7288 43.625 25.8349 44.3804 25.8424C44.8351 26.5295 44.978 26.5765 45.6777 26.3L45.8158 26.2369C46.0705 26.1053 46.0015 25.6267 46.0694 25.2179C46.2643 25.1105 46.2604 25.1273 46.417 25.0101C47.3223 24.3319 46.7509 24.8325 47.8935 24.7832C47.9721 24.666 48.4178 24.1271 48.4101 23.9835C48.3965 23.73 47.9575 23.4324 48.01 23.0909C48.0493 22.8338 48.2381 22.2435 48.4276 22.1266C49.039 21.7491 49.2389 22.2841 49.1682 20.7796C48.2537 20.3734 48.3391 20.5249 48.082 19.6321C47.8699 18.8961 48.7062 18.9305 48.2829 18.2785C48.1386 18.0563 48.052 17.9083 47.8632 17.7648C47.4332 17.7565 47.1351 18.0014 46.8257 17.8372C46.7548 17.7995 46.1276 17.2943 46.0957 17.2592L46.0317 16.3446L45.0027 16C44.2549 16.7407 44.7987 16.7332 43.362 16.6876C43.1485 16.519 42.8358 16.0682 42.6942 16.0374C42.4884 15.9926 41.8188 16.2718 41.6942 16.3608Z" fill="#FFB811"/>
<path fill-rule="evenodd" clip-rule="evenodd" d="M27.4631 33.6983C27.4631 32.7492 28.934 33.878 28.9274 34.4711L28.1623 34.4833H27.8363C27.4621 34.4833 27.4631 34.4478 27.4631 34.0898V33.6983ZM29.5792 36.1505C29.9532 36.1097 30.127 36.0948 30.1579 35.7226C30.1878 35.3639 30.1454 35.1239 29.9898 34.937L29.4526 34.4319C27.4753 32.2598 27.8447 32.4838 24.4441 32.4828C23.6254 32.4825 23.1483 32.3025 23.145 33.1725C23.1432 33.6609 23.249 34.7885 23.1057 35.1613C22.9797 35.4886 22.9733 35.1597 22.9387 35.531C22.88 36.1612 23.5465 36.1002 23.81 36.0925C23.8325 36.5403 24.0399 36.8876 24.5739 36.8506C25.0584 36.8173 25.3197 36.1901 25.3217 36.1803C25.3278 36.1489 25.3436 36.1432 25.3574 36.1283L28.0973 36.1391C28.1446 36.2013 28.1383 36.1944 28.1856 36.2853L28.3607 36.6317C28.4752 36.7763 28.6076 36.85 28.88 36.852C29.3827 36.8558 29.5365 36.565 29.5792 36.1505Z" fill="#FFB811"/>
<path fill-rule="evenodd" clip-rule="evenodd" d="M33.4632 25.6744C33.4632 22.4435 38.3288 22.44 38.3001 25.7402C38.2723 28.9143 33.4632 29.024 33.4632 25.6744ZM32.9071 22.99C32.7679 23.213 32.4932 23.4636 32.3811 23.7827C32.4806 24.1098 32.7505 24.3164 32.7584 24.6306C32.7637 24.8329 32.6841 24.9351 32.6539 25.1136C32.6205 25.3106 32.6312 25.5345 32.6031 25.7494C32.3375 25.9114 32.0998 26.1595 31.8723 26.3138C31.9804 27.6034 32.2669 27.3122 32.8548 27.3941C33.1251 27.4316 33.8163 28.0518 33.8181 28.5448L33.8238 29.325C35.0775 29.9548 34.6545 29.5766 35.3554 29.0865C35.5838 28.927 36.2603 28.8977 36.5493 29.0207C36.7191 29.0932 37.0605 29.507 37.257 29.5549C37.4533 29.6029 37.9675 29.2862 38.1324 29.1913C38.2628 28.1872 37.8157 28.514 38.4511 27.6793C38.8018 27.2184 38.7297 27.2497 39.7348 27.0687C39.8166 26.7093 39.9097 26.4687 39.8944 26.0658L39.0863 25.4896C39.0712 25.1671 39.0781 25.145 38.9953 24.8944C38.8252 24.3803 38.8065 24.4147 39.0224 23.9989C39.1216 23.8076 39.1862 23.7275 39.212 23.5216C39.1032 23.3041 38.8612 23.0354 38.6649 22.8557C38.2467 22.8169 38.1914 22.9808 37.8692 22.9954C37.6139 23.007 37.422 22.8188 37.187 22.7176C36.9195 22.6025 36.709 22.625 36.5721 22.42C36.1506 21.7885 36.6785 21.7202 35.2537 21.7494C34.8887 22.801 34.9512 22.5165 34.406 22.7883C34.1816 22.9001 34.0186 23.1072 33.7716 23.13C33.4096 23.1633 33.2261 23.0077 32.9071 22.99Z" fill="#FFB811"/>
<path fill-rule="evenodd" clip-rule="evenodd" d="M46.7497 28.6753C46.3862 26.6156 48.5885 24.9984 50.464 26.2671C52.1921 27.4362 51.4579 30.265 49.5621 30.5188C48.4963 30.6614 47.6164 30.3296 47.1004 29.5036C46.996 29.3365 46.7816 28.8556 46.7497 28.6753ZM48.9068 25.0179C48.3063 25.0605 48.3615 25.1231 47.886 25.2468C47.5853 25.3248 47.2194 25.0486 46.95 24.9333C46.6879 25.0801 46.47 25.3138 46.2066 25.4531C46.2104 25.8387 46.3063 25.9074 46.3772 26.2441C46.4507 26.5933 46.3084 26.5672 46.1694 26.9071C46.0197 27.2732 46.102 27.5572 45.1211 27.8189L45.1023 28.8352C46.2772 29.2773 46.015 29.2563 46.2343 29.6599C46.3779 29.9244 46.5459 29.894 46.4622 30.3558C46.4075 30.6572 46.3055 30.4794 46.3064 31.1541C46.5494 31.3738 46.7525 31.5213 47.0152 31.724C47.2579 31.6741 47.4448 31.5247 47.6475 31.3967C48.0895 31.1178 47.9569 31.2533 48.3926 31.3306C48.8856 31.418 48.9397 31.3764 49.4883 32.2708C49.5974 32.2622 50.192 32.1485 50.2742 32.116C50.5585 32.0035 50.5465 31.759 50.577 31.4278C50.6404 30.736 51.1455 30.8372 51.4032 30.3926L52.4295 30.4091C53.2592 29.2645 52.3739 29.1765 52.2534 28.7813C52.2455 28.755 52.2527 27.7336 52.2576 27.7151C52.308 27.5262 52.6617 27.2153 52.7714 26.9792C52.7517 26.653 52.5409 26.3785 52.4447 26.1241C50.9453 25.9914 52.0518 26.3906 50.8194 25.5209C50.5557 25.3348 50.7255 25.5697 50.5757 25.2943C50.4594 25.08 50.449 24.8439 50.4244 24.5416C50.0864 24.4128 49.7935 24.3231 49.3636 24.3402C49.2012 24.5874 49.0377 24.7532 48.9068 25.0179Z" fill="#FFB811"/>
<path fill-rule="evenodd" clip-rule="evenodd" d="M37.8778 33.8258C38.2402 33.7814 39.0625 33.8884 39.4407 33.967C39.4863 34.6793 39.5168 36.2105 39.4547 36.8985C39.4289 37.1864 39.3536 37.2008 39.1675 37.3355C38.6415 37.7162 38.5526 37.3046 38.3893 37.686C38.3816 37.7041 38.1487 38.3966 38.9261 38.1619C39.0424 37.8067 39.0392 37.6727 39.454 37.6615L39.4463 38.9827C39.0068 39.1403 38.4396 39.1941 37.8625 39.1322L37.8778 33.8258ZM40.0075 36.0848C39.9996 35.6569 39.9459 34.5038 40.0002 34.1464C40.038 33.8962 39.9967 33.9424 40.2296 33.891C40.3027 33.8749 40.5664 33.8718 40.671 33.8603C40.9754 33.8273 41.17 33.7774 41.5349 33.8244C41.5618 34.3196 41.45 34.8018 41.7084 34.7505L42.0764 34.566L42.1014 33.781L43.5955 33.9251C43.7782 34.3155 43.5679 34.3573 44.1393 34.4057C44.1754 33.8835 44.2577 33.4772 43.7569 33.3766C43.4609 33.3173 43.2467 33.2818 42.9061 33.2492C42.2093 33.1823 41.8891 33.0176 41.0844 33.1879C39.159 33.595 38.8061 33.0432 37.5609 33.129C37.3929 33.3258 37.3171 33.3759 37.3171 33.7636V39.2433C37.3171 39.4939 37.3343 39.5752 37.4258 39.7962C38.1017 40.0096 39.2813 39.5182 39.8284 39.574C40.7019 39.6634 41.1914 39.9005 42.2166 39.8527C42.1547 39.4485 42.0115 39.6123 41.6659 39.02C41.4097 39.0904 41.7487 39.198 40.8166 39.1399C40.4623 39.1178 40.2776 39.0909 40.0098 39.0078C39.9849 37.949 39.8768 37.2853 40.2656 36.5387C40.7945 35.5231 40.6414 36.0773 40.9252 35.6974C40.9885 35.6128 41.0567 35.4511 41.0417 35.3459C40.9888 34.9762 40.6801 35.0744 40.4675 35.1732C40.3861 35.5342 40.4566 35.7421 40.1121 36.0201L40.0075 36.0848Z" fill="#FFB811"/>
<path fill-rule="evenodd" clip-rule="evenodd" d="M41.426 20.521C41.5127 20.6618 41.5929 20.6997 41.8075 20.7674L43.1338 21.2038C43.0401 21.4714 42.6156 22.0261 42.4406 22.2093C42.1083 22.5573 41.5089 22.2958 41.1382 22.6085C41.2351 22.7884 41.3269 22.7965 41.5009 22.9061C41.887 23.1489 41.6308 23.1136 41.8505 23.325C41.9309 23.4024 42.0886 23.4263 42.1916 23.5779C42.33 23.7815 42.2856 23.9213 42.5791 23.9108C42.7582 23.5094 42.5742 22.9617 42.8938 22.6611C43.0108 22.5508 43.2235 22.4181 43.3386 22.3251C43.5133 22.1837 43.6283 22.0536 43.8837 21.9992C44.0902 22.2432 44.2971 23.3194 44.4708 23.6579C45.0047 23.6822 44.9412 23.2066 44.8896 22.5586C44.8641 22.2392 44.7736 21.3906 44.85 21.0466C44.9391 20.6441 46.1534 19.997 45.9946 19.1291C45.2383 18.8356 44.4738 20.0582 44.2193 20.196C44.0067 20.3114 43.0837 20.2385 42.7748 20.2361C41.8204 20.2289 41.5797 20.0885 41.426 20.521Z" fill="#FFB811"/>
<path fill-rule="evenodd" clip-rule="evenodd" d="M41.6291 37.0252C41.5122 36.1751 42.2538 35.352 43.0323 35.2974C45.3387 35.1362 45.2966 38.3402 43.3637 38.4571C42.4012 38.5154 41.7415 37.8439 41.6291 37.0252ZM43.1664 40.0987C43.4528 40.0298 43.6396 39.727 43.8273 39.5147C44.3478 38.9263 45.125 38.1504 45.3287 37.3689C45.6317 36.2072 44.8425 34.7236 43.2317 34.7182C41.8599 34.7135 40.7735 35.9105 41.105 37.3331C41.2918 38.1344 42.7784 39.8086 43.1664 40.0987Z" fill="#FFB811"/>
<path fill-rule="evenodd" clip-rule="evenodd" d="M26.7887 23.9132C27.1518 25.9789 30.0228 25.7093 29.911 23.5838C29.8695 22.7958 28.9918 22.0523 28.1694 22.1708C27.3631 22.287 26.6553 23.1537 26.7887 23.9132Z" fill="#FFB811"/>
<path fill-rule="evenodd" clip-rule="evenodd" d="M55.8872 34.4144C55.8992 35.0093 55.8944 34.6499 56.0607 34.798C56.093 33.2422 56.1994 33.0796 55.4275 33.132L55.3653 32.7505C55.0575 32.7865 55.2105 32.8883 55.0391 33.1301C54.5827 33.0914 53.5554 33.0384 53.2097 33.1768C53.0965 32.92 53.2277 32.9234 53.0169 32.7362C52.8292 32.8181 52.8578 32.8833 52.8462 33.134C52.2687 33.0782 52.1975 33.1965 52.1979 33.7609C52.2005 37.882 51.6818 37.3983 54.2145 37.3549C54.1861 37.1959 54.1477 37.0208 54.0605 36.885C53.7786 36.871 53.4947 36.8746 53.2121 36.8766C52.466 36.882 52.432 36.9998 52.4409 36.2445C52.4466 35.7531 52.3787 34.6956 52.5174 34.3886L55.8872 34.4144Z" fill="#FFB811"/>
<path fill-rule="evenodd" clip-rule="evenodd" d="M26.5885 24.5624C26.6024 24.2484 26.5112 24.3352 26.4827 23.9567C24.2942 23.6945 24.3017 20.4335 26.57 20.353C26.5375 20.747 26.4395 21.1169 26.7273 21.194C26.8311 20.6235 26.8076 20.9072 26.7635 20.3488C27.8704 20.3907 28.2123 20.982 28.4829 21.834L29.0751 21.9933C29.0925 20.4071 27.4382 19.3439 26.0525 19.7311C23.466 20.4539 23.7108 24.492 26.5885 24.5624Z" fill="#FFB811"/>
<path fill-rule="evenodd" clip-rule="evenodd" d="M47.2557 27.6967L47.3096 28.8418L47.6479 28.8953C47.7083 29.1895 47.7078 29.3446 48.0563 29.3361C48.4471 29.3268 48.3325 29.151 48.4503 28.891L49.8203 28.8906C49.9498 29.0966 49.9459 29.4298 50.3931 29.3223C50.6511 29.2604 50.8529 28.7774 50.8528 28.6753C50.8486 26.7081 50.2162 27.5156 49.624 27.4029C49.5524 27.3891 49.5546 27.213 49.168 27.213C47.1383 27.213 47.2557 27.0695 47.2557 27.6967Z" fill="#FFB811"/>
<path fill-rule="evenodd" clip-rule="evenodd" d="M55.0914 36.019L55.6916 36.7283L55.9523 36.6853C56.0922 36.4439 55.7038 36.6143 56.3736 36.0139C56.595 35.8156 56.4141 35.9042 56.7098 35.8121C56.8199 36.0656 56.9974 36.2542 56.9568 36.6165C56.8512 37.561 55.7547 38.0378 55.019 37.434C54.0093 36.6054 54.8897 34.7613 56.4545 35.5507C56.4042 35.7891 56.2028 36.0656 55.9666 36.2045C55.544 36.4527 55.5463 36.058 55.0914 36.019ZM54.2559 36.96C54.7401 38.7233 57.6299 38.37 57.2865 36.1747C57.1556 35.3373 56.3797 34.8587 55.3611 35.022C54.6045 35.1434 54.003 36.0393 54.2559 36.96Z" fill="#FFB811"/>
<path fill-rule="evenodd" clip-rule="evenodd" d="M37.1256 26.7835C36.708 25.8041 36.454 26.3154 36.1861 26.3641C36.0318 26.2039 35.5254 25.4042 35.4856 25.0873C35.6056 25.0059 36.1379 24.9238 35.599 24.0957C35.3201 24.0647 35.1057 24.137 34.8967 24.2532C34.3306 24.5678 34.9837 25.5896 35.3156 26.1562C35.7222 26.8501 36.265 27.9673 37.0227 26.966C37.0922 26.874 37.076 26.9132 37.1256 26.7835Z" fill="#FFB811"/>
<path fill-rule="evenodd" clip-rule="evenodd" d="M43.0293 35.9608C42.4685 36.1061 42.1618 36.4601 42.2832 37.0687C42.3827 37.5676 42.8084 37.8708 43.4276 37.7903C43.6738 37.7583 43.85 37.6215 43.9824 37.452C44.4535 36.8489 43.971 35.7169 43.0293 35.9608Z" fill="#FFB811"/>
<path fill-rule="evenodd" clip-rule="evenodd" d="M11.23 32.3465C11.8406 32.0822 13.381 32.2497 13.9645 32.4076C17.8726 33.4652 19.5911 38.1419 17.1281 41.567C16.2216 42.8274 15.0269 43.4249 13.5814 43.8234C12.8184 44.0338 11.586 43.9089 10.8761 43.7223C9.47564 43.354 8.29633 42.4172 7.53852 41.2573C6.6829 39.9477 6.33051 38.0923 6.79635 36.6C7.0216 35.878 7.20373 35.2688 7.70472 34.6216C8.21714 33.9598 8.45366 33.7114 9.20936 33.1907C10.3806 32.3838 10.9684 32.4596 11.23 32.3465ZM6.9953 31.629C7.13986 32.7002 7.49705 32.4334 6.81678 33.1473C6.77276 33.1936 6.72121 33.2526 6.659 33.312L6.47192 33.469C6.06184 33.4337 5.90435 33.3199 5.42815 33.3525C5.2845 33.5036 4.93783 34.1511 4.85623 34.3688C4.94985 34.5712 5.18412 34.8543 5.30313 35.0118C5.5948 35.3976 5.43792 35.4022 5.32852 35.813C5.20365 36.2823 5.23401 36.2542 4.81461 36.3794C3.92126 36.6457 4.12021 36.5321 4 37.8262C4.19986 37.9243 4.68147 38.1625 4.84165 38.2868C5.0896 38.4791 5.08298 38.9839 5.04602 39.3918C4.80228 39.6712 4.52398 39.8446 4.25681 40.1094C4.2544 40.3065 4.51467 41.1187 4.59041 41.2634C5.5368 41.3806 5.69052 41.2314 6.02712 41.8574C6.31714 42.3972 6.13351 42.4753 5.75589 43.3164C6.00368 43.5286 6.20489 43.9387 6.53713 44.1605C6.95353 44.1578 7.34152 43.8586 7.64026 43.8903C7.83606 43.9112 8.31632 44.2862 8.47455 44.4245L8.49078 45.5891C8.69995 45.739 9.29907 45.9936 9.56925 46.0668C9.65596 45.9441 9.97002 45.6435 10.1152 45.5151C10.4733 45.1987 10.4733 45.35 10.8544 45.405C11.3669 45.4792 11.3562 45.4477 11.5294 45.8861C11.6357 46.1554 11.7025 46.3219 11.821 46.6032L12.9954 46.5921C13.2836 46.1455 13.2107 46.0227 13.4269 45.6217C13.5422 45.4078 14.2195 45.3039 14.4362 45.273L15.2786 46.0555C15.5208 46.0303 16.2515 45.6872 16.4186 45.5617C16.4344 44.663 16.3276 44.4805 16.6226 44.2559C16.6981 44.1983 16.7255 44.1857 16.8084 44.1196C17.5374 43.5386 17.8113 44.2877 18.2794 44.1639C18.5024 44.0269 18.8814 43.6105 19.0243 43.3711C19.0207 42.9771 18.7401 42.6854 18.6393 42.2621C18.7502 41.9626 18.9768 41.7895 19.0706 41.4274L20.1958 41.2998C20.3707 41.0872 20.5737 40.4793 20.5595 40.1094C20.4206 39.8994 20.0368 39.6763 19.8858 39.4776C19.7375 39.2823 19.8406 38.7628 19.8619 38.4176C21.0421 37.5643 20.881 38.279 20.7967 36.6697C20.2945 36.4225 20.3742 36.5198 19.9569 36.3606C19.3678 36.136 19.4493 35.224 19.465 35.1798C19.5421 34.9654 19.9773 34.5784 19.9866 34.3688C19.9444 34.1296 19.5525 33.5046 19.3884 33.3465C18.9861 33.3366 18.854 33.4785 18.3446 33.4586L17.6938 32.7143C17.6154 32.3481 17.8632 31.8066 17.7992 31.629L17.3861 31.2195C17.2233 31.0918 17.0516 30.995 16.9094 30.9048C15.7932 31.4891 16.1237 31.4997 15.4563 31.2063C15.1846 31.0868 15.2133 31.1858 15.0175 30.9915C14.8662 30.8073 14.9214 30.1517 14.7269 29.9613C14.5759 29.8481 13.7596 29.6492 13.5825 29.7426C13.4765 29.7985 13.0723 30.4402 12.9957 30.5865C11.5499 30.5844 12.1306 30.7748 11.2993 29.7491C11.0218 29.7205 10.7035 29.764 10.4665 29.8304C10.1951 29.9064 10.0536 29.9581 10.0059 30.2639C9.86468 31.1719 9.91728 30.9742 9.23115 31.3182C8.8935 31.4876 8.92054 31.4447 8.61415 31.2612C8.533 31.2127 8.0571 30.9449 8.01969 30.9398C7.78827 30.908 7.08546 31.5154 6.9953 31.629Z" fill="#FFB811"/>
<path fill-rule="evenodd" clip-rule="evenodd" d="M10.4257 35.1908C11.1533 35.1178 11.2986 35.4254 11.233 34.5699C9.99203 34.5316 9.71674 34.4411 9.71614 35.0864C9.71524 36.292 9.64056 40.176 9.75792 41.0879C10.2042 41.3759 11.3472 41.3013 11.9015 41.2378C11.9165 40.9634 11.8627 41.057 11.7559 40.6423C11.3284 40.5375 10.8661 40.6185 10.4147 40.5838L10.4257 35.1908Z" fill="#FFB811"/>
<path fill-rule="evenodd" clip-rule="evenodd" d="M13.4092 35.1766C14.402 35.1766 14.2345 35.053 14.2319 36.0649C14.2305 36.5905 14.1904 37.3259 14.2565 37.8262L14.9027 37.9375L14.9183 34.7601C14.7434 34.6369 14.8612 34.7772 14.7523 34.5775L13.4326 34.5593L13.4092 35.1766Z" fill="#FFB811"/>
<path fill-rule="evenodd" clip-rule="evenodd" d="M11.3284 34.8255C11.3284 35.7441 11.1405 35.5869 12.7346 35.5869C13.3806 35.5869 13.3045 35.5265 13.3045 34.8255C13.3045 34.1478 13.2216 34.2769 11.8866 34.2769C11.2953 34.2769 11.3284 34.2282 11.3284 34.8255Z" fill="#FFB811"/>
<path fill-rule="evenodd" clip-rule="evenodd" d="M12.7007 39.0565L13.5603 40.0725L13.9337 40.0107C14.1341 39.665 13.5778 39.9089 14.5373 39.0492C14.8544 38.7652 14.5952 38.8921 15.0186 38.7602C15.1764 39.1232 15.4307 39.3933 15.3725 39.9123C15.2212 41.2649 13.6507 41.9477 12.597 41.0831C11.1509 39.8964 12.4119 37.2551 14.653 38.3856C14.581 38.7271 14.2925 39.1233 13.9541 39.3222C13.349 39.6777 13.3521 39.1123 12.7007 39.0565ZM11.5041 40.4043C12.1976 42.9296 16.3365 42.4236 15.8448 39.2795C15.6571 38.0801 14.5459 37.3946 13.0871 37.6285C12.0035 37.8025 11.142 39.0857 11.5041 40.4043Z" fill="#FFB811"/>
</svg>
