<svg width="64" height="64" viewBox="0 0 64 64" fill="none" xmlns="http://www.w3.org/2000/svg">
<path fill-rule="evenodd" clip-rule="evenodd" d="M15.6591 20.1598C17.7361 20.0194 19.7812 19.8966 21.8484 19.7512C29.6244 19.2044 26.987 18.6167 30.5481 21.5701C31.4375 22.3076 33.987 24.8653 34.7643 25.3977C34.8209 28.6924 35.1102 32.1914 35.2959 35.5059C35.3733 36.8849 35.9286 44.8881 35.7397 45.5484L16.7953 46.5216L15.6591 20.1598ZM34.0372 15.8643C34.6628 16.0291 35.7241 16.6058 36.3618 16.9042L44.5866 20.6859C45.8768 21.2529 45.552 21.5345 46.428 24.0322C47.0276 25.7413 47.6067 27.4325 48.216 29.1777C48.4888 29.9594 47.8143 30.7502 47.4923 31.4521C45.7325 35.2907 43.6941 39.2722 41.9469 43.097C41.2312 44.6634 40.3736 46.257 39.7222 47.784L37.4779 46.7236L36.9781 37.3323L40.184 38.8147L40.6902 37.7374C39.9735 37.4328 37.3412 36.2505 36.8996 35.886L36.8131 34.1796L41.3322 36.2886L41.8876 35.2197L36.7471 32.7951L36.6314 30.86L42.591 33.6626L43.1036 32.7008C43.0667 32.6725 43.0338 32.6148 43.0238 32.6353L41.5023 31.8435C40.9292 31.5767 40.4307 31.328 39.8758 31.0513C38.9514 30.5901 37.3179 29.9635 36.5542 29.4173L36.4666 27.7044L43.7601 31.1483L44.0646 30.6766C44.2168 30.3798 44.1823 30.4759 44.2698 30.1538L36.4018 26.334C36.2842 24.8048 36.5205 24.9426 35.8666 24.3209C35.3443 23.8243 34.9157 23.4935 34.4754 23.0601C33.5686 22.1674 32.6853 21.3875 31.7872 20.5957L34.0372 15.8643ZM30.6154 19.3076C30.3433 19.235 29.5671 18.5473 29.3155 18.2999C28.7109 17.7058 28.8106 17.5433 27.5491 17.7405L14 18.6153C14 21.2129 14.1504 23.5588 14.2271 26.119L14.4622 29.6917C14.4957 30.3132 14.4099 31.0262 14.4784 31.6368L14.9226 40.8849C14.9159 41.6602 15.0234 41.9809 15.0422 42.6115C15.0613 43.252 14.9837 43.9151 15.07 44.5452L15.2692 48.269L23.6932 47.8082C24.4738 47.8166 24.7379 47.695 25.4187 47.6874L33.9641 47.2269C35.1304 47.1541 36.8291 48.2026 37.8846 48.7305C39.0071 49.2918 39.4983 49.6537 40.6539 49.6537L45.3447 39.6907C45.9539 38.4215 50 30.2029 50 29.6922L46.7857 20.0989C46.5403 19.6324 45.2553 19.2478 44.7685 19.0006C43.7299 18.4727 34.0459 14 33.7307 14C32.9562 14 33.0834 14.1189 32.5753 15.152C32.3436 15.6231 32.1768 16.0725 31.9232 16.5769C31.6032 17.2134 30.7502 18.729 30.6154 19.3076Z" fill="#FFB811"/>
<path fill-rule="evenodd" clip-rule="evenodd" d="M31.6364 31.7315L31.5917 30.6638C31.1426 30.5281 19.2885 31.1347 18.7805 31.3102L18.89 32.4145L31.6364 31.7315Z" fill="#FFB811"/>
<path fill-rule="evenodd" clip-rule="evenodd" d="M31.8013 34.6548L31.7435 33.4857L18.9282 34.156L19.0044 35.3296L31.8013 34.6548Z" fill="#FFB811"/>
<path fill-rule="evenodd" clip-rule="evenodd" d="M31.9419 37.4232L31.8896 36.2528L19.0647 36.9321L19.1483 38.0972L31.9419 37.4232Z" fill="#FFB811"/>
<path fill-rule="evenodd" clip-rule="evenodd" d="M18.7235 28.4734C18.5824 28.848 18.6684 29.1817 18.6872 29.6446L31.4578 28.9736L31.4509 27.8113L18.7235 28.4734Z" fill="#FFB811"/>
</svg>
