<svg width="64" height="64" viewBox="0 0 64 64" fill="none" xmlns="http://www.w3.org/2000/svg">
<path d="M57.5999 21.3334C57.2749 21.3347 56.9538 21.2617 56.6613 21.12L31.9999 8.53335L7.33859 21.0347C6.8124 21.2836 6.20887 21.3134 5.66076 21.1173C5.11266 20.9213 4.66488 20.5155 4.41593 19.9894C4.16698 19.4632 4.13725 18.8596 4.33329 18.3115C4.52933 17.7634 4.93507 17.3156 5.46126 17.0667L31.9999 3.92535L58.5386 17.0667C59.098 17.1974 59.5834 17.5432 59.8897 18.0292C60.196 18.5152 60.2986 19.1023 60.1751 19.6633C60.0517 20.2244 59.7122 20.7142 59.2302 21.0268C58.7482 21.3394 58.1625 21.4495 57.5999 21.3334ZM21.3333 42.6667H8.53326V55.4667H21.3333V42.6667ZM38.3999 42.6667H25.5999V55.4667H38.3999V42.6667ZM55.4666 42.6667H42.6666V55.4667H55.4666V42.6667ZM46.9333 25.6H34.1333V38.4H46.9333V25.6ZM29.8666 25.6H17.0666V38.4H29.8666V25.6Z" fill="#FFB811"/>
</svg>
