<svg width="64" height="64" viewBox="0 0 64 64" fill="none" xmlns="http://www.w3.org/2000/svg">
<path fill-rule="evenodd" clip-rule="evenodd" d="M43.9496 21.5368L43.921 18.3347C43.8665 18.0729 43.9207 18.2342 43.8228 18.0904C43.4525 17.8472 39.7173 17.9276 39.5638 18.0788C39.3594 18.2805 39.5892 19.4996 39.7185 19.8861C39.9664 20.6279 40.6961 20.0587 41.4151 20.3784C41.6807 20.6242 41.503 39.6881 41.5201 43.3282L41.4961 44.4526C41.4203 44.7883 41.5552 44.4876 41.3857 44.6915C41.0933 44.884 23.9854 44.9537 22.4627 44.7468C22.3043 43.8412 22.4218 26.0216 22.4223 23.1509C22.423 19.4962 22.0687 20.3791 24.1502 20.1846C24.335 19.4437 24.4342 18.9492 24.4049 18.0307C23.6587 18.0397 22.9082 18.027 22.1604 18.027L20.444 18.0578C20.412 18.0644 20.3718 18.0811 20.3466 18.0875C20.3218 18.0937 20.2714 18.1529 20.254 18.1247C19.8315 17.4432 20.0636 35.8892 20.0636 39.869C20.0636 40.3367 19.884 46.6827 20.2352 46.989C20.542 47.2568 38.9552 47.0638 42.5689 47.089C43.731 47.097 43.9435 47.282 43.957 46.2198C44.058 38.2262 43.9492 29.6026 43.9496 21.5368ZM39.5563 26.2493C39.6773 25.0392 39.2385 25.3629 38.0715 25.365C36.4148 25.3679 31.5045 25.2567 30.5244 25.4088C30.3585 26.5824 30.8543 26.2944 31.9605 26.2935C33.8137 26.2918 38.2412 26.3955 39.5563 26.2493ZM38.6535 38.8893C38.2281 38.894 37.8052 38.8957 37.3794 38.8957L32.3065 38.8953C31.5515 38.8955 30.3064 38.6335 30.4778 39.5231C30.5857 40.0841 31.6488 39.8871 32.6524 39.8868L39.0087 39.895C39.4145 39.8684 39.6792 39.8204 39.6064 39.2969C39.5332 38.7698 39.2477 38.8825 38.6535 38.8893ZM39.604 27.2543L31.73 27.1888C31.2146 27.1888 30.6449 27.0636 30.4877 27.4602C30.2285 28.1138 30.7643 28.2089 31.2587 28.215L39.1226 28.2228C39.791 28.1849 39.6511 27.9469 39.604 27.2543ZM30.4792 33.0428C31.4075 33.3038 38.0378 33.1499 39.521 33.1485L39.581 32.1691L31.9605 32.1397C30.7937 32.1397 30.4262 31.8485 30.4792 33.0428ZM39.5603 41.7036C39.6658 40.2934 39.2385 40.6906 37.8408 40.6912L32.3065 40.691C30.9411 40.6903 30.4547 40.304 30.5739 41.7401L39.5603 41.7036ZM30.6176 30.3389C30.4236 30.5291 30.366 31.0841 30.645 31.2566C30.8337 31.3732 39.2883 31.3805 39.4644 31.2173C39.6572 31.0389 39.6886 30.4286 39.3926 30.2645C39.3536 30.2429 30.9235 30.039 30.6176 30.3389ZM25.3191 24.5796C25.8219 24.4547 27.7204 24.2727 28.1079 24.5764C28.3734 24.8302 28.2322 27.0718 28.1377 27.1653C27.6775 27.3581 25.8662 27.3583 25.4046 27.1685C25.1547 26.5751 25.2882 25.348 25.3191 24.5796ZM24.425 28.1227L29.0771 28.1314L29.1114 23.5937L24.4457 23.5791L24.425 28.1227ZM25.5015 33.874C25.2642 33.4747 25.3793 32.7218 25.3725 32.2525C25.3612 31.4666 25.2637 31.3237 26.0675 31.2971C28.6133 31.2133 28.1627 31.3609 28.1613 32.49C28.1608 33.0065 28.2512 33.5102 28.0407 33.8897C27.6014 34.12 25.9224 34.1435 25.5015 33.874ZM24.4028 34.9491L29.1035 34.9541L29.1248 30.3769L24.4318 30.3482L24.4028 34.9491ZM28.0215 38.1586C28.323 38.5548 28.1724 40.5436 28.0407 40.6686C27.5356 40.9231 26.0112 40.8925 25.4992 40.6804C25.3384 40.3021 25.1527 38.496 25.5121 38.1464C25.6913 37.9719 27.6511 37.8773 28.0215 38.1586ZM24.453 41.7401L29.1237 41.717L29.1058 37.0533L24.4035 37.0656L24.453 41.7401ZM25.7409 20.2485L38.2933 20.2712C38.3293 19.5146 37.9757 18.6643 37.8852 17.9501C37.6413 16.0239 37.9665 15.9982 36.6877 16.0027L27.2248 16.0001C26.2426 15.9958 26.3914 16.0973 26.2222 16.9652C26.0647 17.7732 25.6976 19.3871 25.7409 20.2485Z" fill="#FFB811"/>
</svg>
