<svg width="64" height="64" viewBox="0 0 64 64" fill="none" xmlns="http://www.w3.org/2000/svg">
<path fill-rule="evenodd" clip-rule="evenodd" d="M8.38424 32.6033C9.62381 32.3419 12.5218 30.9048 13.6755 30.8497C14.9002 30.7912 15.6412 30.7751 16.6975 30.3239C18.2012 29.6817 19.2588 27.8377 19.8993 26.408L22.2951 21.7585C22.6957 21.101 23.63 20.2152 22.7615 19.2669C22.1895 19.2562 22.3034 19.4517 21.5714 20.1202C21.4222 20.2568 21.3162 20.3031 21.1661 20.435C20.6245 20.9111 18.4144 24.3013 16.8028 24.3062C16.8214 23.9279 17.1722 23.7449 17.591 23.4501C17.956 23.1934 18.2235 22.9835 18.5249 22.6869C19.083 22.1375 19.5966 21.6762 20.1193 20.9532C20.5329 20.3811 21.1541 19.8657 21.7545 19.2607C22.5197 18.4893 23.6075 18.591 23.4537 20.0056C24.6327 19.6867 24.4948 19.6408 25.9638 19.3636C26.8293 19.2001 27.7555 19.0597 28.5795 18.8454C29.7466 18.5419 29.7587 18.3004 30.2411 17.3674C30.881 16.1298 29.8309 16.1626 28.7975 16.0834C26.7597 15.9273 24.8875 15.9625 23.0205 16.5435C22.2195 16.7928 21.4308 17.0396 20.6228 17.2771C17.2003 18.283 16.9146 18.1611 15.2512 21.3739C13.7301 24.3117 13.5993 25.2633 11.1077 26.625C10.0514 27.2022 9.70794 27.0662 9.14537 27.7947C8.69765 28.3745 8.29912 28.9638 8.10563 29.896C7.93103 30.7375 7.94032 31.9421 8.38424 32.6033Z" fill="#FFB811"/>
<path fill-rule="evenodd" clip-rule="evenodd" d="M40.524 20.0117C40.5999 19.4198 40.4851 19.0788 40.9906 18.8549C41.8316 18.482 42.4369 19.5502 43.0326 20.0499C44.0069 20.8674 44.1569 21.4731 45.4489 22.66C45.9972 23.1638 46.2986 23.3509 46.8691 23.7843C47.0602 23.9294 47.1883 23.9917 47.2059 24.2977C46.1697 24.3285 44.5219 22.4408 44.062 21.9555C43.0691 20.9074 43.9218 21.3957 42.0916 19.8151C41.7554 19.5247 41.8778 19.2531 41.248 19.2657C40.9038 19.6402 40.7859 20.0068 41.0051 20.6418C41.1629 21.0989 41.7959 21.7511 42.0317 22.2304L44.6539 27.5622C44.8315 27.8971 45.1708 28.386 45.3911 28.655C46.6928 30.2447 47.3812 30.7028 50.2769 30.8439C51.6194 30.9093 54.1202 32.2909 55.6288 32.6009C56.0595 31.9466 56.0701 30.6791 55.889 29.8375C55.6944 28.9336 55.2734 28.313 54.8359 27.7589C54.3015 27.0825 53.941 27.1968 52.8664 26.595C49.9869 24.9827 50.542 24.3543 48.7399 21.3267C47.846 19.825 47.4856 18.6416 45.7913 18.0072C45.0651 17.7351 44.1715 17.5061 43.3901 17.2758C42.5771 17.0361 41.7962 16.7862 40.9899 16.5452C39.0507 15.9659 37.3405 15.9188 35.2155 16.0806C34.1549 16.1615 33.1522 16.1222 33.7658 17.3737C34.2245 18.3093 34.3054 18.5472 35.4345 18.8412C36.6749 19.1642 39.6515 19.5082 40.524 20.0117Z" fill="#FFB811"/>
<path fill-rule="evenodd" clip-rule="evenodd" d="M33.1159 28.6986C34.1317 28.7362 35.0075 28.9668 35.8972 29.3418C36.1863 29.4635 36.3829 29.5648 36.6524 29.6945C37.5802 30.1407 38.7106 31.0479 39.203 31.6438C39.5417 32.0536 39.8662 32.4249 40.19 32.94C43.9821 38.9706 39.6835 46.9176 32.4637 46.9417C27.5321 46.9582 23.5293 43.0141 23.3237 38.1922C23.1095 33.1717 27.0615 28.9559 31.7768 28.7005C31.8063 30.8633 31.7823 33.0219 31.7823 35.1877C31.7823 35.8002 31.645 37.8375 31.9122 38.2165C32.2193 38.6521 34.1714 38.4744 34.8781 38.4744C35.9658 38.4744 37.0533 38.4742 38.141 38.4744C38.6046 38.4745 39.3206 38.5795 39.6126 38.2906C39.9549 37.952 39.7915 37.3812 39.4483 37.2097C39.0443 37.0078 34.0546 37.1535 33.1304 37.118L33.1159 28.6986ZM32.013 27.3285C26.3753 27.5706 21.691 32.3406 21.9773 38.2562C22.2503 43.8945 26.9405 48.5254 32.9103 48.2795C40.3686 47.9723 45.2174 40.0777 41.8625 33.1648C41.5146 32.4477 40.5544 30.9961 39.98 30.4772L39.6166 30.1235C39.3497 29.8448 38.4864 29.2187 38.1384 28.9889C37.3807 28.4883 36.3647 28.0523 35.4575 27.7541C35.138 27.6491 34.745 27.5578 34.4093 27.4938C33.6216 27.3437 32.8281 27.2936 32.013 27.3285Z" fill="#FFB811"/>
<path fill-rule="evenodd" clip-rule="evenodd" d="M29.7094 23.3122L35.1829 23.3111L35.1901 24.6544L29.7292 24.6658L29.7094 23.3122ZM28.9048 21.9988C28.1448 22.1868 28.3673 23.1582 28.3671 24.486C28.3666 26.0186 28.3756 26.0133 29.9185 26.0131C30.7239 26.0131 35.6957 26.0683 36.0458 25.9871C36.7539 25.8228 36.5414 24.559 36.5422 23.4419C36.5434 21.8562 36.4895 21.965 34.9432 21.9651C34.1489 21.9651 29.2633 21.91 28.9048 21.9988Z" fill="#FFB811"/>
<path fill-rule="evenodd" clip-rule="evenodd" d="M25.0164 26.9419C24.7539 27.0618 24.4003 27.4125 24.1675 27.6076C23.8628 27.8633 23.6296 28.0676 23.3126 28.3189C23.0781 28.5046 22.6389 28.7739 22.6899 29.2312C22.7365 29.6489 23.1459 29.9563 23.6022 29.7906C23.8493 29.7008 24.9912 28.6541 25.2975 28.4141C25.6327 28.1517 25.9726 27.926 25.9523 27.4883C25.9323 27.0548 25.4614 26.7388 25.0164 26.9419Z" fill="#FFB811"/>
</svg>
