<svg width="64" height="64" viewBox="0 0 64 64" fill="none" xmlns="http://www.w3.org/2000/svg">
<path fill-rule="evenodd" clip-rule="evenodd" d="M34.9029 37.8838L35.7613 37.8916L35.6052 36.0802C35.4361 35.8552 35.2884 35.0631 35.1459 34.7251C33.7414 31.3894 31.7377 32.1572 31.6672 31.025C31.6283 30.3996 32.0638 30.336 32.5702 30.1023C33.7342 29.5647 33.8295 29.0694 34.5106 28.5386C34.7662 27.7873 35.1528 27.4544 35.4118 26.4638C35.604 25.7291 35.9 24.6707 35.6748 23.988L34.901 24.0723C34.6793 25.7302 34.888 26.4202 33.993 27.8442C32.1312 30.8062 28.3729 30.1054 27.4012 26.2173C27.2318 25.5398 27.2873 24.5974 27.1522 24.1276L26.3442 24.0714C26.2508 25.7384 26.8606 27.4689 27.6001 28.4807C29.352 30.8777 30.5184 29.6304 30.3581 31.3664C30.0524 31.5965 29.989 31.6468 29.6146 31.8157C29.2396 31.9848 29.0386 32.0851 28.747 32.2938C28.2243 32.6683 27.8071 33.1681 27.4644 33.6767C26.8149 34.641 26.1679 36.4851 26.364 37.9328L27.1965 37.8902C27.2859 36.1987 27.3378 35.3359 28.1075 34.1016C30.0234 31.0287 33.8257 32.1742 34.6642 35.7576C34.8493 36.5485 34.7693 37.2188 34.9029 37.8838ZM27.9773 37.89L34.0503 37.9214C33.8767 36.8644 32.257 36.0678 31.0461 36.0441C29.7373 36.0182 28.2517 36.9833 27.9773 37.89ZM24.1411 33.8155C23.962 34.2749 23.6532 34.282 23.4983 34.6774L25.5974 34.6984L25.6386 32.5522C25.0685 32.8123 25.2688 32.9144 24.8136 33.1347C23.5862 32.1971 23.1427 30.1933 24.3964 28.6165C24.8338 28.0662 25.0099 28.0745 25.5637 27.6905C25.554 27.0701 25.5799 26.7523 25.009 26.968C24.2619 27.2507 23.2613 28.3992 22.9471 29.3709C22.6864 30.1774 22.7234 31.238 22.9628 31.974C23.2322 32.8022 23.7142 33.2274 24.1411 33.8155ZM36.5455 29.1001C36.6385 28.7606 36.9274 28.5926 37.2069 28.4602C37.9268 29.4145 38.5376 29.9191 38.2725 31.571C38.0862 32.7332 37.2288 33.5504 36.3874 33.9154L36.5232 34.7254L36.9296 34.752L37.0599 34.6181C37.2324 34.4714 37.122 34.5564 37.264 34.4574C39.0036 33.2479 39.7054 31.3808 38.954 29.4727C38.6651 28.7392 38.1752 28.3276 37.8872 27.802C38.1014 27.1521 38.2794 27.5659 38.4223 26.9113L36.3526 26.9442C36.3071 27.3644 36.1546 29.0044 36.5455 29.1001ZM33.8321 26.5894L28.1878 26.5785C28.2624 27.7234 29.6325 29.1329 30.9389 29.1644C32.3197 29.198 33.8881 27.7989 33.8321 26.5894ZM28.5731 45.6955L28.8392 45.8158C28.8679 45.825 28.9008 45.8357 28.933 45.8446C28.9542 45.8503 29.3053 45.9134 29.3158 45.9149C32.8375 46.4253 36.9658 45.1938 39.7931 43.1217C46.2388 38.3983 47.9185 29.5854 43.6292 22.9057C42.737 21.5161 41.6422 20.2038 40.2493 19.1596C37.5256 17.1177 36.5687 17.2359 35.615 16.6839C34.7022 16.5269 34.0749 16.2489 33.0793 16.1065C32.1826 15.9783 31.0478 15.9964 30.0481 16.0084C23.3102 16.0639 17.1012 21.9854 16.1626 28.7466C15.8991 30.6443 15.9272 32.9429 16.4609 34.8051C16.6096 35.3247 16.7417 36.1325 17.0834 36.4332C17.116 37.1996 18.387 39.1697 18.8394 39.7917C20.2763 41.7661 22.3044 43.498 24.5346 44.5489C25.2695 44.8954 27.6589 45.8415 28.5731 45.6955Z" fill="#FFB811"/>
<path fill-rule="evenodd" clip-rule="evenodd" d="M25.4951 23.3472L25.719 23.5089C26.7605 23.5799 36.134 23.6803 36.4387 23.3916C36.7377 23.1426 36.675 22.4434 36.5064 22.1222C36.187 21.7289 31.7862 21.9342 31.0496 21.9342C29.9542 21.9342 26.255 21.754 25.5403 22.0653L25.4951 23.3472Z" fill="#FCFCFC"/>
<path fill-rule="evenodd" clip-rule="evenodd" d="M25.7755 39.9763C27.0307 40.1712 33.2196 39.9901 35.395 40.0156C35.9137 40.0216 36.5042 40.0978 36.6331 39.6628C36.7754 39.1827 36.6507 38.7747 36.4383 38.4238L25.7312 38.4342C25.3266 38.7582 25.1952 39.6802 25.7755 39.9763Z" fill="#FCFCFC"/>
<path fill-rule="evenodd" clip-rule="evenodd" d="M33.8318 26.5895L28.1875 26.5786C28.2621 27.7235 29.6323 29.1329 30.9386 29.1645C32.3195 29.1981 33.8878 27.799 33.8318 26.5895Z" fill="#FCFCFC"/>
<path fill-rule="evenodd" clip-rule="evenodd" d="M36.5456 29.1003C36.6386 28.7608 36.9275 28.5927 37.207 28.4604C37.9269 29.4147 38.5377 29.9193 38.2727 31.5712C38.0863 32.7333 37.2289 33.5506 36.3875 33.9156L36.5233 34.7256L36.9297 34.7522L37.06 34.6182C37.2325 34.4716 37.1221 34.5565 37.2641 34.4576C39.0037 33.2481 39.7055 31.3809 38.9541 29.4729C38.6653 28.7394 38.1753 28.3278 37.8873 27.8022C38.1015 27.1523 38.2795 27.5661 38.4224 26.9115L36.3527 26.9444C36.3072 27.3646 36.1547 29.0046 36.5456 29.1003Z" fill="#FCFCFC"/>
<path fill-rule="evenodd" clip-rule="evenodd" d="M24.1408 33.8154C23.9618 34.2749 23.6529 34.282 23.498 34.6773L25.5972 34.6983L25.6383 32.5521C25.0682 32.8122 25.2685 32.9144 24.8133 33.1347C23.5859 32.1971 23.1424 30.1933 24.3961 28.6165C24.8335 28.0662 25.0096 28.0745 25.5634 27.6905C25.5537 27.07 25.5796 26.7522 25.0088 26.968C24.2617 27.2506 23.261 28.3992 22.9468 29.3708C22.6861 30.1774 22.7231 31.238 22.9625 31.9739C23.2319 32.8022 23.7139 33.2274 24.1408 33.8154Z" fill="#FCFCFC"/>
<path fill-rule="evenodd" clip-rule="evenodd" d="M27.9773 37.8899L34.0502 37.9213C33.8767 36.8643 32.257 36.0677 31.0461 36.044C29.7373 36.0181 28.2517 36.9832 27.9773 37.8899Z" fill="#FCFCFC"/>
</svg>
