<svg width="64" height="64" viewBox="0 0 64 64" fill="none" xmlns="http://www.w3.org/2000/svg">
<path fill-rule="evenodd" clip-rule="evenodd" d="M8.0774 33.3115C8.82065 40.4726 15.1796 46.5182 23.2822 45.7328C30.3726 45.0457 36.551 38.6085 35.7522 30.5469C35.0404 23.3663 28.6899 17.3022 20.5674 18.065C13.4417 18.7338 7.23169 25.1663 8.0774 33.3115ZM19.561 32.429C19.6876 32.9483 24.6425 37.7999 25.5684 38.6666C26.0554 39.1223 26.4929 39.9065 27.5674 39.5033C28.3005 39.2278 28.7904 38.4026 28.412 37.4443C27.9928 36.3822 22.6779 32.266 22.532 31.0087C22.3681 29.5974 23.5922 22.2675 20.2869 24.0732C19.575 24.4621 19.5022 25.2289 19.5042 26.2445C19.5064 27.4167 19.3575 31.5933 19.561 32.429Z" fill="#FFB811"/>
<path fill-rule="evenodd" clip-rule="evenodd" d="M41.8915 25.3792C43.3277 25.2733 46.8217 25.2347 48.127 25.4281C49.9541 25.699 51.1152 26.7414 51.4318 28.4922C52.5229 34.5254 45.6145 33.3619 44.189 33.5504L44.2533 34.4863L49.1328 34.5189L49.1249 36.3722L44.2225 36.4172L44.1234 38.5503L41.8877 38.5359L41.7805 36.3962L40.1309 36.3168L40.1501 34.5266L41.8215 34.4711L41.8336 33.5137L40.1285 33.4432L40.1978 31.6188L41.8515 31.5598L41.8915 25.3792ZM34.7829 21.6959C39.4609 27.7375 39.5312 36.2084 34.7046 42.202C34.3045 42.6988 34.1018 42.7605 33.8447 43.372C35.1429 44.7406 38.5863 45.7162 40.9793 45.7777C48.6703 45.975 55.4104 40.1313 55.4107 31.9009C55.4109 23.5871 48.5792 17.7453 40.8052 18.0267C38.7572 18.1009 35.0233 19.1587 33.8447 20.4275L34.7829 21.6959Z" fill="#FFB811"/>
<path fill-rule="evenodd" clip-rule="evenodd" d="M47.4025 31.4333C49.9579 31.3351 49.5015 27.4411 47.8359 27.4863L44.3188 27.3141L44.292 31.4844L47.4025 31.4333Z" fill="#FFB811"/>
</svg>
