<svg width="64" height="64" viewBox="0 0 64 64" fill="none" xmlns="http://www.w3.org/2000/svg">
<path fill-rule="evenodd" clip-rule="evenodd" d="M42.2956 52.6526H43.1012C43.2384 52.5446 43.435 52.538 43.729 52.3708C43.9344 52.254 44.1086 52.1049 44.2302 51.9747C45.1068 51.0337 44.8224 50.1519 44.5108 49.2313C43.0678 44.9691 42.992 40.3713 44.1846 36.0014C44.244 35.7842 44.249 35.5516 44.4696 35.4578C44.989 35.237 45.196 35.2172 45.6386 34.828C47.1062 33.5368 46.742 31.2458 46.9696 30.816V28.4697C46.9414 28.3931 46.5906 24.2577 45.4006 22.1367C44.1122 19.8405 41.413 19.3804 40.3084 20.6692C39.4234 21.7018 38.9872 24.1231 38.5562 24.8915C37.4848 26.8009 35.727 28.394 33.4808 28.7326C33.2054 28.774 32.8828 28.7786 32.6348 28.8494C32.6134 28.9396 32.594 28.8188 32.6512 28.9258C32.7552 29.1206 32.5298 28.7889 32.6874 28.9767C32.7274 29.0245 32.779 29.0571 32.8276 29.1017C32.9068 29.1743 32.9926 29.275 33.0504 29.3558C33.8116 30.4218 32.9726 31.3385 32.8654 31.6231L34.5804 31.3696C34.4644 31.7626 33.709 32.6082 33.612 32.9342C33.9442 33.2452 36.9786 35.2335 37.0876 35.2597C36.9988 34.5403 37.1522 34.7187 36.6488 34.3749C36.2218 34.0831 34.4904 32.9384 34.352 32.7756C34.382 32.6832 37.2328 28.4206 37.4012 28.2704C37.6014 28.3206 38.4752 28.9593 38.7558 29.1451C38.9772 29.2919 39.8776 29.9526 40.1176 30.0242L40.3072 29.546C40.1742 29.4604 39.5096 29.0804 39.4924 28.9454C39.491 28.935 39.4868 28.9158 39.4854 28.9026L39.4908 28.4062C39.5218 28.267 40.1456 27.518 40.2558 27.396C40.526 27.796 40.3256 28.4988 40.573 28.9522C40.8572 28.5288 41.0916 27.0302 41.093 26.379C41.0958 25.195 40.8864 24.8311 40.5036 23.9151C39.754 22.1215 42.1826 20.6748 43.4056 22.1712C44.269 23.2272 44.6364 25.5821 44.4866 27.2799C44.3358 28.9907 43.6982 30.6611 42.9986 31.9297L43.12 32.1942C42.8976 32.576 42.6434 32.9231 42.3518 33.3401C41.7562 34.1919 40.629 35.9716 40.0972 36.6656C39.846 36.6122 39.7374 36.3943 39.5416 36.3483C39.4448 36.3255 38.9354 36.4642 38.8616 36.5056L39.4948 36.9519C39.513 37.3829 39.262 38.5238 39.2008 39.0692C39.118 39.8096 39.0604 40.5758 39.0366 41.3396C38.9894 42.849 39.0778 44.4966 39.2922 45.936C39.4636 47.0864 40.2094 50.7248 40.8512 51.6838C41.3822 52.4774 41.9536 52.4482 42.2956 52.6526Z" fill="#FFB811"/>
<path fill-rule="evenodd" clip-rule="evenodd" d="M18 28.1329V30.7705C18.2306 31.2359 17.9252 32.4807 18.608 33.8587C18.931 34.5107 19.3786 34.9691 20.003 35.2705C20.1994 35.3655 20.4614 35.4243 20.6432 35.5353C20.8384 35.9957 21.0776 37.1361 21.1768 37.6805C21.9364 41.8471 21.7406 45.4151 20.4038 49.3945C20.0578 50.4243 19.9526 51.4581 21.046 52.2485C21.4782 52.5609 21.7554 52.5453 21.9432 52.6525H22.7484C23.1286 52.3525 23.8626 52.5783 24.4698 50.8723C25.4412 48.1437 25.9676 45.0241 25.9436 42.0267C25.917 38.7063 25.4124 36.1911 24.4184 33.1749C24.149 32.3573 24.3302 30.8293 24.3356 29.9209C24.2036 29.7569 23.8342 29.4581 23.6796 29.3163C22.1536 27.9157 20.9258 25.5531 20.833 23.4185C20.7654 21.8603 22.4312 20.9853 23.6068 21.9365C24.2474 22.4547 24.135 22.8071 24.3256 23.7033C24.431 24.1991 24.7318 25.2031 25.031 25.4543C25.137 25.1781 25.4376 23.5545 25.4512 23.2093C25.4828 22.4127 25.2898 21.6097 24.93 21.0341C24.1206 19.7385 22.472 19.6803 21.1068 20.4979C19.9378 21.1979 19.4082 22.2455 18.9466 23.7277C18.598 24.8481 18.345 25.8173 18.1708 26.9761C18.138 27.1935 18.085 27.9825 18 28.1329Z" fill="#FFB811"/>
<path fill-rule="evenodd" clip-rule="evenodd" d="M27.0223 12H25.9177C25.7315 12.1014 25.4359 12.1148 25.2149 12.1876C23.6199 12.7134 22.4423 14.2762 22.5395 16.0722C22.6503 18.1154 24.3151 19.7418 26.3529 19.7764C28.3899 19.8112 30.1627 18.2064 30.2921 16.2294C30.3959 14.6448 29.6521 13.289 28.4021 12.5434C28.2023 12.4244 27.9791 12.3154 27.7555 12.2324C27.6491 12.193 27.5251 12.1574 27.3827 12.1222C27.3387 12.1114 27.2633 12.0964 27.2193 12.0832L27.0223 12Z" fill="#FFB811"/>
<path fill-rule="evenodd" clip-rule="evenodd" d="M39.096 12H37.9844C37.7614 12.1442 36.5474 12.1992 35.6176 13.3342C33.385 16.06 35.3602 19.7452 38.5102 19.777C41.8368 19.8106 43.6444 15.8788 41.4948 13.3514C41.0906 12.8762 40.4798 12.434 39.8374 12.215C39.637 12.1468 39.278 12.109 39.096 12Z" fill="#FFB811"/>
<path fill-rule="evenodd" clip-rule="evenodd" d="M22.1239 21.9382C20.5581 22.5112 21.2729 24.6542 21.7279 25.825C22.7245 28.389 24.6677 30.1904 27.2577 31.0678C28.1499 31.37 31.0949 31.972 32.0931 31.6414C33.1597 31.2878 33.3897 29.8244 32.3971 29.1644C31.5631 28.61 29.3905 29.3292 26.9079 27.8842C25.4809 27.0536 24.4723 25.7004 24.0605 24.0188C23.9693 23.6466 23.9547 23.1936 23.8533 22.8542C23.6877 22.3002 22.9447 21.638 22.1239 21.9382Z" fill="#FFB811"/>
<path fill-rule="evenodd" clip-rule="evenodd" d="M41.7991 21.9188C41.1563 22.0592 40.5771 22.6694 40.7205 23.496C40.8159 24.0462 41.1449 24.1018 41.3695 25.5988C41.7815 28.3434 39.9437 31.4664 38.2465 33.2512C37.8795 33.637 37.2003 34.195 37.3907 35.0708C37.5285 35.7044 38.1969 36.2712 39.0175 36.1234C39.6015 36.0182 40.1797 35.2792 40.4879 34.9092C42.7795 32.158 44.6913 28.8478 44.0951 25.0336C43.8889 23.714 43.3535 21.5796 41.7991 21.9188Z" fill="#FFB811"/>
<path fill-rule="evenodd" clip-rule="evenodd" d="M35.9136 32.6335L36.1746 32.7785C36.3948 32.5329 36.4836 32.3571 36.6456 32.1245C36.9318 31.7135 37.9578 30.2879 38.0358 30.0795L37.7862 29.8767C37.4996 30.2055 37.1054 30.8351 36.8466 31.2153C36.665 31.4821 35.9802 32.3387 35.9136 32.6335Z" fill="#FFB811"/>
<path fill-rule="evenodd" clip-rule="evenodd" d="M37.1335 33.4668C37.2153 33.5138 37.2617 33.542 37.3483 33.5834C37.5163 33.4954 39.2167 31.0072 39.2377 30.8726L38.9954 30.7124C38.8078 30.8856 37.8289 32.3442 37.5639 32.7274C37.4185 32.938 37.1509 33.1972 37.1335 33.4668Z" fill="#FFB811"/>
</svg>
