<svg width="64" height="64" viewBox="0 0 64 64" fill="none" xmlns="http://www.w3.org/2000/svg">
<path fill-rule="evenodd" clip-rule="evenodd" d="M23.5083 21.7437C28.1645 18.4178 34.5307 21.1288 35.622 26.58C36.2462 29.6977 34.8161 31.2883 34.1092 32.826C34.2117 33.0779 34.7536 33.6291 34.9542 33.7256C35.6614 34.0653 35.3785 33.6024 36.1567 34.2884C36.775 34.8334 37.2771 35.2723 37.9836 35.8756C42.1765 39.4562 42.3093 39.0479 40.6548 40.6506C40.0423 41.244 39.9502 41.6864 39.0148 41.6242L34.2338 36.0869C33.5701 35.3507 34.0529 35.4754 33.7029 34.8588C33.5904 34.6606 33.1247 34.2201 32.83 34.0969C32.0601 34.4274 31.5584 34.9157 30.5938 35.2659C26.1053 36.8959 21.1824 33.9741 20.4152 29.3486C19.9215 26.3705 21.0912 23.4702 23.5083 21.7437ZM33.6528 47.7727C36.9355 47.4236 40.3489 45.4588 42.3319 43.7133C49.9982 36.9658 50.0084 24.4777 41.6256 17.713C36.5535 13.6198 28.7585 12.5539 22.4171 16.3306C18.1334 18.882 15.5654 22.4777 14.42 27.3168C14.2178 28.1697 14.0658 29.0627 14.021 30.0472C13.8618 33.5432 14.6078 36.5116 16.3214 39.6156C18.3173 43.2301 22.1189 46.023 25.9883 47.2484C27.7549 47.8075 31.8065 48.3817 33.6528 47.7727Z" fill="#FFB811"/>
<path fill-rule="evenodd" clip-rule="evenodd" d="M28.3339 22.8557C29.4927 22.4641 32.3094 24.0799 33.0409 26.5579C33.7918 29.1019 32.3887 31.7238 30.7425 32.5128C30.9015 32.1134 33.1302 29.9465 32.0901 26.7555C31.7828 25.8131 31.4092 25.1061 30.6892 24.3674C29.8544 23.5109 29.3829 23.3804 28.3339 22.8557ZM26.9032 21.6907C24.9658 22.1607 23.9586 22.7434 22.923 24.0629C19.4113 28.5369 23.1723 35.425 29.257 34.3161C32.3574 33.7509 35.0302 30.6096 34.3459 26.8841C34.0356 25.195 33.1293 23.7834 31.9139 22.878C30.6986 21.9727 28.7278 21.2481 26.9032 21.6907Z" fill="#FFB811"/>
</svg>
