<svg width="64" height="64" viewBox="0 0 64 64" fill="none" xmlns="http://www.w3.org/2000/svg">
<path fill-rule="evenodd" clip-rule="evenodd" d="M24.2483 33.5301C24.2483 37.1457 24.1449 42.4104 24.2703 45.831L31.9715 47.246L38.5393 47.4803C38.7851 47.4805 41.2905 47.2344 41.4771 47.1646C42.3033 46.8552 42.8695 46.4963 43.4355 45.8667C44.3575 44.8411 44.2203 45.2116 44.3041 43.4736C44.3525 42.4698 45.2585 41.9958 45.7087 41.4664C46.6011 40.4172 45.8747 39.9544 45.6431 38.986C45.3073 37.5812 46.0975 37.4482 46.5899 36.6608C47.1623 35.7454 46.1635 34.9309 45.9255 34.3369C45.4289 33.0971 46.7099 33.0693 46.7075 31.7801C46.7053 30.6143 45.7433 29.4076 44.9361 28.886C43.7361 28.1104 38.3443 28.496 36.1583 28.3704C35.7307 25.914 38.4799 23.9324 38.4823 20.5156C38.4829 19.6216 38.4423 18.9908 38.1299 18.1948C37.7871 17.321 36.8741 16.2884 35.8061 16.0948C33.4593 15.6696 34.3185 16.6985 33.8937 18.6985C33.5457 20.3373 33.4417 22.1124 31.9897 23.4812C30.0403 25.3188 30.3243 24.1841 29.1773 27.2603C28.6871 28.5753 26.8273 31.9212 25.5945 32.6306C24.7163 33.1358 24.2483 32.2737 24.2483 33.5301Z" fill="#FFB811"/>
<path fill-rule="evenodd" clip-rule="evenodd" d="M16 33.8579L16.0006 45.1224C16.0002 47.1764 17.167 46.727 20.6036 46.7274C21.8196 46.7274 22.3384 46.5136 22.3384 45.2318V33.7486C22.3384 31.831 20.8456 32.2452 19.182 32.245C18.5024 32.245 17.4574 32.1178 16.8566 32.3122C16.1402 32.544 16 32.9977 16 33.8579Z" fill="#FFB811"/>
</svg>
