<svg width="64" height="64" viewBox="0 0 64 64" fill="none" xmlns="http://www.w3.org/2000/svg">
<path d="M32 64C27.6667 64 23.5208 63.1562 19.5625 61.4688C15.6042 59.7812 12.1979 57.5104 9.34375 54.6562C6.48958 51.8021 4.21875 48.3958 2.53125 44.4375C0.84375 40.4792 0 36.3333 0 32C0 27.6667 0.84375 23.5208 2.53125 19.5625C4.21875 15.6042 6.48958 12.1979 9.34375 9.34375C12.1979 6.48958 15.6042 4.21875 19.5625 2.53125C23.5208 0.84375 27.6667 0 32 0C36.3333 0 40.4792 0.84375 44.4375 2.53125C48.3958 4.21875 51.8021 6.48958 54.6562 9.34375C57.5104 12.1979 59.7812 15.6042 61.4688 19.5625C63.1562 23.5208 64 27.6667 64 32C64 36.3333 63.1562 40.4792 61.4688 44.4375C59.7812 48.3958 57.5104 51.8021 54.6562 54.6562C51.8021 57.5104 48.3958 59.7812 44.4375 61.4688C40.4792 63.1562 36.3333 64 32 64ZM18.3125 18.3125L15.3125 15.6875C14.8542 15.6875 14.3125 15.7396 13.6875 15.8438C13.0625 15.9479 12.5 16 12 16C11.9583 15.9583 11.5833 15.1875 10.875 13.6875C6.29167 18.9792 4 25.0833 4 32C4 32.125 4.01042 32.2917 4.03125 32.5C4.05208 32.7083 4.0625 32.8542 4.0625 32.9375C4.3125 33.1875 4.92708 33.6562 5.90625 34.3438C6.88542 35.0312 7.58333 35.5833 8 36H12C12.125 35.9167 12.2396 35.8542 12.3438 35.8125C12.4479 35.7708 12.5625 35.7292 12.6875 35.6875C12.2708 35.2292 11.6562 34.5521 10.8438 33.6562C10.0312 32.7604 9.41667 32.1042 9 31.6875C9.16667 30.7292 9.39583 29.2812 9.6875 27.3438C9.97917 25.4062 10.1875 23.9583 10.3125 23C13.8958 21.5 16.5625 20.3958 18.3125 19.6875V18.3125ZM30.875 8.125C30.2917 7.875 29.75 7.64583 29.25 7.4375C29.125 7.10417 29.0417 6.85417 29 6.6875C28.75 7.47917 28.3542 8.66667 27.8125 10.25C27.9792 10.2917 28.2188 10.3333 28.5312 10.375C28.8438 10.4167 29.0833 10.4583 29.25 10.5H30.875V8.125ZM30.625 37.5625C30.4167 37.7708 30.2708 37.9375 30.1875 38.0625C29.6875 38.9375 28.9792 40.2708 28.0625 42.0625C27.1458 43.8542 26.4583 45.1875 26 46.0625C26.5833 46.9375 27.4688 48.2708 28.6562 50.0625C29.8438 51.8542 30.7292 53.1875 31.3125 54.0625C36.7292 54.3958 40.8333 54.6458 43.625 54.8125C43.7083 55.8542 44.0417 56.5625 44.625 56.9375C48.4167 55.0208 51.625 52.3646 54.25 48.9688C56.875 45.5729 58.6042 41.7708 59.4375 37.5625C58.6458 37.3958 57.7812 37.1667 56.8438 36.875C55.9062 36.5833 55.2292 36.3854 54.8125 36.2812C54.3958 36.1771 53.5729 36.0729 52.3438 35.9688C51.1146 35.8646 49.8333 35.9375 48.5 36.1875C48 36.2292 47.6771 35.9062 47.5312 35.2188C47.3854 34.5312 47.3125 33.8229 47.3125 33.0938C47.3125 32.3646 47.2292 31.9792 47.0625 31.9375C46.1458 31.7708 44.2917 31.9271 41.5 32.4062C38.7083 32.8854 36.8542 33.0417 35.9375 32.875C35.3958 33.375 33.625 34.9375 30.625 37.5625ZM34.3125 6.25C34.1875 7.08333 33.9688 8.33333 33.6562 10C33.3438 11.6667 33.1042 12.9375 32.9375 13.8125C33.1458 13.7708 33.4896 13.7188 33.9688 13.6562C34.4479 13.5938 34.7917 13.5625 35 13.5625C34.875 13.4792 34.7292 13.3958 34.5625 13.3125C35.1875 13.1042 35.6458 12.9375 35.9375 12.8125C35.2292 9.89583 34.6875 7.70833 34.3125 6.25ZM41.5625 5.6875C41.4792 6.14583 41.4375 6.79167 41.4375 7.625C41.4375 8.45833 41.2292 9.5625 40.8125 10.9375C40.8542 11.0208 40.9375 11.1042 41.0625 11.1875C41.8958 11.1042 43.2917 10.9583 45.25 10.75C45.25 9.875 45.6875 9 46.5625 8.125C44.9792 7.16667 43.3125 6.35417 41.5625 5.6875ZM49.375 10.0625C49.2917 10.2292 49.1458 10.4583 48.9375 10.75C49.7292 10.875 50.25 10.9792 50.5 11.0625C50 10.6042 49.625 10.2708 49.375 10.0625ZM51.0625 11.5625C50.9375 11.8125 50.7396 12.1875 50.4688 12.6875C50.1979 13.1875 50 13.5625 49.875 13.8125C48.6667 13.8542 47.0417 13.9167 45 14L44.75 11.875C44.6667 11.9167 44.5208 11.9688 44.3125 12.0312C44.1042 12.0938 43.9375 12.125 43.8125 12.125V15.1875C42.9375 15.2708 41.5938 15.3958 39.7812 15.5625C37.9688 15.7292 36.625 15.8542 35.75 15.9375C35.4583 16.3542 35.1458 16.8125 34.8125 17.3125C35.9375 19.7292 36.7917 21.5417 37.375 22.75C36.5417 22.9583 34.8333 23.4167 32.25 24.125V26.25C32.25 26.3333 32.2812 26.4583 32.3438 26.625C32.4062 26.7917 32.4583 26.9167 32.5 27C33.2083 27.3333 34.3125 27.8333 35.8125 28.5C37.3125 29.1667 38.4375 29.6875 39.1875 30.0625L40.5625 28.375C40.5208 27.9583 40.4167 27.3021 40.25 26.4062C40.0833 25.5104 39.9583 24.8333 39.875 24.375C40 24.2917 40.1979 24.1771 40.4688 24.0312C40.7396 23.8854 40.9375 23.7708 41.0625 23.6875C42.1875 23.3542 43.0417 23.125 43.625 23C44.1667 23.875 44.9271 25.125 45.9062 26.75C46.8854 28.375 47.5 29.3958 47.75 29.8125C48.125 29.4792 48.6458 28.9688 49.3125 28.2812C49.9792 27.5938 50.4792 27.0833 50.8125 26.75C48.5625 25.1667 47.0833 24.1458 46.375 23.6875C46.4167 23.3542 46.5 22.875 46.625 22.25H48.9375C51.2708 24.25 53.6667 26.2917 56.125 28.375C56.1667 28.375 56.2083 28.3438 56.25 28.2812C56.2917 28.2188 56.3333 28.1875 56.375 28.1875C56.2083 27.8542 55.6667 26.8333 54.75 25.125C54.75 25.0833 54.8125 25 54.9375 24.875L55.1875 24.625H57.75C57.7917 24.5833 58.1458 24.3958 58.8125 24.0625C57.3958 19.2292 54.8125 15.0625 51.0625 11.5625Z" fill="#FFB811"/>
</svg>
