<svg width="64" height="64" viewBox="0 0 64 64" fill="none" xmlns="http://www.w3.org/2000/svg">
<path d="M21.3333 49.3387C22.152 49.872 23.1973 50.032 24.1786 49.6934L30.9413 47.3894C31.6277 47.1553 32.3723 47.1553 33.0586 47.3894L39.8213 49.6934C40.8026 50.0294 41.848 49.872 42.6666 49.3387V59.7227L32 56.1014L21.3333 59.7227V49.3387ZM31.1386 43.0187L25.64 44.8934C25.0244 45.103 24.3534 45.0804 23.7533 44.83C23.1532 44.5795 22.6652 44.1184 22.3813 43.5334L19.7013 38.0267C19.4551 37.5179 19.0535 37.1004 18.5546 36.8347L13.2213 34.008C12.6724 33.7161 12.2428 33.2417 12.0066 32.6666C11.7705 32.0916 11.7427 31.4521 11.928 30.8587L13.8213 24.7974C13.9828 24.2799 13.9828 23.7255 13.8213 23.208L11.928 17.1467C11.7422 16.5526 11.77 15.9123 12.0067 15.3366C12.2434 14.761 12.674 14.2862 13.224 13.9947L18.5546 11.168C19.0531 10.903 19.4546 10.4865 19.7013 9.97869L22.3813 4.46402C22.6657 3.87947 23.1538 3.41892 23.7539 3.16897C24.354 2.91901 25.0247 2.89687 25.64 3.10669L31.1386 4.98135C31.697 5.17193 32.3029 5.17193 32.8613 4.98135L38.36 3.10669C38.9755 2.89706 39.6465 2.9196 40.2466 3.17006C40.8468 3.42053 41.3347 3.88165 41.6186 4.46669L44.2986 9.97602C44.5449 10.4848 44.9464 10.9023 45.4453 11.168L50.7786 13.9947C51.3275 14.2866 51.7571 14.7611 51.9933 15.3361C52.2294 15.9111 52.2573 16.5506 52.072 17.144L50.1786 23.2054C50.0171 23.7228 50.0171 24.2772 50.1786 24.7947L52.072 30.856C52.2578 31.4501 52.2299 32.0904 51.9932 32.6661C51.7565 33.2417 51.3259 33.7165 50.776 34.008L45.4453 36.8347C44.9468 37.0998 44.5453 37.5162 44.2986 38.024L41.6186 43.536C41.3342 44.1206 40.8461 44.5811 40.246 44.8311C39.646 45.081 38.9752 45.1032 38.36 44.8934L32.8613 43.0187C32.3029 42.8281 31.697 42.8281 31.1386 43.0187ZM32 16C31.2927 16 30.6144 16.281 30.1143 16.7811C29.6142 17.2812 29.3333 17.9594 29.3333 18.6667V29.3334C29.3333 30.0406 29.6142 30.7189 30.1143 31.219C30.6144 31.7191 31.2927 32 32 32C32.7072 32 33.3855 31.7191 33.8856 31.219C34.3857 30.7189 34.6666 30.0406 34.6666 29.3334V18.6667C34.6666 17.9594 34.3857 17.2812 33.8856 16.7811C33.3855 16.281 32.7072 16 32 16Z" fill="#FFB811"/>
</svg>
