<svg width="64" height="64" viewBox="0 0 64 64" fill="none" xmlns="http://www.w3.org/2000/svg">
<path d="M32 26.6667C36.4183 26.6667 40 23.0849 40 18.6667C40 14.2484 36.4183 10.6667 32 10.6667C27.5817 10.6667 24 14.2484 24 18.6667C24 23.0849 27.5817 26.6667 32 26.6667Z" stroke="#FFB811" stroke-width="5.33333" stroke-linecap="round" stroke-linejoin="round"/>
<path d="M45.3335 50.6667C49.7518 50.6667 53.3335 47.0849 53.3335 42.6667C53.3335 38.2484 49.7518 34.6667 45.3335 34.6667C40.9152 34.6667 37.3335 38.2484 37.3335 42.6667C37.3335 47.0849 40.9152 50.6667 45.3335 50.6667Z" stroke="#FFB811" stroke-width="5.33333" stroke-linecap="round" stroke-linejoin="round"/>
<path d="M18.6667 50.6667C23.085 50.6667 26.6667 47.0849 26.6667 42.6667C26.6667 38.2484 23.085 34.6667 18.6667 34.6667C14.2485 34.6667 10.6667 38.2484 10.6667 42.6667C10.6667 47.0849 14.2485 50.6667 18.6667 50.6667Z" stroke="#FFB811" stroke-width="5.33333" stroke-linecap="round" stroke-linejoin="round"/>
</svg>
