<svg width="64" height="64" viewBox="0 0 64 64" fill="none" xmlns="http://www.w3.org/2000/svg">
<path d="M39.344 26.6667C41.92 26.6667 44.0107 28.7573 44.0107 31.3333V40H44V42.6667H20V34.6667H20.0053V31.3333C20.0053 28.7573 22.0933 26.6667 24.672 26.6667H39.344Z" fill="#FFB811"/>
<path d="M58.6667 31.3333C58.6667 30.0956 58.175 28.9087 57.2998 28.0335C56.4247 27.1583 55.2377 26.6667 54 26.6667H45C46.048 27.9333 46.6773 29.56 46.6773 31.3333V34.6667H46.6667V42.6667H56.6667C57.1971 42.6667 57.7058 42.4559 58.0809 42.0809C58.456 41.7058 58.6667 41.1971 58.6667 40.6667V31.3333Z" fill="#FFB811"/>
<path d="M17.3333 40H17.3386V31.3333L17.3626 30.7467C17.4826 29.2 18.0826 27.792 19.0159 26.6667H9.99992L9.61592 26.6827C8.44872 26.779 7.36042 27.3108 6.56707 28.1723C5.77371 29.0338 5.3333 30.1622 5.33325 31.3333V40.6667C5.33325 41.7707 6.22925 42.6667 7.33325 42.6667H17.3333V40Z" fill="#FFB811"/>
<path d="M32 8C34.1217 8 36.1566 8.84285 37.6569 10.3431C39.1571 11.8434 40 13.8783 40 16C40 18.1217 39.1571 20.1566 37.6569 21.6569C36.1566 23.1571 34.1217 24 32 24C29.8783 24 27.8434 23.1571 26.3431 21.6569C24.8429 20.1566 24 18.1217 24 16C24 13.8783 24.8429 11.8434 26.3431 10.3431C27.8434 8.84285 29.8783 8 32 8Z" fill="#FFB811"/>
<path d="M49.3332 10.6667C51.1013 10.6667 52.797 11.369 54.0472 12.6193C55.2975 13.8695 55.9998 15.5652 55.9998 17.3333C55.9998 19.1014 55.2975 20.7971 54.0472 22.0474C52.797 23.2976 51.1013 24 49.3332 24C47.5651 24 45.8694 23.2976 44.6191 22.0474C43.3689 20.7971 42.6665 19.1014 42.6665 17.3333C42.6665 15.5652 43.3689 13.8695 44.6191 12.6193C45.8694 11.369 47.5651 10.6667 49.3332 10.6667Z" fill="#FFB811"/>
<path d="M14.6667 10.6667C16.4348 10.6667 18.1305 11.369 19.3807 12.6193C20.631 13.8695 21.3333 15.5652 21.3333 17.3333C21.3333 19.1014 20.631 20.7971 19.3807 22.0474C18.1305 23.2976 16.4348 24 14.6667 24C12.8986 24 11.2029 23.2976 9.95262 22.0474C8.70238 20.7971 8 19.1014 8 17.3333C8 15.5652 8.70238 13.8695 9.95262 12.6193C11.2029 11.369 12.8986 10.6667 14.6667 10.6667Z" fill="#FFB811"/>
<path d="M5.33325 47.3333C5.33325 46.8029 5.54397 46.2942 5.91904 45.9191C6.29411 45.5441 6.80282 45.3333 7.33325 45.3333H56.6666C57.197 45.3333 57.7057 45.5441 58.0808 45.9191C58.4559 46.2942 58.6666 46.8029 58.6666 47.3333V48.6667C58.6666 51.3188 57.613 53.8624 55.7377 55.7377C53.8623 57.6131 51.3187 58.6667 48.6666 58.6667H15.3333C12.6811 58.6667 10.1375 57.6131 8.26218 55.7377C6.38682 53.8624 5.33325 51.3188 5.33325 48.6667V47.3333Z" fill="#FFB811"/>
</svg>
