<svg width="64" height="64" viewBox="0 0 64 64" fill="none" xmlns="http://www.w3.org/2000/svg">
<path fill-rule="evenodd" clip-rule="evenodd" d="M22.827 21.4245C24.9237 22.2346 24.8439 22.2029 25.9467 22.6317C26.5301 22.8584 26.3545 22.671 26.564 23.3232L26.6742 23.3884C26.701 23.4004 26.7825 23.4264 26.8249 23.4429C26.9578 23.4938 27.0314 23.5341 27.1663 23.5742L27.4342 23.1425C27.2509 22.7783 27.2658 22.8967 27.6135 22.3097C28.2027 21.315 27.8839 21.321 29.2678 22.1135C29.396 22.1869 29.5055 22.2275 29.432 22.4401C29.3818 22.585 29.1079 23.0161 29.0127 23.175C28.9285 23.3155 28.8832 23.4089 28.7993 23.5409C28.6636 23.7543 28.6527 23.7065 28.4174 23.6867L28.188 24.0873C28.1997 24.0982 28.2104 24.0996 28.2138 24.1127C28.2171 24.1258 28.2299 24.1304 28.2344 24.1345L28.5738 24.3735C29.605 25.1232 30.1399 25.6727 30.8699 26.7761C33.3777 30.5656 32.3902 35.0565 28.9316 37.8507C28.6614 38.069 28.3291 38.2965 27.9985 38.4837C27.6185 38.6985 27.2934 38.8273 26.9303 39.0158C27.0969 39.8277 26.9644 40.7416 26.3432 41.3128C26.3662 41.4124 26.3236 41.3618 26.3778 41.4096C27.7491 41.6512 28.665 43.3562 27.9397 44.7751C27.8308 44.9886 27.7267 45.0805 27.6294 45.229L27.6597 45.2645C28.0663 45.1793 28.7189 44.9075 29.1603 44.7576C29.6577 44.5887 30.1718 44.4229 30.6698 44.248C33.3059 43.3229 35.8968 42.604 38.6774 42.16C39.2732 42.0648 39.9196 42.0159 40.4911 41.9213C40.4968 41.9101 40.5025 41.8806 40.5042 41.8863L40.5329 30.0263C40.4999 29.9033 40.4608 29.9491 40.15 29.8632C37.9933 29.2664 36.3146 28.2854 35.0093 26.4311C33.8851 24.8342 33.352 22.7288 32.2052 21.2372C30.3337 18.8033 27.8398 18.63 24.9352 18.2437C23.6053 18.067 21.9762 17.6174 21.3253 18.7032C20.999 19.2474 21.0992 20.0501 21.4099 20.5299C21.7656 21.0792 22.1099 21.1412 22.827 21.4245Z" fill="#FFB811"/>
<path fill-rule="evenodd" clip-rule="evenodd" d="M40.8152 42.8642L50 42.8698L49.9941 29.2643L40.8308 29.2622L40.8152 42.8642Z" fill="#FFB811"/>
<path fill-rule="evenodd" clip-rule="evenodd" d="M21.196 34.0524C20.735 34.142 15.2265 35.3265 14.8221 35.4889C14.0305 35.8071 13.2503 36.8326 13.6331 38.0357C13.9095 38.9047 14.8136 39.7014 16.0327 39.458C17.0819 39.2484 18.1584 38.98 19.2011 38.7559C19.7227 38.6437 20.2635 38.5262 20.7852 38.405C21.2499 38.297 21.9742 38.1883 22.3809 38.0219C24.6865 37.079 23.688 33.5684 21.196 34.0524Z" fill="#FFB811"/>
<path fill-rule="evenodd" clip-rule="evenodd" d="M31.161 27.8882C30.9552 27.4444 30.7421 27.0725 30.4914 26.7017C30.3664 26.5167 30.2417 26.3502 30.1061 26.1789C29.4408 25.338 28.4966 24.5723 27.5497 24.0773C23.8373 22.1362 19.4522 23.356 17.1184 26.6976C16.7618 27.2081 16.0613 28.5181 15.9702 29.2685L17.2328 29.2755C17.6594 28.0424 18.0525 27.3544 18.9051 26.4649C19.2705 26.0838 19.6384 25.7532 20.1503 25.4423C20.6308 25.1501 21.1018 24.906 21.694 24.7183C23.766 24.0615 26.1693 24.4211 27.9014 25.7477C28.5801 26.2675 29.0922 26.8086 29.5515 27.5176C30.594 29.128 30.9159 31.1247 30.4209 33.0321C30.1688 34.003 29.5095 35.2456 28.7967 35.9438C28.3659 36.366 28.0997 36.6283 27.566 36.9789C26.8778 37.4313 26.6685 37.4313 26.0577 37.735L26.4838 38.1689C26.6212 38.3254 26.6941 38.5248 26.8365 38.7227C27.8315 38.521 29.5147 37.0902 30.1627 36.2375C31.9557 33.8772 32.4228 30.6056 31.161 27.8882Z" fill="#FFB811"/>
<path fill-rule="evenodd" clip-rule="evenodd" d="M24.0042 37.7125C23.7965 37.7068 20.0978 38.9059 19.5579 39.0713C18.4056 39.4238 17.2905 39.5971 16.8605 40.7444C16.4266 41.9022 17.0506 43.1567 18.2364 43.4931C19.0572 43.7259 19.8631 43.3396 20.5905 43.1157C21.2213 42.9215 24.7619 41.7574 25.0716 41.7344L25.1191 41.7052C25.1439 41.6932 25.1784 41.6769 25.2018 41.668C25.7397 41.4621 25.7043 41.5227 26.1973 41.0527C26.8482 40.4319 26.9458 39.2419 26.2871 38.3675C25.7864 37.7025 24.9 37.4763 24.1147 37.6881L24.0042 37.7125Z" fill="#FFB811"/>
<path fill-rule="evenodd" clip-rule="evenodd" d="M12.1421 30.8957C11.8294 31.7405 12.0676 32.446 12.5187 33.007C13.0705 33.6928 13.8374 33.7203 14.5937 33.7201C15.5279 33.72 16.4623 33.7201 17.3968 33.7201C18.45 33.7201 18.9692 33.7965 19.6682 33.2059C20.9125 32.1542 20.46 30.1678 18.9897 29.6696C18.4166 29.4755 16.9734 29.5553 16.2837 29.5553C15.3691 29.5553 14.3938 29.4894 13.5166 29.6317C12.9308 29.8784 12.3463 30.2762 12.1421 30.8957Z" fill="#FFB811"/>
<path fill-rule="evenodd" clip-rule="evenodd" d="M20.2901 23.3422L20.1839 23.1441C20.365 22.7386 20.3591 22.9538 20.0223 22.3309C19.4752 21.3193 19.6228 21.3826 18.733 21.8811C18.5512 21.9829 18.0944 22.1455 18.1602 22.4155L18.7817 23.5283C18.8879 23.7142 18.9299 23.742 19.169 23.6959L19.4473 24.1376C19.6155 24.0838 20.2403 23.7367 20.4384 23.612L20.3478 23.421L20.2901 23.3422Z" fill="#FFB811"/>
<path fill-rule="evenodd" clip-rule="evenodd" d="M23.6406 30.4747C22.5322 30.7557 23.0144 32.2747 24.0076 32.0232C24.3804 31.9288 24.6965 31.525 24.5816 31.0497C24.4917 30.6777 24.0876 30.3616 23.6406 30.4747Z" fill="#FFB811"/>
<path fill-rule="evenodd" clip-rule="evenodd" d="M22.2148 21.7095L22.2193 21.9621C22.2327 22.0883 22.2123 22.0639 22.2762 22.104L22.2811 22.2162C22.3708 22.3395 22.3132 22.2833 22.4123 22.3421C22.5029 22.5636 22.7528 22.6649 23.1011 22.6735C23.116 22.7502 23.1153 22.8727 23.1677 22.9593L24.4723 22.8878L24.511 22.6694C24.704 22.6719 24.8434 22.6357 24.9682 22.5579L22.9666 21.7779C22.6034 21.6505 22.2601 21.3582 22.2148 21.7095Z" fill="#FFB811"/>
<path fill-rule="evenodd" clip-rule="evenodd" d="M16.5141 34.7773L17.7675 34.5187L17.5167 33.9949L16.2134 33.9979L16.5141 34.7773Z" fill="#FFB811"/>
<path fill-rule="evenodd" clip-rule="evenodd" d="M18.2712 28.2957L19.6178 29.069L19.8482 28.7072L18.4747 27.9287C18.3712 28.0319 18.3128 28.1772 18.2712 28.2957Z" fill="#FFB811"/>
<path fill-rule="evenodd" clip-rule="evenodd" d="M20.4907 25.8968C20.5867 26.2039 21.1278 26.9258 21.2551 27.2782L21.6182 27.0583C21.4232 26.6109 21.0687 26.1347 20.8492 25.708L20.4907 25.8968Z" fill="#FFB811"/>
<path fill-rule="evenodd" clip-rule="evenodd" d="M25.9839 27.0542L26.1419 27.1759C26.2083 27.2158 26.2661 27.2449 26.3547 27.2768C26.5112 26.8899 27.014 26.2 27.1164 25.8988C27.025 25.842 26.8932 25.7533 26.7543 25.7307L25.9839 27.0542Z" fill="#FFB811"/>
<path fill-rule="evenodd" clip-rule="evenodd" d="M27.7905 33.7776L29.1481 34.5791L29.3334 34.2298C29.2496 34.1366 28.176 33.5112 27.9908 33.4343C27.8977 33.5424 27.8341 33.625 27.7905 33.7776Z" fill="#FFB811"/>
<path fill-rule="evenodd" clip-rule="evenodd" d="M27.7734 28.6868L27.9769 29.0681L29.3394 28.2944L29.1463 27.9309C28.943 28.0098 28.6719 28.1882 28.4638 28.3141C28.3134 28.4054 27.9168 28.644 27.7734 28.6868Z" fill="#FFB811"/>
<path fill-rule="evenodd" clip-rule="evenodd" d="M25.9927 35.4265L26.756 36.7849L27.1163 36.5898C26.9774 36.2402 26.5233 35.5902 26.345 35.2224C26.2684 35.2499 26.237 35.2617 26.1715 35.2966C26.1597 35.3031 26.1025 35.337 26.0924 35.344L25.9927 35.4265Z" fill="#FFB811"/>
<path fill-rule="evenodd" clip-rule="evenodd" d="M23.6095 26.5394L23.9869 26.5405L23.9866 24.9668L23.6013 24.9699L23.6095 26.5394Z" fill="#FFB811"/>
<path fill-rule="evenodd" clip-rule="evenodd" d="M30.0958 31.4239L30.0934 31.0667L28.5229 31.0542L28.5161 31.4445L30.0958 31.4239Z" fill="#FFB811"/>
<path fill-rule="evenodd" clip-rule="evenodd" d="M23.9515 37.3915C24.0272 37.188 24.0258 36.4481 23.9462 36.2834C23.9303 36.8611 23.608 37.156 23.5872 37.4953L23.9515 37.3915Z" fill="#FFB811"/>
<path fill-rule="evenodd" clip-rule="evenodd" d="M30.0956 31.424L28.5159 31.4446L28.5227 31.0543L30.0932 31.0668C30.037 31.0265 30.1505 31.0163 29.8052 31.0204L28.5044 31.0281L28.4861 31.457L29.9695 31.4773C30.1994 31.471 30.0252 31.4795 30.0956 31.424Z" fill="#FFB811"/>
<path fill-rule="evenodd" clip-rule="evenodd" d="M23.6013 24.9699L23.9866 24.9667L23.9869 26.5404L23.6095 26.5393L23.6013 24.9699ZM23.5767 26.5571L24.0216 26.5638L24.0271 24.9667L23.5816 24.9438L23.5767 26.5571Z" fill="#FFB811"/>
<path fill-rule="evenodd" clip-rule="evenodd" d="M30.7509 32.3275C30.7389 32.5682 30.7696 32.653 31.0297 32.5707C31.1962 32.2655 30.9243 32.196 30.7509 32.3275Z" fill="#FFB811"/>
<path fill-rule="evenodd" clip-rule="evenodd" d="M23.946 36.2833C24.0256 36.4479 24.027 37.1879 23.9512 37.3914C24.0862 37.3451 24.0273 37.001 24.0273 36.7043C24.0275 36.4527 24.0308 36.2017 24.0314 35.95C23.9285 35.9907 23.9351 35.9321 23.946 36.2833Z" fill="#FFB811"/>
<path fill-rule="evenodd" clip-rule="evenodd" d="M31.2887 32.1824L31.3479 32.0463C31.3336 31.8894 31.3513 31.9851 31.2579 31.8979C31.2116 32.087 31.1965 32.0435 31.2887 32.1824Z" fill="#FFB811"/>
<path fill-rule="evenodd" clip-rule="evenodd" d="M27.6599 45.2645L27.6296 45.229C27.5562 45.2797 27.5677 45.1482 27.571 45.3215C27.75 45.3144 27.5912 45.3314 27.6599 45.2645Z" fill="#FFB811"/>
<path fill-rule="evenodd" clip-rule="evenodd" d="M26.3779 41.4095C26.3237 41.3617 26.3663 41.4123 26.3433 41.3127C26.2761 41.3127 26.2921 41.2957 26.294 41.3625L26.3779 41.4095Z" fill="#FFB811"/>
<path fill-rule="evenodd" clip-rule="evenodd" d="M25.1692 41.8438C24.9615 41.8494 22.8312 42.6779 22.3009 42.872C21.1693 43.286 20.0652 43.5192 19.6978 44.6878C19.3269 45.8674 20.0174 47.0865 21.2197 47.3586C22.0517 47.5468 22.8357 47.1176 23.55 46.8547C24.1694 46.6269 26.1437 45.8421 26.4518 45.8025L26.4976 45.7708C26.5217 45.7573 26.5553 45.7395 26.5781 45.7293C27.1043 45.4945 27.0721 45.557 27.5392 45.0611C28.1555 44.4062 28.1888 43.2126 27.4841 42.3748C26.9484 41.7381 26.051 41.5597 25.2784 41.8135L25.1692 41.8438Z" fill="#FFB811"/>
</svg>
