<svg width="64" height="64" viewBox="0 0 64 64" fill="none" xmlns="http://www.w3.org/2000/svg">
<path fill-rule="evenodd" clip-rule="evenodd" d="M35.7178 29.0743V40.171C35.7178 40.7885 36.0197 40.6241 37.1131 40.6241L49.2441 40.6276C50.1942 40.6322 49.9633 40.5566 49.9811 39.6078C49.9928 38.9726 49.9629 38.3559 49.9675 37.7259C49.9745 36.7338 50.0504 28.8872 49.9183 28.4793C49.882 28.3677 49.6665 27.9931 49.5697 27.8988C49.5021 27.833 49.1186 27.5771 48.9991 27.5294C48.5036 27.3314 39.6653 27.4587 37.8652 27.4505C37.4201 27.4482 36.7228 27.4054 36.2528 27.7452C35.9764 27.945 35.7178 28.6299 35.7178 29.0743Z" fill="#FFB811"/>
<path fill-rule="evenodd" clip-rule="evenodd" d="M8.74881 46.453C9.38924 46.5024 10.0712 46.4781 10.7182 46.4853C11.2532 46.4912 11.3328 46.575 11.3827 46.1068C11.405 45.898 11.374 45.3974 11.3735 45.155C11.3696 43.4042 11.3069 34.6233 11.4015 33.6148C12.2542 33.4711 23.3072 33.5968 25.4742 33.5697C25.8208 33.5654 26.1645 33.5673 26.5106 33.5675L27.2193 33.63C27.2363 33.6349 27.2746 33.6815 27.2864 33.6609C27.6318 33.0553 27.4161 45.5486 27.4377 46.4309L30.091 46.3957L30.0704 32.9507C29.9659 32.491 29.6303 32.4113 29.2909 32.2115L19.9138 26.7412C19.5364 26.5159 19.3768 26.3477 18.9504 26.6921C18.2447 27.2624 17.105 27.7276 16.1847 28.3391C15.9036 28.5256 15.4812 28.7184 15.2071 28.8726L9.61717 32.1884C8.90245 32.5274 8.77358 32.6952 8.77316 32.6943C8.7642 32.6769 8.73426 32.725 8.70264 32.7418L8.74881 46.453Z" fill="#FFB811"/>
<path fill-rule="evenodd" clip-rule="evenodd" d="M12.3007 35.1868L12.2976 37.6351C12.3582 38.1825 12.4862 38.0858 13.6253 38.0858C14.3007 38.0858 26.2233 38.1993 26.4032 38.0079C26.5321 37.871 26.5896 34.8397 26.3905 34.645C26.059 34.4044 25.1213 34.5455 24.6279 34.5455L12.8628 34.5346C12.2632 34.5425 12.3007 34.6043 12.3007 35.1868Z" fill="#FFB811"/>
<path fill-rule="evenodd" clip-rule="evenodd" d="M12.3728 43.0588C12.188 43.5356 12.3027 44.6689 12.3006 45.2492C12.296 46.4682 12.0334 46.5057 13.2478 46.4818C15.281 46.4415 25.5358 46.5885 26.4689 46.4337C26.5298 45.8755 26.4919 45.2523 26.495 44.6849C26.5047 42.8826 26.6405 42.9995 25.5709 43.0151C23.0978 43.0509 13.0014 42.8886 12.3728 43.0588Z" fill="#FFB811"/>
<path fill-rule="evenodd" clip-rule="evenodd" d="M12.3481 42.265L26.4434 42.2742L26.4534 38.8434L12.3884 38.8401L12.3481 42.265Z" fill="#FFB811"/>
<path fill-rule="evenodd" clip-rule="evenodd" d="M6.11816 31.0571C6.1253 31.4171 6.26494 31.5492 6.50813 31.9423C6.57669 32.053 6.53961 32.274 6.9598 32.2841C7.30835 32.2922 10.8964 30.1016 11.4916 29.7644L13.856 28.4544C14.1923 28.2637 14.3504 28.2235 14.6263 28.0092C15.2658 27.5122 19.0059 25.3806 19.3627 25.374C19.9091 25.3641 22.5555 27.1177 23.3277 27.5465C23.6691 27.7362 23.8388 27.7941 24.132 27.9734L29.5397 31.1117C30.1305 31.4097 31.5465 32.3201 31.9632 32.4333C33.0298 30.9611 32.8801 31.1836 30.424 29.7707C29.8193 29.4227 29.2907 29.1112 28.656 28.7884L23.0572 25.5556C21.7519 24.8146 21.5248 24.5695 20.0278 23.7912C19.0686 23.2925 19.3151 23.5333 18.2416 24.0849L11.3293 28.0889C11.0532 28.276 10.7498 28.3993 10.4787 28.5525L6.11816 31.0571Z" fill="#FFB811"/>
<path fill-rule="evenodd" clip-rule="evenodd" d="M52.7029 32.0635C53.406 31.9394 55.9301 31.9735 56.5444 32.1339C57.8005 32.4616 59.4476 33.8187 59.8414 34.7403C60.4492 36.1629 60.4309 38.7656 60.2449 40.2623C59.5768 40.3721 53.1991 40.3731 52.6573 40.2382L52.7029 32.0635ZM53.699 44.3599C53.9183 44.1639 54.6681 42.8696 55.9146 42.7862C57.0573 42.7096 57.8756 42.9817 58.5697 43.9147C59.3764 44.9984 58.6684 44.2675 59.3097 45.6132C59.779 45.62 60.2476 45.6101 60.7169 45.6151C61.3839 45.6221 61.8624 45.7416 61.8036 45.4544C61.9876 45.2473 61.866 45.522 61.9402 45.1524L61.9468 43.9324C61.9459 42.1638 62.1785 35.6297 61.6765 34.5163L60.8239 32.9192L59.598 31.6977C59.4083 31.5231 59.3711 31.5176 59.1563 31.3788C59.09 31.3362 58.9912 31.2672 58.9303 31.2323C57.4236 30.3731 56.0539 30.3844 54.416 30.3654C53.4151 30.3536 52.0961 30.3303 51.1189 30.3984C50.8229 31.4459 51.0329 32.8754 51.0037 34.0582C50.9719 35.329 50.9987 36.6385 51.0066 37.9139C51.0148 39.1928 50.9995 40.4861 50.9995 41.7695L50.9992 44.5915C50.9882 45.5834 50.7115 45.8597 53.3817 45.6027C53.7418 45.1067 53.6022 45.0927 53.699 44.3599Z" fill="#FFB811"/>
<path fill-rule="evenodd" clip-rule="evenodd" d="M37.2556 45.4881C37.3267 44.9984 37.3 44.0774 38.1124 43.5222C39.3021 42.7091 39.8623 42.484 41.2072 43.1104C41.7277 43.3529 41.7218 43.2335 42.0695 43.6832C42.5639 44.3223 42.7256 44.5877 42.8919 45.6069L48.3974 45.6126C50.1988 45.6094 49.9694 45.8791 49.9694 44.2145C49.9694 41.1117 50.1914 41.6016 48.6796 41.5987C46.5024 41.5945 36.2967 41.4859 35.7989 41.6804C35.6377 42.0758 35.6409 45.1417 35.8111 45.5178C36.2419 45.73 36.815 45.6108 37.2556 45.4881Z" fill="#FFB811"/>
<path fill-rule="evenodd" clip-rule="evenodd" d="M54.9608 33.0814C54.4019 33.2146 54.6135 32.9466 54.1849 33.3571C51.9211 35.5256 54.6043 38.2737 56.7267 36.8486C57.0427 36.6366 57.022 36.5792 57.2211 36.2938C57.3486 36.1109 57.2433 36.3514 57.4076 36.0005C57.9792 34.7795 57.1669 32.5559 54.9608 33.0814Z" fill="#FFB811"/>
<path fill-rule="evenodd" clip-rule="evenodd" d="M58.1229 46.0954C58.2313 45.8732 58.2459 45.55 58.1479 45.2669L58.0945 45.1353C58.0865 45.1133 58.0766 45.0888 58.0689 45.0664C57.5531 43.5895 55.8069 43.2944 54.7899 44.4922L54.5208 44.9765C53.9298 46.1575 55.0821 47.24 55.7489 47.3775C57.1427 47.6648 57.7171 46.9275 58.1229 46.0954Z" fill="#FFB811"/>
<path fill-rule="evenodd" clip-rule="evenodd" d="M41.805 46.0015C42.5089 44.1095 39.0977 42.4612 38.2428 45.1505C38.0426 45.7806 38.2274 46.2009 38.5077 46.5802C38.6389 46.7578 38.7525 46.9645 38.9361 47.0914C39.0315 47.1575 39.4741 47.3694 39.5736 47.3909C40.9302 47.6855 41.4627 46.9215 41.805 46.0015Z" fill="#FFB811"/>
<path fill-rule="evenodd" clip-rule="evenodd" d="M56.9058 39.3601C56.9065 38.7723 56.8494 38.4139 56.4978 38.0907C55.9057 37.5463 54.687 37.3823 54.0148 38.0764C53.6099 38.4948 53.5955 38.581 53.6325 39.3541L56.9058 39.3601Z" fill="#FFB811"/>
<path fill-rule="evenodd" clip-rule="evenodd" d="M7.40732 26.8145C4.42094 26.8145 2 24.3936 2 21.4073C2 18.4209 4.42094 16 7.40732 16C8.68132 16 9.85219 16.4409 10.7764 17.178C7.86277 17.2613 5.52647 19.6492 5.52647 22.5828C5.52647 24.295 6.32264 25.8213 7.56459 26.8121C7.5124 26.8135 7.45993 26.8145 7.40732 26.8145Z" fill="#FFB811"/>
</svg>
