<svg width="64" height="64" viewBox="0 0 64 64" fill="none" xmlns="http://www.w3.org/2000/svg">
<path fill-rule="evenodd" clip-rule="evenodd" d="M2 30.8129C2 35.2043 2.95437 37.9781 5.90796 40.9146C9.14458 44.1326 12.0315 44.8227 16.4158 44.8227C17.7123 44.8227 18.1962 44.505 19.2583 44.4167C19.1857 43.5445 19.0556 43.1581 19.0556 41.9799C15.9219 42.7101 14.065 43.0624 10.7312 41.5734C6.93436 39.8774 4.23331 35.8481 4.23331 31.422C4.23331 22.2676 15.567 15.8003 23.6787 23.956C24.8377 25.1213 25.8182 27.0206 26.2266 28.7177C26.4746 29.7491 26.0212 29.985 27.9747 30.0667C28.5156 30.0895 28.7314 30.3375 28.7749 29.6265C28.9093 27.4357 26.5371 23.5859 24.6915 21.7249C20.8069 17.8073 14.6889 16.9439 9.57864 19.3056C5.56336 21.1613 2 25.7381 2 30.8129Z" fill="#FFB811"/>
<path fill-rule="evenodd" clip-rule="evenodd" d="M26.365 33.4524H25.3498V33.2495C25.5002 33.2495 25.8024 33.2348 25.9413 33.2671C26.3335 33.3587 26.1546 33.3189 26.365 33.4524ZM26.365 33.4524C26.9134 33.4069 26.9174 33.3572 27.3802 33.2495C27.3752 33.2454 26.9819 32.8503 26.9742 32.8433C27.7992 32.8433 27.6278 32.7755 28.1924 33.0465C27.807 33.5722 28.2364 33.3244 27.4598 33.5621C26.4278 33.8778 26.3659 33.4529 26.365 33.4524ZM26.9742 32.8433L24.7351 32.7078C24.9021 32.2507 25.2348 31.9698 25.7956 31.8891C26.3133 31.8146 26.5399 32.0311 27.3802 32.0311L25.5528 32.6403C25.9604 32.6403 26.5811 32.5938 26.9742 32.8433ZM19.8677 32.8433C19.8677 33.598 21.2811 34.1469 21.9863 34.3796C24.9227 35.3483 32.6594 34.9482 32.6594 32.8433C32.6594 30.0286 19.8677 29.8533 19.8677 32.8433Z" fill="#FFB811"/>
<path fill-rule="evenodd" clip-rule="evenodd" d="M27.3801 42.5894C20.2379 42.5894 21.7466 41.5444 19.6646 41.3711C19.6646 43.5774 19.6441 43.9405 21.2553 44.6534C23.1733 45.502 25.0086 45.432 27.1771 45.432C29.6968 45.432 31.1474 44.8199 32.6593 43.8076V41.168C31.3675 42.0327 29.5256 42.5894 27.3801 42.5894Z" fill="#FFB811"/>
<path fill-rule="evenodd" clip-rule="evenodd" d="M19.6646 38.3253C19.6646 40.5176 19.949 40.7206 21.9188 41.3503C24.6792 42.2325 28.1788 42.1875 30.9169 41.2527C32.8792 40.5831 32.6592 40.1338 32.6592 37.7161C29.3908 39.4455 24.093 39.6888 20.6706 38.0962C20.2309 37.8916 19.6646 37.4088 19.6646 38.3253Z" fill="#FFB811"/>
<path fill-rule="evenodd" clip-rule="evenodd" d="M32.6592 34.2644C32.1471 34.4012 31.9793 34.5774 31.3877 34.8202C30.8129 35.0563 30.4085 35.1447 29.8059 35.2687C27.1494 35.8152 25.3609 35.8118 22.7211 35.2687C22.1208 35.1452 21.7111 35.0583 21.1397 34.8196C19.8407 34.2772 20.6297 34.3449 19.6646 34.2644C19.6646 36.6373 19.6916 36.9771 21.4889 37.7191C23.9331 38.7281 27.9688 38.74 30.713 37.8002C32.9084 37.0485 32.6592 36.8828 32.6592 34.2644Z" fill="#FFB811"/>
<path fill-rule="evenodd" clip-rule="evenodd" d="M14.1823 24.1126V31.0158C10.9123 31.0158 8.90332 30.5019 8.90332 32.0311C8.90332 32.5486 9.34232 33.2494 9.91854 33.2494H15.6037C16.2601 33.2494 16.6188 32.5123 16.6188 31.8281V24.5186C16.6188 22.4377 14.1823 22.9737 14.1823 24.1126Z" fill="#FFB811"/>
<path fill-rule="evenodd" clip-rule="evenodd" d="M41.2693 33.4524H40.2541V33.2495C40.4044 33.2495 40.7066 33.2348 40.8454 33.2671C41.2377 33.3587 41.0588 33.3189 41.2693 33.4524ZM41.2693 33.4524C41.8177 33.4069 41.8216 33.3572 42.2844 33.2495C42.2795 33.2454 41.8861 32.8503 41.8785 32.8433C42.7035 32.8433 42.5321 32.7755 43.0966 33.0465C42.7113 33.5722 43.1407 33.3244 42.3641 33.5621C41.3321 33.8778 41.2702 33.4529 41.2693 33.4524ZM41.8785 32.8433L39.6392 32.7078C39.8062 32.2507 40.1389 31.9698 40.6999 31.8891C41.2175 31.8146 41.444 32.0311 42.2844 32.0311L40.4571 32.6403C40.8646 32.6403 41.4853 32.5938 41.8785 32.8433ZM34.772 32.8433C34.772 33.598 36.1852 34.1469 36.8904 34.3796C39.827 35.3483 47.5636 34.9482 47.5636 32.8433C47.5636 30.0286 34.772 29.8533 34.772 32.8433Z" fill="#FFB811"/>
<path fill-rule="evenodd" clip-rule="evenodd" d="M42.2845 42.5894C35.1423 42.5894 36.6511 41.5444 34.5691 41.3711C34.5691 43.5774 34.5485 43.9405 36.1597 44.6534C38.0777 45.502 39.9131 45.432 42.0817 45.432C44.6013 45.432 46.0518 44.8199 47.5638 43.8076V41.168C46.2721 42.0327 44.43 42.5894 42.2845 42.5894Z" fill="#FFB811"/>
<path fill-rule="evenodd" clip-rule="evenodd" d="M34.5691 38.3253C34.5691 40.5176 34.8536 40.7206 36.8233 41.3503C39.5836 42.2325 43.0832 42.1875 45.8213 41.2527C47.7836 40.5831 47.5638 40.1338 47.5638 37.7161C44.2952 39.4455 38.9974 39.6888 35.575 38.0962C35.1353 37.8916 34.5691 37.4088 34.5691 38.3253Z" fill="#FFB811"/>
<path fill-rule="evenodd" clip-rule="evenodd" d="M47.5638 34.2644C47.0514 34.4012 46.8839 34.5774 46.2921 34.8202C45.7175 35.0563 45.3129 35.1447 44.7102 35.2687C42.0538 35.8152 40.2653 35.8118 37.6255 35.2687C37.0252 35.1452 36.6157 35.0583 36.0442 34.8196C34.7451 34.2772 35.5342 34.3449 34.5691 34.2644C34.5691 36.6373 34.596 36.9771 36.3933 37.7191C38.8375 38.7281 42.8732 38.74 45.6174 37.8002C47.813 37.0485 47.5638 36.8828 47.5638 34.2644Z" fill="#FFB811"/>
<path fill-rule="evenodd" clip-rule="evenodd" d="M55.6972 33.4524H54.682V33.2495C54.8323 33.2495 55.1345 33.2348 55.2733 33.2671C55.6655 33.3587 55.4866 33.3189 55.6972 33.4524ZM55.6972 33.4524C56.2454 33.4069 56.2495 33.3572 56.7123 33.2495C56.7072 33.2454 56.3139 32.8503 56.3064 32.8433C57.1314 32.8433 56.9599 32.7755 57.5245 33.0465C57.1391 33.5722 57.5685 33.3244 56.7919 33.5621C55.7599 33.8778 55.6981 33.4529 55.6972 33.4524ZM56.3064 32.8433L54.0671 32.7078C54.2341 32.2507 54.5668 31.9698 55.1278 31.8891C55.6454 31.8146 55.8719 32.0311 56.7123 32.0311L54.8849 32.6403C55.2925 32.6403 55.9131 32.5938 56.3064 32.8433ZM49.1997 32.8433C49.1997 33.598 50.6131 34.1469 51.3183 34.3796C54.2547 35.3483 61.9915 34.9482 61.9915 32.8433C61.9915 30.0286 49.1997 29.8533 49.1997 32.8433Z" fill="#FFB811"/>
<path fill-rule="evenodd" clip-rule="evenodd" d="M56.7123 42.5894C49.57 42.5894 51.0787 41.5444 48.9968 41.3711C48.9968 43.5774 48.9762 43.9405 50.5874 44.6534C52.5054 45.502 54.3407 45.432 56.5093 45.432C59.0291 45.432 60.4795 44.8199 61.9915 43.8076V41.168C60.6998 42.0327 58.8577 42.5894 56.7123 42.5894Z" fill="#FFB811"/>
<path fill-rule="evenodd" clip-rule="evenodd" d="M48.9968 38.3253C48.9968 40.5176 49.2813 40.7206 51.2509 41.3503C54.0113 42.2325 57.511 42.1875 60.249 41.2527C62.2114 40.5831 61.9915 40.1338 61.9915 37.7161C58.7229 39.4455 53.4251 39.6888 50.0028 38.0962C49.563 37.8916 48.9968 37.4088 48.9968 38.3253Z" fill="#FFB811"/>
<path fill-rule="evenodd" clip-rule="evenodd" d="M61.9915 34.2644C61.4792 34.4012 61.3115 34.5774 60.7198 34.8202C60.1452 35.0563 59.7406 35.1447 59.138 35.2687C56.4815 35.8152 54.693 35.8118 52.0532 35.2687C51.4529 35.1452 51.0432 35.0583 50.472 34.8196C49.1728 34.2772 49.9619 34.3449 48.9968 34.2644C48.9968 36.6373 49.0237 36.9771 50.8211 37.7191C53.2652 38.7281 57.301 38.74 60.0452 37.8002C62.2407 37.0485 61.9915 36.8828 61.9915 34.2644Z" fill="#FFB811"/>
</svg>
